<svg id="Layer_1" data-name="Layer 1" xmlns="http://www.w3.org/2000/svg" viewBox="0 0 539.54 446.4"><defs><style>.cls-1{fill:#70cbd4;}.cls-2{fill:#f3ea18;}.cls-3{fill:#b93694;}.cls-4{fill:#454546;}.cls-5{font-size:11px;}.cls-5,.cls-9{fill:#231f20;font-family:OpenSans, Open Sans;}.cls-6{font-family:OpenSans-Light, Open Sans;}.cls-7{fill:none;stroke:#231f20;stroke-miterlimit:10;stroke-width:0.57px;}.cls-8{font-size:36px;fill:#fff;font-family:OpenSans-Bold, Open Sans;font-weight:700;}.cls-9{font-size:12px;}</style></defs><title>Artboard 1</title><path class="cls-1" d="M246.32,188.49l-146.11,5.1a146.2,146.2,0,0,1,141-151.21c1.61-.06,3.49-.09,5.1-.09Z"/><path class="cls-2" d="M246.32,188.49,144.76,293.66q-42.52-41.06-44.55-100.07Z"/><path class="cls-3" d="M246.32,188.49l75.3,125.32c-57.58,34.6-128.53,26.52-176.86-20.15Z"/><path class="cls-4" d="M246.32,188.49V42.29a146.2,146.2,0,0,1,146.2,146.2c0,53.29-25.22,97.87-70.9,125.32Z"/><text class="cls-5" transform="translate(4.26 125.53)">Endlager<tspan class="cls-6"><tspan x="0" y="13.2">25,5%</tspan></tspan></text><text class="cls-5" transform="translate(4.26 234.56)">Zwischenlager<tspan class="cls-6"><tspan x="0" y="13.2">12,2%</tspan></tspan></text><text class="cls-5" transform="translate(4.2 326.35)">Verpackung<tspan class="cls-6"><tspan x="0" y="13.2">20,8%</tspan></tspan></text><text class="cls-5" transform="translate(426.41 125.53)">Stilllegung/Rückbau<tspan class="cls-6"><tspan x="0" y="13.2">41,5%</tspan></tspan></text><polyline class="cls-7" points="77.08 323.39 210.58 323.39 210.58 312.24"/><line class="cls-7" x1="58.22" y1="121.7" x2="138.74" y2="121.7"/><line class="cls-7" x1="337.53" y1="121.7" x2="418.05" y2="121.7"/><line class="cls-7" x1="88.8" y1="231.39" x2="128.39" y2="231.39"/><text class="cls-8" transform="translate(145.26 139.66)">12,1</text><text class="cls-8" transform="translate(130.95 231.42)">5,8</text><text class="cls-8" transform="translate(203.88 302.63)">9,9</text><text class="cls-8" transform="translate(287.72 167.84)">19,7</text><text class="cls-5" transform="translate(358.05 314.63)">Gesamt:<tspan x="0" y="26.4">Stillegung/Rückbau</tspan><tspan x="0" y="39.6">Verpackung</tspan><tspan x="0" y="52.8">Zwischenlager</tspan><tspan x="0" y="66">Endlager</tspan><tspan x="0" y="92.4">Atomausstieg</tspan></text><text class="cls-5"><tspan x="469.54" y="341.03">19,7 Mrd. €</tspan><tspan x="475.83" y="354.23">9,9 Mrd. €</tspan><tspan x="475.83" y="367.43">5,8 Mrd. €</tspan><tspan x="469.54" y="380.63">12,1 Mrd. €</tspan><tspan x="469.54" y="407.03">47,5 Mrd. €</tspan></text><line class="cls-7" x1="355.22" y1="389.8" x2="532.46" y2="389.8"/><text class="cls-9" transform="translate(4.26 15.98)">Kostenaufschlüsselung des Atomausstiegs (in Mrd. €)</text></svg>