<?xml version="1.0" encoding="UTF-8" standalone="no"?>
<!-- Created with Inkscape (http://www.inkscape.org/) -->

<svg
   xmlns:dc="http://purl.org/dc/elements/1.1/"
   xmlns:cc="http://creativecommons.org/ns#"
   xmlns:rdf="http://www.w3.org/1999/02/22-rdf-syntax-ns#"
   xmlns:svg="http://www.w3.org/2000/svg"
   xmlns="http://www.w3.org/2000/svg"
   xmlns:sodipodi="http://sodipodi.sourceforge.net/DTD/sodipodi-0.dtd"
   xmlns:inkscape="http://www.inkscape.org/namespaces/inkscape"
   width="715.70068"
   height="592.84851"
   id="svg2"
   sodipodi:version="0.32"
   inkscape:version="0.48.2 r9819"
   version="1.0"
   sodipodi:docname="AJAX1.svg"
   inkscape:output_extension="org.inkscape.output.svg.inkscape"
   sodipodi:modified="true">
  <defs
     id="defs4" />
  <sodipodi:namedview
     id="base"
     pagecolor="#ffffff"
     bordercolor="#666666"
     borderopacity="1.0"
     inkscape:pageopacity="0.0"
     inkscape:pageshadow="2"
     inkscape:zoom="0.98994949"
     inkscape:cx="317.79772"
     inkscape:cy="197.08656"
     inkscape:document-units="px"
     inkscape:current-layer="layer2"
     inkscape:window-width="1280"
     inkscape:window-height="1004"
     inkscape:window-x="-8"
     inkscape:window-y="-8"
     showguides="true"
     inkscape:guide-bbox="true"
     showgrid="false"
     fit-margin-top="0"
     fit-margin-left="0"
     fit-margin-right="0"
     fit-margin-bottom="0"
     inkscape:window-maximized="1" />
  <metadata
     id="metadata7">
    <rdf:RDF>
      <cc:Work
         rdf:about="">
        <dc:format>image/svg+xml</dc:format>
        <dc:type
           rdf:resource="http://purl.org/dc/dcmitype/StillImage" />
      </cc:Work>
    </rdf:RDF>
  </metadata>
  <g
     inkscape:groupmode="layer"
     id="layer2"
     inkscape:label="Dessin"
     transform="translate(-18.581072,-15.370258)">
    <path
       sodipodi:type="star"
       style="fill:#d92822;fill-opacity:1;fill-rule:evenodd;stroke:none"
       id="path2242"
       sodipodi:sides="3"
       sodipodi:cx="-54.285713"
       sodipodi:cy="141.0782"
       sodipodi:r1="307.25247"
       sodipodi:r2="153.62624"
       sodipodi:arg1="0.52359878"
       sodipodi:arg2="1.5707963"
       inkscape:flatsided="false"
       inkscape:rounded="-5.8980598e-017"
       inkscape:randomized="0"
       d="m 211.80273,294.70444 -266.088439,0 -266.088451,0 L -187.32994,64.265087 -54.285712,-166.17427 78.758508,64.26508 z"
       transform="matrix(1.1662393,0,0,1.1082658,440.45299,249.47087)" />
    <path
       style="fill:none;stroke:#000000;stroke-width:40;stroke-linecap:butt;stroke-linejoin:round;stroke-miterlimit:4;stroke-opacity:1;stroke-dasharray:none"
       d="M 375.71429,35.363917 38.571429,588.22106 l 675.714281,0 L 375.71429,35.363917 z"
       id="path2244"
       inkscape:connector-curvature="0" />
    <path
       sodipodi:type="arc"
       style="fill:#000000;fill-opacity:1;fill-rule:evenodd;stroke:#ffffff;stroke-width:2.5;stroke-linecap:butt;stroke-linejoin:miter;stroke-miterlimit:4;stroke-opacity:1;stroke-dasharray:none;stroke-dashoffset:0"
       id="path6129"
       sodipodi:cx="204.55589"
       sodipodi:cy="171.97874"
       sodipodi:rx="10.606602"
       sodipodi:ry="10.606602"
       d="m 215.16249,171.97874 c 0,5.85787 -4.74873,10.60661 -10.6066,10.60661 -5.85786,0 -10.6066,-4.74874 -10.6066,-10.60661 0,-5.85786 4.74874,-10.6066 10.6066,-10.6066 5.85787,0 10.6066,4.74874 10.6066,10.6066 z"
       transform="matrix(1.1277962,0,0,1.1277962,145.07939,17.417717)" />
    <path
       sodipodi:type="arc"
       style="fill:#000000;fill-opacity:1;fill-rule:evenodd;stroke:#ffffff;stroke-width:1.67798126;stroke-linecap:butt;stroke-linejoin:miter;stroke-miterlimit:4;stroke-opacity:1;stroke-dasharray:none;stroke-dashoffset:0"
       id="path7100"
       sodipodi:cx="204.55589"
       sodipodi:cy="171.97874"
       sodipodi:rx="10.606602"
       sodipodi:ry="10.606602"
       d="m 215.16249,171.97874 c 0,5.85787 -4.74873,10.60661 -10.6066,10.60661 -5.85786,0 -10.6066,-4.74874 -10.6066,-10.60661 0,-5.85786 4.74874,-10.6066 10.6066,-10.6066 5.85787,0 10.6066,4.74874 10.6066,10.6066 z"
       transform="matrix(1.4898855,0,0,1.4898855,173.28984,135.71082)" />
    <path
       style="fill:#000000;fill-opacity:1;fill-rule:evenodd;stroke:#ffffff;stroke-width:2.5;stroke-linecap:butt;stroke-linejoin:miter;stroke-miterlimit:4;stroke-opacity:1;stroke-dasharray:none"
       d="m 348.50263,166.4229 19.69797,29.7995 c -4.41721,4.69411 -8.35191,9.62947 -10.10152,15.65737 l -38.89088,-0.50508 c 1.56798,-24.00044 14.4126,-35.59658 29.29443,-44.95179 z"
       id="path7102"
       sodipodi:nodetypes="ccccc"
       inkscape:connector-curvature="0" />
    <path
       style="fill:#000000;fill-opacity:1;fill-rule:evenodd;stroke:#ffffff;stroke-width:2.5;stroke-linecap:butt;stroke-linejoin:miter;stroke-miterlimit:4;stroke-opacity:1;stroke-dasharray:none"
       d="m 403.80847,166.42289 -19.69797,29.7995 c 4.41721,4.69411 8.35191,9.62947 10.10152,15.65737 l 38.89088,-0.50508 c -1.56798,-24.00044 -14.4126,-35.59658 -29.29443,-44.95179 z"
       id="path8073"
       sodipodi:nodetypes="ccccc"
       inkscape:connector-curvature="0" />
    <path
       style="fill:#000000;fill-opacity:1;fill-rule:evenodd;stroke:#ffffff;stroke-width:2.5;stroke-linecap:butt;stroke-linejoin:miter;stroke-miterlimit:4;stroke-opacity:1;stroke-dasharray:none"
       d="m 406.33728,256.10528 -19.538,-30.55616 c -6.36821,2.65843 -15.69363,2.45262 -21.65686,-0.50096 l -20.52773,29.86097 c 19.6854,11.24439 44.08428,10.21895 61.72259,1.19615 z"
       id="path8075"
       sodipodi:nodetypes="ccccc"
       inkscape:connector-curvature="0" />
  </g>
  <g
     inkscape:label="Calque 1"
     inkscape:groupmode="layer"
     id="layer1"
     transform="translate(-17.295347,-24.797097)">
    <path
       sodipodi:type="star"
       style="fill:#000000;fill-opacity:1;fill-rule:evenodd;stroke:#ffffff;stroke-width:3.26521015;stroke-linecap:butt;stroke-linejoin:miter;stroke-miterlimit:4;stroke-opacity:1;stroke-dasharray:none;stroke-dashoffset:0"
       id="path8098"
       sodipodi:sides="3"
       sodipodi:cx="162.12949"
       sodipodi:cy="269.96353"
       sodipodi:r1="8.3605003"
       sodipodi:r2="4.1802502"
       sodipodi:arg1="-2.6179939"
       sodipodi:arg2="-1.5707963"
       inkscape:flatsided="false"
       inkscape:rounded="-5.8980598e-017"
       inkscape:randomized="0"
       d="m 154.88908,265.78328 7.24041,0 7.2404,0 -3.6202,6.27038 -3.6202,6.27037 -3.62021,-6.27037 z"
       transform="matrix(0.9079111,0.5081856,-0.2751883,0.4916443,211.52228,152.03393)" />
    <path
       sodipodi:type="star"
       style="fill:#000000;fill-opacity:1;fill-rule:evenodd;stroke:#ffffff;stroke-width:3.26521015;stroke-linecap:butt;stroke-linejoin:miter;stroke-miterlimit:4;stroke-opacity:1;stroke-dasharray:none;stroke-dashoffset:0"
       id="path10039"
       sodipodi:sides="3"
       sodipodi:cx="162.12949"
       sodipodi:cy="269.96353"
       sodipodi:r1="8.3605003"
       sodipodi:r2="4.1802502"
       sodipodi:arg1="-2.6179939"
       sodipodi:arg2="-1.5707963"
       inkscape:flatsided="false"
       inkscape:rounded="-5.8980598e-017"
       inkscape:randomized="0"
       d="m 154.88908,265.78328 7.24041,0 7.2404,0 -3.6202,6.27038 -3.6202,6.27037 -3.62021,-6.27037 z"
       transform="matrix(1.0109199,0.2461628,-0.1333,0.5474248,202.79618,190.96938)" />
    <path
       sodipodi:type="star"
       style="fill:#000000;fill-opacity:1;fill-rule:evenodd;stroke:#ffffff;stroke-width:3.26521015;stroke-linecap:butt;stroke-linejoin:miter;stroke-miterlimit:4;stroke-opacity:1;stroke-dasharray:none;stroke-dashoffset:0"
       id="path10041"
       sodipodi:sides="3"
       sodipodi:cx="162.12949"
       sodipodi:cy="269.96353"
       sodipodi:r1="8.3605003"
       sodipodi:r2="4.1802502"
       sodipodi:arg1="-2.6179939"
       sodipodi:arg2="-1.5707963"
       inkscape:flatsided="false"
       inkscape:rounded="-5.8980598e-017"
       inkscape:randomized="0"
       d="m 154.88908,265.78328 7.24041,0 7.2404,0 -3.6202,6.27038 -3.6202,6.27037 -3.62021,-6.27037 z"
       transform="matrix(1.0404591,0,0,0.5634206,204.93971,229.02274)" />
    <path
       sodipodi:type="star"
       style="fill:#000000;fill-opacity:1;fill-rule:evenodd;stroke:#ffffff;stroke-width:3.26521015;stroke-linecap:butt;stroke-linejoin:miter;stroke-miterlimit:4;stroke-opacity:1;stroke-dasharray:none;stroke-dashoffset:0"
       id="path10043"
       sodipodi:sides="3"
       sodipodi:cx="162.12949"
       sodipodi:cy="269.96353"
       sodipodi:r1="8.3605003"
       sodipodi:r2="4.1802502"
       sodipodi:arg1="-2.6179939"
       sodipodi:arg2="-1.5707963"
       inkscape:flatsided="false"
       inkscape:rounded="-5.8980598e-017"
       inkscape:randomized="0"
       d="m 154.88908,265.78328 7.24041,0 7.2404,0 -3.6202,6.27038 -3.6202,6.27037 -3.62021,-6.27037 z"
       transform="matrix(1.0145337,-0.2308171,0.1249901,0.5493817,218.81012,267.44309)" />
    <path
       sodipodi:type="star"
       style="fill:#000000;fill-opacity:1;fill-rule:evenodd;stroke:#ffffff;stroke-width:3.26521015;stroke-linecap:butt;stroke-linejoin:miter;stroke-miterlimit:4;stroke-opacity:1;stroke-dasharray:none;stroke-dashoffset:0"
       id="path10045"
       sodipodi:sides="3"
       sodipodi:cx="162.12949"
       sodipodi:cy="269.96353"
       sodipodi:r1="8.3605003"
       sodipodi:r2="4.1802502"
       sodipodi:arg1="-2.6179939"
       sodipodi:arg2="-1.5707963"
       inkscape:flatsided="false"
       inkscape:rounded="-5.8980598e-017"
       inkscape:randomized="0"
       d="m 154.88908,265.78328 7.24041,0 7.2404,0 -3.6202,6.27038 -3.6202,6.27037 -3.62021,-6.27037 z"
       transform="matrix(0.9409916,-0.4439482,0.2404031,0.5095578,245.94989,301.86844)" />
    <path
       style="fill:none;stroke:#ffffff;stroke-width:3;stroke-linecap:butt;stroke-linejoin:miter;stroke-miterlimit:4;stroke-opacity:1;stroke-dasharray:none"
       d="m 286.57144,365.14792 c 3.5757,-1.55731 4.57172,-5.20026 2.61644,-8.4414 -1.48186,-2.58367 -2.09814,-6.80571 2.02942,-6.57581 2.7546,-1.19355 8.98443,-0.30542 8.01698,-4.87334 0.12073,-3.27901 -1.9062,-6.67309 -0.68205,-9.89105 2.6974,-2.65626 9.05379,-0.49224 10.25668,-4.76246 -0.27364,-3.25056 -1.14638,-6.53898 -1.02489,-9.84243 1.67959,-4.02145 7.57223,-2.12805 10.66304,-4.60732 1.37785,-3.45683 -1.27105,-7.46501 -0.90775,-11.21664 1.6311,-4.03073 8.39513,-1.67733 11.06336,-5.21369 0.50345,-3.95265 -4.09997,-10.81115 0.88519,-12.67461 4.07133,-0.45331 9.39078,-1.95217 8.04617,-7.22493 0.0363,-0.72544 0.0725,-1.45089 0.10881,-2.17633"
       id="path10050"
       inkscape:connector-curvature="0" />
    <path
       style="fill:none;stroke:#ffffff;stroke-width:3;stroke-linecap:butt;stroke-linejoin:miter;stroke-miterlimit:4;stroke-opacity:1;stroke-dasharray:none"
       d="m 462.15893,365.32647 c -3.5757,-1.55731 -4.57172,-5.20026 -2.61644,-8.4414 1.48186,-2.58367 2.09814,-6.80571 -2.02942,-6.57581 -2.7546,-1.19355 -8.98443,-0.30542 -8.01698,-4.87334 -0.12073,-3.27901 1.9062,-6.67309 0.68205,-9.89105 -2.6974,-2.65626 -9.05379,-0.49224 -10.25668,-4.76246 0.27364,-3.25056 1.14638,-6.53898 1.02489,-9.84243 -1.67959,-4.02145 -7.57223,-2.12805 -10.66304,-4.60732 -1.37785,-3.45683 1.27105,-7.46501 0.90775,-11.21664 -1.6311,-4.03073 -8.39513,-1.67733 -11.06336,-5.21369 -0.50345,-3.95265 4.09997,-10.81115 -0.88519,-12.67461 -4.07133,-0.45331 -9.39078,-1.95217 -8.04617,-7.22493 -0.0363,-0.72544 -0.0725,-1.45089 -0.10881,-2.17633"
       id="path11024"
       inkscape:connector-curvature="0" />
    <path
       style="fill:none;stroke:#ffffff;stroke-width:3;stroke-linecap:butt;stroke-linejoin:miter;stroke-miterlimit:4;stroke-opacity:1;stroke-dasharray:none"
       d="m 373.04586,377.93988 c -2.24444,-3.18957 -1.20087,-6.81918 2.15466,-8.57092 2.60926,-1.43631 5.33113,-4.72216 1.68596,-6.67213 -1.73225,-2.45187 -7.51539,-4.93277 -4.31371,-8.33146 1.60196,-2.86361 5.09822,-4.70871 5.72593,-8.09394 -0.92277,-3.67153 -7.47747,-5.12843 -6.28443,-9.40141 1.92402,-2.63423 4.37947,-4.98926 5.99348,-7.87413 0.65651,-4.30837 -5.36135,-5.75526 -6.7122,-9.4802 0.62064,-3.66918 4.96749,-5.71541 6.60803,-9.10885 0.70274,-4.29108 -6.29863,-5.79817 -6.73884,-10.20629 1.62535,-3.63802 9.12386,-7.10254 5.8347,-11.28653 -3.24187,-2.50429 -7.00617,-6.55068 -3.11581,-10.35529 0.34625,-0.63851 0.6925,-1.27703 1.03875,-1.91554"
       id="path11026"
       inkscape:connector-curvature="0" />
    <path
       style="fill:none;stroke:#ffffff;stroke-width:3;stroke-linecap:butt;stroke-linejoin:miter;stroke-miterlimit:4;stroke-opacity:1;stroke-dasharray:none"
       d="m 415.13222,376.38515 c -2.98162,-2.51413 -2.89513,-6.2898 -0.0952,-8.8371 2.15836,-2.05249 3.9554,-5.92238 -0.0658,-6.88152 -2.2987,-1.9309 -8.52255,-2.85997 -6.29016,-6.96098 0.82128,-3.1768 3.73355,-5.85016 3.47997,-9.28374 -1.82589,-3.31629 -8.53561,-3.05885 -8.46814,-7.49474 1.19107,-3.03683 2.96709,-5.93876 3.79462,-9.13917 -0.46043,-4.33372 -6.6484,-4.20309 -8.90189,-7.46219 -0.33261,-3.7064 3.35117,-6.79054 4.07506,-10.48957 -0.41132,-4.32874 -7.56579,-4.00628 -9.11227,-8.15763 0.64702,-3.93171 7.01831,-9.18881 2.7735,-12.39909 -3.77204,-1.59778 -8.4414,-4.55418 -5.64616,-9.22286 0.17254,-0.70555 0.34507,-1.41112 0.51761,-2.11668"
       id="path11030"
       inkscape:connector-curvature="0" />
    <path
       style="fill:none;stroke:#ffffff;stroke-width:3;stroke-linecap:butt;stroke-linejoin:miter;stroke-miterlimit:4;stroke-opacity:1;stroke-dasharray:none"
       d="m 331.0947,376.02332 c 3.13515,-2.31984 3.28845,-6.09339 0.65585,-8.81322 -2.02375,-2.18534 -3.57156,-6.16148 0.50235,-6.86349 2.4166,-1.78113 8.68687,-2.31335 6.71924,-6.54777 -0.61802,-3.2225 -3.35476,-6.0753 -2.88379,-9.48587 2.03268,-3.19373 8.71254,-2.51098 8.92671,-6.94221 -0.99595,-3.1063 -2.58422,-6.11508 -3.20698,-9.36158 0.73453,-4.29576 6.90175,-3.77268 9.35752,-6.88219 0.56716,-3.67784 -2.91347,-6.98954 -3.40114,-10.72704 0.6852,-4.29392 7.80479,-3.51807 9.61159,-7.56292 -0.39619,-3.96483 -6.421,-9.61568 -1.98101,-12.55009 3.86584,-1.35519 8.7134,-4.00929 6.22008,-8.84596 -0.12741,-0.71509 -0.25482,-1.43018 -0.38223,-2.14526"
       id="path11032"
       inkscape:connector-curvature="0" />
    <path
       style="fill:#000000;fill-opacity:1;fill-rule:evenodd;stroke:#ffffff;stroke-width:2.5;stroke-linecap:butt;stroke-linejoin:miter;stroke-miterlimit:4;stroke-opacity:1;stroke-dasharray:none"
       d="m 512.65242,477.54988 0,16.16245 60.60915,0 -3.53554,11.49048 c 0,0 0.0104,1.62907 0.6417,2.38669 0.63134,0.75761 3.14638,0.0124 3.14638,0.0124 l 33.58757,-21.97082 -33.33503,-23.2335 c 0,0 -2.39912,-0.25254 -3.53554,0.50507 -1.13642,0.75761 -1.01015,2.52538 -1.01015,2.52538 l 4.04061,12.12183 -60.60915,0 z"
       id="path11034"
       transform="translate(-1.2857246,9.4268389)"
       sodipodi:nodetypes="ccccscccsccc"
       inkscape:connector-curvature="0" />
    <path
       style="fill:#000000;fill-opacity:1;fill-rule:evenodd;stroke:#ffffff;stroke-width:2.5;stroke-linecap:butt;stroke-linejoin:miter;stroke-miterlimit:4;stroke-opacity:1;stroke-dasharray:none"
       d="m 445.72981,426.53718 -18.43528,0.25254 -14.89975,23.73858 c 0,0 -7.51301,3.91434 -11.11168,2.02031 -3.59867,-1.89403 -3.283,-9.59645 -3.283,-9.59645 l 19.1929,-28.28427 5.80838,-2.27284 57.83123,0.50507 4.54569,2.77792 21.46574,25.50636 24.74874,-10e-6 0,15.15229 -33.58757,0 -15.90991,-18.68782 -12.6269,25.75889 39.90102,78.53936 -21.2132,0 -38.3858,-67.17515 -1.01015,4.79823 -2.02031,27.27412 -3.03045,6.06091 -4.79823,3.03046 -71.46829,0.25254 6.56599,-12.37437 10.85914,-5.3033 41.92133,0 0.75762,-8.83883 3.03045,-32.57742 15.15229,-30.55712 z"
       id="path12005"
       transform="translate(-1.2857246,9.4268389)"
       sodipodi:nodetypes="cccsccccccccccccccccccccccccc"
       inkscape:connector-curvature="0" />
    <path
       style="fill:#000000;fill-opacity:1;fill-rule:evenodd;stroke:#ffffff;stroke-width:2.5;stroke-linecap:butt;stroke-linejoin:miter;stroke-miterlimit:4;stroke-opacity:1;stroke-dasharray:none"
       d="m 232.28571,497.29077 c 4.94545,0.334 9.76422,1.38779 14.41468,2.96577 5.18067,0.9558 10.41508,1.05827 15.59171,0.0125 5.73069,-1.42609 13.75143,-1.97977 17.55423,-5.89121 1.46195,-4.27142 2.00556,-10.4453 7.06835,-11.93893 4.67834,-1.61267 9.38439,-3.8158 9.92506,-9.36536 -2.67658,-8.80577 -5.89532,-17.95944 -4.11811,-27.27733 0.32397,-4.34916 2.10543,-8.5516 2.19032,-12.86067 -0.71692,-4.96266 -2.13311,-9.87369 -1.91196,-14.93046 5.92883,-3.08537 5.76221,5.65593 6.71127,9.3082 1.23798,9.4518 -2.37938,18.78937 -2.04951,28.19943 5.36006,-0.8789 3.93352,-8.25439 5.65989,-12.31261 1.0419,-7.66002 0.17109,-15.49989 -1.16834,-23.07285 -2.29298,-4.18187 -3.89114,-9.18817 -7.95131,-12.0849 -3.79338,-3.93991 -8.00055,-7.44313 -13.07836,-9.59003 -6.1326,-3.71051 -13.30253,-4.84731 -20.06735,-6.90617 -5.98515,-0.33197 -12.21903,-0.0676 -18.16264,0.85577 -6.11929,1.50232 -11.95765,3.81444 -17.49794,6.78968 -6.59359,2.44466 -10.8837,8.40905 -15.18786,13.64531 -4.2083,5.0069 -5.86446,11.57512 -7.78832,17.66583 0.81833,5.07718 1.23217,10.48396 2.87095,15.32752 2.68525,6.95946 3.28616,-3.18513 2.92217,-5.84777 0.20741,-5.15702 -1.97659,-11.29159 0.0236,-15.82933 2.12306,-4.8767 6.7407,-1.37726 5.09593,2.80197 -0.0884,6.42995 0.35946,12.84964 0.73929,19.26424 -2.5122,6.38612 -4.1101,13.13353 -5.49136,19.8338 -0.26558,5.42873 1.49794,11.42852 6.97904,13.62382 4.97719,0.92122 11.33498,2.80897 13.0819,8.08155 1.21489,3.17743 2.42982,6.35485 3.6447,9.53228 z"
       id="path12976"
       inkscape:connector-curvature="0" />
    <path
       style="fill:#df271f;fill-opacity:1;fill-rule:evenodd;stroke:#ffffff;stroke-width:2.5;stroke-linecap:butt;stroke-linejoin:miter;stroke-miterlimit:4;stroke-opacity:1;stroke-dasharray:none"
       d="m 244.07143,448.36221 c -3.80325,-1.20482 -8.39243,-1.60003 -12.52409,-0.45622 -2.51098,0.48574 -5.29563,0.69647 -7.29059,2.48356 -2.6838,1.44752 -3.48078,4.75209 -3.47069,7.58121 -0.0837,3.44907 1.02203,7.01947 3.51619,9.48009 1.74681,2.09676 3.85794,4.02209 6.53321,4.80498 2.6287,0.82731 5.53187,0.395 7.97145,-0.8078 1.7083,-0.62139 3.63096,-1.37505 4.38966,-3.1808 2.06904,-3.57789 4.80097,-7.12756 4.91066,-11.4364 0.18131,-1.62269 0.0829,-3.35463 -0.91889,-4.71535 -0.85372,-1.39237 -1.63243,-3.283 -3.11691,-3.75327 z"
       id="path13950"
       sodipodi:nodetypes="ccccccccccs"
       inkscape:connector-curvature="0" />
    <path
       style="fill:#df271f;fill-opacity:1;fill-rule:evenodd;stroke:#ffffff;stroke-width:2.5;stroke-linecap:butt;stroke-linejoin:miter;stroke-miterlimit:4;stroke-opacity:1;stroke-dasharray:none"
       d="m 266.98133,447.84206 c 3.80325,-1.20482 8.39243,-1.60003 12.52409,-0.45622 2.51098,0.48574 5.29563,0.69647 7.29059,2.48356 2.6838,1.44752 3.48078,4.75209 3.47069,7.58121 0.0837,3.44907 -1.02203,7.01947 -3.51619,9.48009 -1.74681,2.09676 -3.85794,4.02209 -6.53321,4.80498 -2.6287,0.82731 -5.53187,0.395 -7.97145,-0.8078 -1.7083,-0.62139 -3.63096,-1.37505 -4.38966,-3.1808 -2.06904,-3.57789 -4.80097,-7.12756 -4.91066,-11.4364 -0.18131,-1.62269 -0.0829,-3.35463 0.91889,-4.71535 0.85372,-1.39237 1.63243,-3.283 3.11691,-3.75327 z"
       id="path14926"
       sodipodi:nodetypes="ccccccccccs"
       inkscape:connector-curvature="0" />
    <path
       style="fill:#df271f;fill-opacity:1;fill-rule:evenodd;stroke:#ffffff;stroke-width:2.5;stroke-linecap:butt;stroke-linejoin:miter;stroke-miterlimit:4;stroke-opacity:1;stroke-dasharray:none"
       d="m 244.78571,490.68362 c 2.97099,-0.19476 5.93168,-0.62668 8.90989,-0.65789 3.10146,0.33834 6.20293,0.67669 9.30439,1.01503 0.24078,-2.28518 0.94265,-4.57398 0.50149,-6.88116 -0.39441,-3.41051 -0.56461,-6.88009 -1.48894,-10.2014 -0.51721,-1.61704 -1.47249,-3.05831 -2.52989,-4.36504 -1.1212,-1.12345 -2.54541,-1.87383 -3.74315,-2.90722 -1.25521,-1.1514 -2.70687,0.0396 -4.03868,0.3122 -1.43548,0.23697 -2.55832,0.86004 -3.11738,2.25167 -1.06548,1.53454 -1.95163,3.19268 -2.49391,4.98508 -0.84989,2.33152 -1.86791,4.64435 -2.27351,7.1027 -0.13804,1.70871 -0.34317,3.41199 -0.43761,5.12416 0.46912,1.40728 0.93823,2.81458 1.4073,4.22187 z"
       id="path14928"
       inkscape:connector-curvature="0" />
    <path
       style="fill:#000000;fill-opacity:1;fill-rule:evenodd;stroke:#ffffff;stroke-width:2.5;stroke-linecap:butt;stroke-linejoin:miter;stroke-miterlimit:4;stroke-opacity:1;stroke-dasharray:none"
       d="m 217.1828,485.6311 0,6.31346 -37.62818,-12.12183 -12.37437,0.25254 2.27284,-3.53554 0.75761,-8.33376 0.75762,-1.76776 5.3033,4.04061 40.91118,15.15228 z"
       id="path15903"
       transform="translate(-1.2857246,9.4268389)"
       inkscape:connector-curvature="0" />
    <path
       style="fill:#000000;fill-opacity:1;fill-rule:evenodd;stroke:#ffffff;stroke-width:2.5;stroke-linecap:butt;stroke-linejoin:miter;stroke-miterlimit:4;stroke-opacity:1;stroke-dasharray:none"
       d="m 293.17374,490.89106 0,6.31346 37.62818,-12.12183 12.37437,0.25254 -2.27284,-3.53554 -0.75761,-8.33376 -0.75762,-1.76776 -5.3033,4.04061 -40.91118,15.15228 z"
       id="path16874"
       inkscape:connector-curvature="0" />
    <path
       style="fill:#000000;fill-opacity:1;fill-rule:evenodd;stroke:#ffffff;stroke-width:2.5;stroke-linecap:butt;stroke-linejoin:miter;stroke-miterlimit:4;stroke-opacity:1;stroke-dasharray:none"
       d="m 225.49352,527.76164 0,-6.31346 -37.62818,12.12183 -12.37437,-0.25254 2.27284,3.53554 0.75761,8.33376 0.75762,1.76776 5.3033,-4.04061 40.91118,-15.15228 z"
       id="path16876"
       inkscape:connector-curvature="0" />
    <path
       style="fill:#000000;fill-opacity:1;fill-rule:evenodd;stroke:#ffffff;stroke-width:2.5;stroke-linecap:butt;stroke-linejoin:miter;stroke-miterlimit:4;stroke-opacity:1;stroke-dasharray:none"
       d="m 283.82983,528.26671 0,-6.31346 37.62818,12.12183 12.37437,-0.25254 -2.27284,3.53554 -0.75761,8.33376 -0.75762,1.76776 -5.3033,-4.04061 -40.91118,-15.15228 z"
       id="path16878"
       inkscape:connector-curvature="0" />
    <path
       style="fill:#000000;fill-opacity:1;fill-rule:evenodd;stroke:#ffffff;stroke-width:2.5;stroke-linecap:butt;stroke-linejoin:miter;stroke-miterlimit:4;stroke-opacity:1;stroke-dasharray:none"
       d="m 219.68515,487.22928 c 3.88702,7.79116 8.25593,15.40403 10.98912,23.70825 2.55449,2.79292 6.35638,3.86816 9.33423,6.08086 4.2189,1.67712 8.86201,1.54748 13.31124,1.98486 9.45104,0.1695 19.07312,-2.76077 26.47832,-8.70145 3.55597,-2.84012 3.85739,-7.61537 5.15386,-11.64448 0.72856,-2.52279 1.87152,-6.96763 2.36038,-8.28484 -1.11256,7.67136 -2.10467,15.36023 -3.30079,23.01939 -1.91586,3.71996 -3.02141,8.29896 -6.88349,10.56319 -3.15735,2.69546 -6.19121,5.86647 -10.36288,6.90065 -5.22925,2.20038 -10.99283,2.8058 -16.61535,2.59287 -4.4724,-0.48176 -9.14625,-1.25776 -13.03496,-3.63994 -4.92594,-3.45236 -6.98113,-9.37738 -8.62,-14.89702 -2.91724,-9.23364 -5.86175,-18.45843 -8.80968,-27.68234 z"
       id="path16880"
       inkscape:connector-curvature="0" />
  </g>
</svg>
