<svg xmlns="http://www.w3.org/2000/svg" viewBox="0 0 1183.28 642.09"><defs><style>.cls-1,.cls-10,.cls-13,.cls-7{fill:none;stroke-miterlimit:10;}.cls-1{stroke:#6d1b54;stroke-width:2.83px;}.cls-2{font-size:21px;font-family:OpenSans-Bold, Open Sans;font-weight:700;}.cls-2,.cls-3{fill:#231f20;}.cls-3{font-size:11px;font-family:OpenSans, Open Sans;}.cls-4{fill:#70cbd4;}.cls-5{fill:#b93694;}.cls-6{fill:#6d1b54;}.cls-7{stroke:#b93694;stroke-width:1.42px;}.cls-8{fill:#a5a035;}.cls-9{fill:#f3ea10;}.cls-10,.cls-13{stroke:#a5a035;}.cls-11{fill:#3b8187;}.cls-12{fill:#f3ea18;}.cls-13{stroke-width:1.42px;}.cls-14{fill:#fff;}</style></defs><title>Artboard 1</title><g id="Zeitleiste"><path class="cls-1" d="M347.85,337.75H242.31c-.77-2.16-1.4-4.18-1.92-6a56,56,0,0,1-1.68-6.75,2.59,2.59,0,0,0-.08-.38,2.08,2.08,0,0,0-3.52-.89c-.86,1-1,3.18-1.26,7.57-.21,3.61-.06,4.61-.25,8.46-.24,4.86-.37,7.3-1.26,8s-1.89-.32-2.51-1.34c-1.14-1.86-1.14-4.58-1.26-8.9-.21-7.65-.35-3.87-.5-11.58s0-10.28-.75-14.69-1.52-5.33-2-5.79c-1.42-1.34-3.41-.6-4.53,1.34-.57,1-.7,1.93-1.26,7.57-.58,5.81-.87,8.72-1,10.68-.34,5-.19,4.76-.5,8.9-.27,3.51-.38,3.69-1,10.24-.47,4.9-.7,7.35-.75,8.9-.21,6-1.07,7.56-1.75,9.45-1.43,4-5.45,1.09-6-4.11s-.58-5.33-.25-12c.3-6.22.3-12.47.5-18.7.31-9.43.42-13.91.5-17.81,0-2.08,0,.38,0-15.14,0-4.72,0-8.7-1.26-12.91-1-3.29-2-4.14-2.51-4.45a2.59,2.59,0,0,0-3,.45c-.69.63-1.75,2.08-2.77,8.46-.64,4-.63,5.94-1,10.68-.49,6.11-.76,6.09-1.51,13.8-.31,3.23-.54,6.46-1,12.91-.69,9.61-1,14.42-1.26,18.25-.45,7.63-1,9.72-1.26,13.36-.27,3.21-.36,3.77-.73,6.6-.6,4.61-2,6.14-3.09,7.56-1.54,2-4.07.38-5.87-4.32-1.56-4.08-1.2-8.42-1.38-14.74-.32-11-.42-10.53-1.24-24.15-.77-12.66-.15-18.37-1.52-27.49-.74-4.9-2.18-6.08-3-6.23-1.13-.2-2.11,1.53-3,3.12a27.79,27.79,0,0,0-2.77,8c-.92,4.13-1.45,4.43-2.33,9.47-.82,4.7-.38,5.26-1.44,10.56a90.65,90.65,0,0,0-1.76,11.13c-.66,7.17-.63,9.45-1.43,14.27-.46,2.78-.73,5.27-1.39,7.72-1.17,4.33-4.81,8.2-6.48,5.87-1.31-1.83-2.91-8.18-2.76-18.06.14-9.22.21-18.22-2.77-22.26-.37-.5-1.93-2.48-3.52-1.78s-2.8,4.16-3.77,7.12a13.21,13.21,0,0,1-2.9,4.74c-2,2.38-3.71,4.38-4.38,4.71a9.79,9.79,0,0,1-1.4.38H79.52V309"/><polyline class="cls-1" points="347.85 337.75 273.93 337.75 273.93 280.19 273.93 365.23"/><polyline class="cls-1" points="567.85 337.47 544.23 337.47 544.23 394.81 544.23 309.77"/><path class="cls-1" d="M1103.74,337.6h-397c-.49-1.35-1.19-3.39-1.88-5.93-1.34-4.91-1.22-6.47-2.4-10.27-1.48-4.79-3.45-8.87-5.76-9.42-2.56-.61-6.73,2.23-7.71,4.53-1.29,3-1.94,5.43-2.22,12.08-.21,5.14-.47,10.27-.68,15.41-.27,6.34-.44,8.77-2.05,11.64-.85,1.52-2.42,4.3-5.48,5.14-4.51,1.23-8.62-2.74-8.9-3.08a44.1,44.1,0,0,1-4.76-6.93c-1.62-3.48-1.87-10.58-2.86-14.29-.76-2.87,0-7-2.16-12-1-2.23-3.95-6.37-6-7.6a15.17,15.17,0,0,0-7.21-1.17,16.8,16.8,0,0,0-6.82,3.12c-1.47,1.36-3,5.22-3.9,7-.81,1.62-1.82,5.19-2.92,6.62a18.57,18.57,0,0,1-4.87,3.9c-.36.18-1.36.72-1.36.72l-1.17.55H460.73c-.49-1.35-1.19-3.39-1.88-5.93-1.34-4.91-1.22-6.47-2.4-10.27-1.48-4.79-2.48-8-4.79-8.56-2.56-.61-5.71,1.37-6.68,3.67-1.29,3-1.94,5.43-2.22,12.08-.21,5.14-.47,10.27-.68,15.41-.27,6.34-.44,8.77-2.05,11.64-.85,1.52-2.42,4.3-5.48,5.14-4.51,1.23-8.59-2.77-8.9-3.08-1.34-1.35-2.56-3.31-3.77-12-.9-6.49-.78-9.47-1.37-15.75-.69-7.46-1-8.19-1-13.82,0-8.38-.31-9.44-.35-22.82,0-11.56-.84-13.95-2.38-16.52-1.64-2.73-3.12-4.85-7.47-4.37-3.28.36-7.89,2.73-11.11,10-3.37,7.63-3.28,14.57-3.64,17.3-1,7.31-.17,12.63-.05,22,.24,18.53.36,27.8,1,34.24a87.55,87.55,0,0,1,0,12.33c-.2,3.73-.52,6-1.71,8.56-.94,2-2.7,5.71-5.82,6.16-4,.58-7.44-4.65-8.22-5.82a19.65,19.65,0,0,1-2.74-7.53c-1.44-7.1-2.25-11.06-2.4-17.8-.05-2.37.19-6.83.68-15.75.3-5.5.61-8.13.34-12.33-.25-3.93.12-6.31-1.57-10.22-.39-.91-3.46-6.36-7.08-6.5-4.72-.18-7.59,6.71-8.71,11.43a84.17,84.17,0,0,0-1.65,11.29c-.61,4.53-1.56,5.55-2.73,7.8H335.13"/><polyline class="cls-1" points="1103.74 337.87 721.06 337.87 721.06 283.9 721.06 368.94"/><polyline class="cls-1" points="976.18 237.04 976.18 337.6 1103.74 337.6"/><polyline class="cls-1" points="1075.39 507.67 1075.39 337.6 1103.74 337.6"/><polyline class="cls-1" points="1094.15 139.19 1094.15 337.6 1103.74 337.6"/><polyline class="cls-1" points="1098.4 365.94 1098.4 337.6 1104.18 337.6"/><polyline class="cls-1" points="1018.7 365.94 1018.7 337.6 1103.74 337.6"/><polyline class="cls-1" points="1103.83 337.27 1100.18 337.27 1100.18 280.9"/><polyline class="cls-1" points="1103.74 308.98 1103.74 337.33 1103.74 337.33"/><text class="cls-2" transform="translate(18.92 251.06)">vor<tspan x="0" y="25.2">1 Million</tspan><tspan x="0" y="50.4">Jahren</tspan></text><text class="cls-3" transform="translate(271.58 377.75)">160.000 v. Chr.</text><text class="cls-3" transform="translate(539.93 301.86)">40.000 v. Chr.</text><text class="cls-3" transform="translate(720.49 381.73)">7000 v.Chr.</text><text class="cls-3" transform="translate(978.1 366.22)">Jahr 0<tspan x="0" y="13.2">(Christi Geburt)</tspan></text><text class="cls-2" transform="translate(1109.05 301.46)">2018</text></g><g id="Mammut"><circle class="cls-4" cx="79.62" cy="456.11" r="62.26"/><path class="cls-5" d="M130.63,447.59a20,20,0,0,1-1.31,5.48,11,11,0,0,1-2.61,4.44c-.51.48-1.12.91-5.22,2.35a72.52,72.52,0,0,1-7.57,2.35,24.91,24.91,0,0,1-5.22,1c-3.39-.06-4.87-2.55-6-1.83-.94.6-1,3,0,4.7,2.3,3.82,10.17,3.37,14.88,2.09,2.07-.56,11.23-3.05,13.57-11.22A15.22,15.22,0,0,0,130.63,447.59Z"/><path class="cls-6" d="M99.67,420.7a9.17,9.17,0,0,0-4.13-2.32c-.62-.17-4.33-1.19-6.71.77-.86.71-.55,1-1.81,2.58-2,2.59-3.14,2.8-8.26,2.06a18,18,0,0,0-8.51.77,20.14,20.14,0,0,0-5.16,2.84c-4,3-4.21,4.84-7.48,8a25.18,25.18,0,0,1-10.84,6.45c-3.25.87-5,.46-9.8,2.06-2.5.83-4.05,1.6-5.16,3.1-.73,1-.84,1.7-1.55,4.9-1.45,6.53-1.59,6.3-1.81,8.26-.29,2.61-.46,7,.52,7.22s1.54-2.89,2.84-2.84c1.8.07,1.25,6.11,5.68,11.35,1.11,1.32,1.88,1.8,2.58,3.35,1.36,3,6.09,4.17,6.71,4.79,2.84,2.84,4.16,4.85,3.87,8a6.79,6.79,0,0,0,1.55,4.13c1.53,1.95,6.08,1.77,8.26-.77,1.28-1.5-1.23-3.07-1.81-5.68-.52-2.32-.32-5,2.32-6.71,3.23-2.12,6-.76,9.11-.13a3.87,3.87,0,0,1,2.58,1.29c1,1.39.06,3,0,6.45,0,2.57-.08,3.93,1.29,5.19,1.67,1.53,4.55,1,6.19.26.35-.16,3.07-1.46,3.1-3.35,0-1.28-1.21-4.29-1.81-5.71-.49-1.19,1.68-3.14,3.79-6.45a23.08,23.08,0,0,0,5.16-7c.35-.74,1.07-2.39,2.32-4.64,2-3.59,2.66-3.86,3.1-3.87,1.42,0,2.53,2.56,3.1,3.87a12.06,12.06,0,0,1,.77,8.51,11.78,11.78,0,0,1-3.1,4.9A35.89,35.89,0,0,1,93,485.2s3.52,1.81,5.93,1c2.17-.7,3.17-3.37,4.13-5.93a22.7,22.7,0,0,0,1.29-5.93c.47-4.68-.13-6.57-.26-12.13a48,48,0,0,1,.26-8.77c.81-5.66,2.32-6.55,2.58-11.87a19.58,19.58,0,0,0-.77-7.22c-.79-2.36-1.36-2.24-2.84-5.42C101.11,424.29,101.75,422.77,99.67,420.7Z"/><path class="cls-6" d="M99.76,420.6a9.19,9.19,0,0,0-4.14-2.33c-.62-.17-4.34-1.19-6.73.78-.86.71-.55,1-1.81,2.59-2,2.59-3.15,2.8-8.28,2.07a18.05,18.05,0,0,0-8.54.78,20.2,20.2,0,0,0-5.17,2.85c-4,3-4.23,4.85-7.5,8a25.25,25.25,0,0,1-10.87,6.47c-3.26.87-5,.46-9.83,2.07-2.51.83-4.06,1.61-5.17,3.1-.73,1-.84,1.7-1.55,4.92-1.45,6.55-1.6,6.32-1.81,8.28-.29,2.62-.46,7,.52,7.24s1.55-2.9,2.85-2.85c1.81.07,1.25,6.12,5.69,11.38,1.12,1.32,1.89,1.81,2.59,3.36a11.41,11.41,0,0,1,.52,7c-.69,3.13-2,3.57-2.33,6.73-.13,1.4-.24,2.65.52,3.62,1.54,2,6.1,2,8.28-.52,1.29-1.5-.21-3.06,1-5.43.53-1,1.24-1.62,3.88-3.36,3.23-2.13,4.85.18,6.73-.76,3.33-1.68,10.55-4.26,13.71-3.62a3.88,3.88,0,0,1,2.59,1.29c1,1.39.06,3,0,6.47,0,2.58-.08,3.94,1.29,5.2,1.67,1.54,4.57,1,6.21.26.35-.16,3.08-1.46,3.1-3.36,0-1.28-1.22-4.3-1.81-5.73-.49-1.19-.57-3.15,1.55-6.47a23.14,23.14,0,0,0,5.17-7c.35-.74,1.07-2.4,2.33-4.66,2-3.6,2.67-3.87,3.1-3.88,1.43,0,2.54,2.57,3.1,3.88a12.09,12.09,0,0,1,.78,8.54,11.81,11.81,0,0,1-3.1,4.92A36,36,0,0,1,93,485.28s3.53,1.81,6,1c2.18-.7,3.18-3.38,4.14-6a22.76,22.76,0,0,0,1.29-6c.47-4.69-.13-6.59-.26-12.16a48.11,48.11,0,0,1,.26-8.8c.82-5.68,2.32-6.57,2.59-11.9a19.64,19.64,0,0,0-.78-7.24c-.79-2.37-1.36-2.24-2.85-5.43C101.2,424.2,101.84,422.68,99.76,420.6Z"/><path class="cls-5" d="M96,452.3c1.46,1.75.76,3,2.07,6.21a10.16,10.16,0,0,0,9.05,7c2.78.51,4.8.25,8.54-.26a60.18,60.18,0,0,0,10.61-2.59c2.77-.94,5.26-2,6.47-4.4.08-.15.14-.31.27-.63,1.19-2.86,1.22-4.9,2.05-7.65l.16-.51c.77-2.51.81-2.59.88-2.6.47,0,1.74,3.33,1.55,7.24a17.74,17.74,0,0,1-1.29,5.69,17.17,17.17,0,0,1-3.62,6.21c-2.2,2.24-4.57,2.87-9.31,4.14a46.28,46.28,0,0,1-11.12,1.55c-4.73.09-7.1.13-9.83-1-4.24-1.81-6.48-5.12-8.28-7.76-2.61-3.85-3-6.64-3.1-8-.07-1.11-.25-3.78,1-4.4C93.2,450,95,451.11,96,452.3Z"/><path class="cls-5" d="M102.45,437.82s.08-.24-1.55-1.81c-.65.19-.71.28-.71.28-.11.17,0,.42.2.87s.33.73.53.87a1.3,1.3,0,0,0,.78.21.9.9,0,0,0,.44-.12l.07,0A1.43,1.43,0,0,0,102.45,437.82Z"/><path class="cls-7" d="M103.45,437.82a3.18,3.18,0,0,1-.4-.8c-.19-.57-.08-.79-.27-1.27a1.62,1.62,0,0,0-.73-.93c-.45-.21-.94,0-1.6.2a5.27,5.27,0,0,0-.87.4"/><path class="cls-7" d="M102,437.56c-.14.06-.4,1.53-.66,1.59a2.64,2.64,0,0,1-1.13.07,3.3,3.3,0,0,1-1.27-.73c-.32-.24-.57-.45-.73-.6"/><path class="cls-7" d="M104.72,434.35a2.93,2.93,0,0,0-1-1.47,3.5,3.5,0,0,0-2.47-.53c-.12,0-.59.12-1.53.33a6,6,0,0,0-1.93.6,3.25,3.25,0,0,0-1,1"/><path class="cls-7" d="M92,436.11a2.93,2.93,0,0,0-2.35.52c-.76.71-.49,1.71-.78,3.39s-1.15,4.29-2.35,4.44c-.9.11-1.72-1.25-2.87-3.13-1.49-2.44-2.23-3.66-2.35-5.48,0-.6-.29-4.45,2.61-6.53a6.81,6.81,0,0,1,5-1"/></g><g id="Idaltu"><circle class="cls-4" cx="273.59" cy="218.17" r="62.26"/><ellipse class="cls-8" cx="301.75" cy="217.62" rx="11.15" ry="10.3"/><path class="cls-9" d="M267.41,239.53c-2.24.13-3.06-2-5.23-2.41-1.8-.36-3.15.71-4.82,1.61-4.92,2.64-12.94,4-18.09,1.21-2.39-1.28-3-2.84-5.23-2.81-2.78,0-3.59,2.56-5.63,2.41-2.56-.19-4.17-4.38-6.43-10.45-2.35-6.29-3.52-9.44-3.22-12.46.51-5.11,0-6.48,2.06-13a84.89,84.89,0,0,1,4.77-12.29c2.89-6.78,13.2-8.35,21.71-9.65,11.85-1.81,33.35-5.08,44.62,6.43,2.29,2.34,9.12,10.36,15.28,13.27l6,2.81h0c0,.06.94,2.78.4,4.42-.14.42-.68,1.7-5.63,3.22-5.55,1.7-7.51.9-9.25,2.81a4.94,4.94,0,0,0-1.21,4.82c.93,2.27,4.4,2.57,7.24,2.81.94.08,6.13.52,7.24-1.61a6,6,0,0,0,.55-2.62,4.08,4.08,0,0,0-.1-.86c-.19-.8-.52-1-.45-1.34a1.38,1.38,0,0,1,1.49-.85c.43.08.84.45,1.67,2.61s1.18,3.09,1.15,3.75c-.07,1.58-.94,1.82-2.29,5.21-.75,1.89-.71,2.38-.63,2.71.31,1.23,1.48,1.63,3.13,2.81a17.27,17.27,0,0,1,3.86,3.75c1.93,2.76,1.75,6,1.67,7.51a12.62,12.62,0,0,1-2.5,7.4c-2,2.49-4,2.47-4.69,4.9-.4,1.43,0,2.51-.94,3.54a4,4,0,0,1-2.61,1.15c-5.29.63-11.31-3.12-18.45-2.71a66.15,66.15,0,0,1-10.63.52,5.29,5.29,0,0,1-3.65-1.25c-1.28-1.3-1.23-3.28-1.15-5.52.15-4,1.3-4.44.94-6.88a9.13,9.13,0,0,0-3.23-5.63c-2.77-2.19-5.73-1.46-6.36-3.34a2.39,2.39,0,0,1,.52-2.29c.91-1,2.71-.7,3.75-.31,1.71.63,2.29,2,3.13,1.67a1.24,1.24,0,0,0,.73-1c.09-1.06-1.43-1.91-2.29-2.4-1.16-.65-3.65-2-5.32-.94a4,4,0,0,0-1.36,2.19,5.14,5.14,0,0,0-.31,3.44c.54,1.57,2,1.95,1.77,2.71C269.28,239.13,268.23,239.48,267.41,239.53Z"/><path class="cls-8" d="M293.63,239.37a5.14,5.14,0,0,1,.78-.72h0a3.11,3.11,0,0,1,.32.34,2.24,2.24,0,0,1,.5.95V240a1.29,1.29,0,0,1-.25,1.11,1.17,1.17,0,0,1-1.53.12C293,240.8,293.26,239.84,293.63,239.37Z"/><path class="cls-8" d="M296.05,238.3c-.25.09-.29.52-.35,1.17-.09.92-.15,1.5.23,2s1.11.83,1.53.59.4-1.63,0-2.46S296.44,238.16,296.05,238.3Z"/><path class="cls-8" d="M298.87,239.24a6,6,0,0,0-.59,1.64,2.78,2.78,0,0,0,.59,1.88,2.67,2.67,0,0,0,1,.75c.06,0,1.3.56,1.84.07s.13-1.43-.23-2.58-1.27-3.28-1.88-3.17C299.46,237.85,299.41,237.93,298.87,239.24Z"/><path class="cls-8" d="M303.91,240.18a2.28,2.28,0,0,0-1.53,1.17,2.5,2.5,0,0,0,.23,2.23c.84,1.47,3.1,2.37,4.11,1.53.78-.65.62-2.2.12-3.17A3,3,0,0,0,303.91,240.18Z"/><path class="cls-8" d="M309.31,241.59a1.68,1.68,0,0,0-1.64,1.06c-.41.93.95,1.46,1.07,1.63.69.92,1.42,1.7,2,1.18s.07-1.74-.12-2.23C310.34,242.54,310,241.71,309.31,241.59Z"/><path class="cls-8" d="M313.44,241.46a1.9,1.9,0,0,0-1.53.47,2.09,2.09,0,0,0,.47,2.82c.53.44,1.46.72,1.88.35S314.45,243.17,313.44,241.46Z"/><path class="cls-8" d="M316.25,241.22c-.32-.12-1.32-.44-1.76,0s.05,2.08.94,2.93c.72.7,2.19,1.48,3.05.82a2.07,2.07,0,0,0,.35-2.35A2.55,2.55,0,0,0,316.25,241.22Z"/><path class="cls-8" d="M320.95,240.62c-.88,0-1.78,1.45-1.53,2.7s1.46,2.11,2.23,1.88,1.27-2.25.59-3.52C322.17,241.55,321.66,240.61,320.95,240.62Z"/><path class="cls-8" d="M294.06,242.06a1.08,1.08,0,0,0-1.29.23,1.27,1.27,0,0,0,0,1.29c.3.58,1,1,1.41.82A1.64,1.64,0,0,0,294.06,242.06Z"/><path class="cls-8" d="M295.94,242.52c-.61-.27-.74-.43-.94-.35-.47.19-.62,1.47-.12,2.35s2.06,1.65,2.82,1.06a1.8,1.8,0,0,0,.12-2.35C297.46,242.86,297.11,243.05,295.94,242.52Z"/><path class="cls-8" d="M300.63,244.4h0c-.11,0-.31-.11-.31-.11a2.2,2.2,0,0,0-1-.24,1.31,1.31,0,0,0-.94,1.41c.13.52.83.7,2.23,1.06.88.22,1.33.33,1.53.12.43-.47-.66-2-.72-2.14"/><path class="cls-8" d="M304.29,245.51c-1.08-.26-1.45-.8-1.79-.58s-.37,1.19,0,1.84c.82,1.45,3.64,1.76,4.36.78a1.46,1.46,0,0,0-.15-1.74C306.22,245.33,305.6,245.83,304.29,245.51Z"/><path class="cls-8" d="M308.89,245.75c-.68,0-.88.05-1,.15a1.43,1.43,0,0,0-.44,1.6c.09.25,3.75.7,2.37.92.55-.09,1.65-.46,1.7-1.21,0-.59-.58-1-.68-1.11A7.85,7.85,0,0,0,308.89,245.75Z"/><path class="cls-8" d="M313.55,246a1.13,1.13,0,0,0-1.31-.19,1.3,1.3,0,0,0-.63.82,1.34,1.34,0,0,0,.19,1.31c.37.38,1.71.08,2.13-.17.59-.34-.17-.77-.19-1.09A1.05,1.05,0,0,0,313.55,246Z"/><path class="cls-8" d="M317.13,245.46a1.62,1.62,0,0,0-1.41-.44,1.52,1.52,0,0,0-1,1.74,1.67,1.67,0,0,0,.87,1c.57.35,1.7.73,2.18.24S317.91,246.12,317.13,245.46Z"/><path class="cls-8" d="M319.74,244.91a2,2,0,0,0-1.16.48,1.83,1.83,0,0,0-.48,2.23c.51.71,1.66.52,2.28.24s1.62-1.24,1.36-2S320.44,244.84,319.74,244.91Z"/><path class="cls-10" d="M293.21,213.22a5.58,5.58,0,0,0-1.31,4.18c.22,1.45,1.17,2.54,2.61,4.18,1.79,2,2.67,2.35,2.61,3.13-.13,1.59-3.92,2.49-4.44,2.61-1.76.42-4.65.77-11-.78-5.8-1.43-7.83-2.83-9.67-1.57-1.61,1.11-1.79,3.38-3.13,3.4-.84,0-1.14-.87-2.35-1.57a6.39,6.39,0,0,0-4.44-.52"/><path class="cls-10" d="M275.45,229.16a6.45,6.45,0,0,1,2.61,1.83c.93,1.11.91,1.94,1.57,3.13a7.64,7.64,0,0,0,3.92,3.4c1.64.58,3.53.12,7.31-.78L294,236h0"/></g><g id="Sapiens"><circle class="cls-11" cx="544.28" cy="456.4" r="62.26"/><path class="cls-9" d="M535.17,476.94c-.61.49-1.55-.82-3.78-.87-2.41-.05-3.32,1.45-4.65.87s-.91-2.11-2-3.2c-1.87-1.8-4.95.51-8.43.29-7.35-.47-12.72-12-15.41-17.74a37.47,37.47,0,0,1-2.33-5.82c-2.88-10-.24-23.41,7.85-32.27,14.05-15.39,38.35-8.25,42.74-7,18.25,5.29,30.63,20.23,30.24,25.59-.06.88-.67,4.28,1.16,7.27.83,1.35,1.45,1.48,1.74,2.62.68,2.63-2.22,3.73-2.33,7-.07,2.22,1.2,4.07,3.2,7a25.65,25.65,0,0,0,2.33,2.91,42.94,42.94,0,0,0-2.91,4.65c-1.42,2.63-1.44,3.34-1.16,3.78.53.86,1.94.33,3.2.87,1.42.61.53,3.6,1.49,8.64-1.86,2.28-3.1,4-2.95,6.77a6.5,6.5,0,0,0,1.16,3.49c1.15,1.57,2.27,2.65,2.13,4.65-.49,7.09-43,5.11-46,.48-.32-.48-1.11-1.62-.83-4.35a29.13,29.13,0,0,1,1.13-5.15A23,23,0,0,0,541,479s-.3-1.82-3.78-9.6a3.62,3.62,0,0,0-.87-4.65c-1.2-.87-3.09-.87-3.78,0-.57.72-.11,1.76,1.16,5.52C535.49,475.47,535.64,476.56,535.17,476.94Z"/><path class="cls-10" d="M561.92,438.85c1.46,3.7,1,5.61.29,6.69-.38.56-.67.62-2.91,2.33s-3.52,2.67-3.78,3.2c-1.22,2.48,1.69,4.6.87,7.27-.75,2.47-4.1,3.47-6.11,4.07-6.4,1.91-12.4-.13-15.41-1.45l-5.52-.87"/><path class="cls-10" d="M527,464.14a56.76,56.76,0,0,1,10.16.15c1.39.15,2.66.35,3.38,1.32,1,1.28,0,2.52.59,4.86a9,9,0,0,0,2.94,4.27c1.43,1.34,3.38,3.15,5.15,2.65,2.32-.66,3.11-4.93,3.24-5.59.43-2.33-.05-3.85.88-4.42a2.41,2.41,0,0,1,2.5.44c1.55,1.26.84,3.69.74,8.68-.1,4.83-.15,7.25,1.18,9.27,1.84,2.81,5.16,3.64,6.48,4,3.84,1,12.72-1.35,13.93-1.83"/><path class="cls-8" d="M560.59,479.74a1.8,1.8,0,0,0-1,2.5,1.81,1.81,0,0,0,3.24-1.18A1.77,1.77,0,0,0,560.59,479.74Z"/><path class="cls-8" d="M564.72,480a2,2,0,0,0-1,.88c-.16.23-.81,1.19-.44,1.91s1.74.9,2.65.44a1.72,1.72,0,1,0-1.18-3.24Z"/><path class="cls-8" d="M568.69,479.89h0c-.09.26-.24.67-.44,1.18-.54,1.39-.7,1.61-.59,1.91a1.66,1.66,0,0,0,2.21.59c.64-.42.6-1.34.59-1.77a3.11,3.11,0,0,0-.66-1.77"/><path class="cls-8" d="M571.73,480.33h0a4,4,0,0,0-.49.83,3.31,3.31,0,0,0-.33,1.41,1.65,1.65,0,0,0,.3,1.19,1.5,1.5,0,0,0,1.86.07c.55-.42.53-1.19.52-1.93a4.85,4.85,0,0,0-.45-1.93"/><path class="cls-8" d="M575.23,480.11a2,2,0,0,0-1,1.26,2.36,2.36,0,0,0,.3,2.31,2,2,0,0,0,2.68.3,2,2,0,0,0,.6-2.23,2,2,0,0,0-.89-1.49A1.89,1.89,0,0,0,575.23,480.11Z"/><path class="cls-8" d="M579,480.26c-.42.06-.61.93-.74,1.56-.19.89-.32,1.46,0,2a2,2,0,0,0,1.18.89,1.29,1.29,0,0,0,1.06-.07c.67-.52.06-2.25-.37-3.12C580,481.15,579.48,480.19,579,480.26Z"/><path class="cls-8" d="M581.7,480.26c-.6.18-.85.87-1,1.19-.3.82-.33,2.14.45,2.6a1.51,1.51,0,0,0,1.19.07,2.13,2.13,0,0,0,1.41-2.46A1.89,1.89,0,0,0,581.7,480.26Z"/><path class="cls-8" d="M584.6,480.56c-.65.14-.89,1.65-.67,2.75.07.34.2,1,.6,1.12s.92-.59,1.12-1a2.29,2.29,0,0,0,0-2.23C585.6,481.16,585.09,480.45,584.6,480.56Z"/><path class="cls-8" d="M562.21,485.91c-.87-.51-1.5-1.64-1.19-2.08.1-.15.29-.2,1.86-.07,2.12.17,2.35.31,2.46.52.22.44-.13,1.13-.52,1.49a1.84,1.84,0,0,1-1,.45A2.45,2.45,0,0,1,562.21,485.91Z"/><path class="cls-8" d="M565.85,486.14c-.35-.42,0-1.18,0-1.26a1.83,1.83,0,0,1,.82-.89,2,2,0,0,1,2.46.37c.07.13,0,.14.07,1s.1.92,0,1-.54.08-1.49,0C566.45,486.25,566.1,486.44,565.85,486.14Z"/><path class="cls-8" d="M571,484.2a1.39,1.39,0,0,0-1,.6,1.44,1.44,0,0,0-.15,1.41,1.29,1.29,0,0,0,.89.6,1.51,1.51,0,0,0,1.71-1.34A1.41,1.41,0,0,0,571,484.2Z"/><path class="cls-8" d="M573.52,484c-.33.08-.48.46-.6.74-.29.72-.39,1.9.15,2.16s1.12-.22,1.41-.6a1.68,1.68,0,0,0,.12-.17,1.75,1.75,0,0,0,.21-.89,1.4,1.4,0,0,0,0-.2s0-.07,0-.13S574.09,483.84,573.52,484Z"/><path class="cls-8" d="M575.9,486.73a1.69,1.69,0,0,0,1.64.07,1.88,1.88,0,0,0,.63-.54h0a1.51,1.51,0,0,0,.25-1.16c-.17-.48-.88-.59-1.41-.67s-1.15-.18-1.49.15A1.58,1.58,0,0,0,575.9,486.73Z"/><path class="cls-8" d="M578.72,486.43a1.13,1.13,0,0,0,2.08.07,1.17,1.17,0,0,0-.45-1.41,1.14,1.14,0,0,0-1.19-.07A1.18,1.18,0,0,0,578.72,486.43Z"/><path class="cls-8" d="M581.25,484.57a1.61,1.61,0,0,0-.15,2.38,1.08,1.08,0,0,0,1-.07,1.35,1.35,0,0,0,.45-1.86A1.14,1.14,0,0,0,581.25,484.57Z"/><path class="cls-8" d="M583.34,484.42c-.46.09-.52,2.23-.52,2.23h0s.58.61,1,.52.42-.58.45-.67C584.46,485.53,583.7,484.35,583.34,484.42Z"/><path class="cls-10" d="M542.64,466.57c2.22-.26,4.77-.55,7.59-.82,4.42-.43,5.58-.45,6.62.37.74.58.52.88,2.75,4.17,1.29,1.9,1.64,2.21,2.08,2.46a5.08,5.08,0,0,0,4.39.15c1.29-.6,1.74-1.59,2.53-1.41.58.13.92.78,1.12,1.26"/><path class="cls-8" d="M577.24,449.23c-1.21-.93-4.2.55-5.88,2.38a6.57,6.57,0,0,0-2,5.21,6.18,6.18,0,0,0,2.38,3.94c.78.64,2.23,1.81,3.94,1.41a4.27,4.27,0,0,0,2.9-3.12c.39-1.52-.4-2-.82-4.84C577.27,451,578.05,449.86,577.24,449.23Z"/></g><g id="Jungsteinzeit"><circle class="cls-6" cx="725.96" cy="222.09" r="62.26"/><path class="cls-8" d="M766.86,197.31a10.25,10.25,0,0,0-1-6.09c-3-4-7.73-6.75-17.35-10.2-1.77-.63-8.34-3.35-10.13-2.8-2.7.83-5.24,5.36-5.33,8.23s6.27,5.82,8.53,7.12c5.79,3.32,15.07,10.12,19.56,8.28C761.7,201.65,766.11,200.15,766.86,197.31Z"/><path class="cls-12" d="M765.42,184.45c-.78-1-3.06-1.35-4.87-.78a6.91,6.91,0,0,0-3,2.12c-7.77,8.73-11.66,13.09-15.26,20.18-1.16,2.28-1.88,3.93-2.33,4.93-10.42,23.37-28,44.64-35.22,48-2.59,1.2-4.93,3-7.42,4.4-1.73,1-2.51,1.44-2.82,2.32-.83,2.32,2.12,6.1,5.43,6.49,3.49.42,6.83-3,8.51-4.75,23.07-24.08,30.83-36.17,30.83-36.17,12.32-19.18,8.09-16.85,17.27-29.74C760.9,195.29,767.4,187,765.42,184.45Z"/><line class="cls-13" x1="765.18" y1="189.2" x2="745.78" y2="198.27"/><line class="cls-13" x1="757.26" y1="183.37" x2="757.21" y2="201.86"/><line class="cls-13" x1="760.09" y1="183.42" x2="756.08" y2="202.64"/><line class="cls-13" x1="745.96" y1="199.08" x2="765.4" y2="190.71"/><line class="cls-13" x1="745.03" y1="195.84" x2="765.45" y2="187.89"/><line class="cls-13" x1="758.45" y1="183.53" x2="745.39" y2="197.7"/><line class="cls-13" x1="765.81" y1="189.74" x2="756.36" y2="203.32"/></g><g id="Ägypten"><circle class="cls-4" cx="975.46" cy="173.53" r="62.17"/><path class="cls-12" d="M1037.72,173.53c-.36,34.38-27.87,62.26-62.26,62.26a62.26,62.26,0,0,1-62.26-62.26Z"/><polygon class="cls-8" points="1032.28 180 998.02 180 1009.68 147.21 1032.28 180"/><polygon class="cls-12" points="1009.68 147.21 998.02 180 971.86 180 1009.68 147.21"/><polygon class="cls-8" points="1011.57 182.83 956.73 182.83 976.01 131.11 1011.57 182.83"/><polygon class="cls-12" points="976.01 131.11 956.73 182.83 933.25 182.83 976.01 131.11"/><polygon class="cls-8" points="968.39 185.99 946.01 152.89 934.34 185.67 968.39 185.99"/><polygon class="cls-12" points="946.01 152.89 934.34 185.67 918.9 185.67 946.01 152.89"/></g><g id="Mittelalter"><circle class="cls-4" cx="1074.79" cy="571" r="62.26"/><path class="cls-5" d="M1074.79,633.25A62.26,62.26,0,0,0,1137,571c0-.64,0-1.29,0-1.93l-14.32-24.54-3.18,6.72-9.2-29-11.68,41-2.43-12.4-11.3-21.44-16,25-3.89-4.25-4.6,13.8-12-16.28-1.77,5.31-8.14-20.17-21.58,33.62-2.17-11.92a62.3,62.3,0,0,0,60.06,78.7Z"/><rect class="cls-8" x="1050.94" y="582.81" width="3.09" height="3.67"/><rect class="cls-8" x="1057.31" y="582.81" width="3.09" height="3.67"/><rect class="cls-8" x="1070.06" y="582.81" width="3.09" height="3.67"/><rect class="cls-8" x="1063.68" y="582.81" width="3.09" height="3.67"/><rect class="cls-8" x="1076.43" y="582.81" width="3.09" height="3.67"/><rect class="cls-8" x="1082.8" y="582.81" width="3.09" height="3.67"/><rect class="cls-8" x="1089.17" y="582.81" width="3.09" height="3.67"/><rect class="cls-8" x="1095.55" y="582.81" width="3.09" height="3.67"/><polygon class="cls-12" points="1110.84 584.25 1110.84 587.33 1107.88 587.33 1107.88 584.25 1105.08 584.25 1105.08 587.33 1102.11 587.33 1102.11 584.25 1099.32 584.25 1099.32 587.33 1050.26 587.33 1050.26 584.25 1047.46 584.25 1047.46 587.33 1044.49 587.33 1044.49 584.25 1041.7 584.25 1041.7 587.33 1038.73 587.33 1038.73 584.25 1035.94 584.25 1035.94 587.33 1035.94 587.57 1035.94 611.53 1113.64 611.53 1113.64 587.57 1113.64 587.33 1113.64 584.25 1110.84 584.25"/><polygon class="cls-8" points="1098.88 565.86 1098.88 569.08 1095.6 569.08 1095.6 565.86 1092.51 565.86 1092.51 569.08 1089.22 569.08 1089.22 565.86 1086.13 565.86 1086.13 569.52 1086.13 569.52 1086.13 571.78 1087.56 571.78 1087.56 583.48 1085.89 583.48 1085.89 580.08 1082.8 580.08 1082.8 583.48 1079.52 583.48 1079.52 580.08 1076.42 580.08 1076.42 583.48 1073.14 583.48 1073.14 580.08 1070.05 580.08 1070.05 583.48 1066.77 583.48 1066.77 580.08 1063.68 580.08 1063.68 583.48 1061.89 583.48 1061.89 571.78 1063.32 571.78 1063.32 569.52 1063.32 569.08 1063.32 565.86 1060.23 565.86 1060.23 569.08 1056.95 569.08 1056.95 565.86 1053.86 565.86 1053.86 569.08 1050.58 569.08 1050.58 565.86 1047.48 565.86 1047.48 569.52 1047.49 569.52 1047.49 571.78 1048.91 571.78 1048.91 614.51 1059.36 614.51 1061.89 614.51 1087.56 614.51 1090.24 614.51 1100.54 614.51 1100.54 571.78 1101.97 571.78 1101.97 569.52 1101.97 569.08 1101.97 565.86 1098.88 565.86"/><rect class="cls-14" x="1049.96" y="572.83" width="1.71" height="8.85"/><rect class="cls-14" x="1097.75" y="588.73" width="1.71" height="8.85"/><rect class="cls-14" x="1064.53" y="588.73" width="5.4" height="5.27"/><rect class="cls-14" x="1072.03" y="588.73" width="5.4" height="5.27"/><rect class="cls-14" x="1079.53" y="588.73" width="5.4" height="5.27"/><rect class="cls-14" x="1103.85" y="591.06" width="5.4" height="5.27"/><rect class="cls-14" x="1040.47" y="591.06" width="5.4" height="5.27"/><rect class="cls-14" x="1064.47" y="596.37" width="5.4" height="5.27"/><rect class="cls-14" x="1071.98" y="596.37" width="5.4" height="5.27"/><rect class="cls-14" x="1079.48" y="596.37" width="5.4" height="5.27"/><rect class="cls-14" x="1064.42" y="604.01" width="5.4" height="5.27"/><rect class="cls-14" x="1071.92" y="604.01" width="5.4" height="5.27"/><rect class="cls-14" x="1079.43" y="604.01" width="5.4" height="5.27"/><rect class="cls-8" x="1055.17" y="556.78" width="0.43" height="9.47"/><rect class="cls-8" x="1093.84" y="556.78" width="0.43" height="9.47"/><path class="cls-8" d="M1055.78,556.81c.29-.25,1.72-.2,1.72-.2l1.9.34c.82.15,1.06.2,2.62.56a16.46,16.46,0,0,0,3.32.61c1.08,0,1.85-.23,1.9-.07s-.63.5-1.08.72a15.83,15.83,0,0,1-3,1.13,10.85,10.85,0,0,1-2.89.54c-1.41,0-1.6-.42-2.78-.23-.83.14-1.75.52-1.87.29a.41.41,0,0,1,0-.27.91.91,0,0,1,.27-.41,1.66,1.66,0,0,0,.34-1.06,2.33,2.33,0,0,0-.45-1.63l-.18-.18h0Z"/><path class="cls-8" d="M1094.24,556.87c.07-.15.43-.08,1,0s.49,0,1.68,0c0,0,1,0,1.68.09,1.9.18,2.2.71,4.38,1a4.29,4.29,0,0,0,2.1,0,4.51,4.51,0,0,1,1.58-.47c.15,0,.52,0,.56.09s-.18.26-.37.42a13.8,13.8,0,0,0-1,1,5.58,5.58,0,0,1-2.93,1,11.51,11.51,0,0,1-2.28,0c-2.52-.14-2.57-.51-3.4-.23a17.75,17.75,0,0,0-2.28.88c-.14.07-.48.26-.61.14s-.07-.15.19-1a3.87,3.87,0,0,0,.19-.79c0-.11,0-.26,0-.56a5.37,5.37,0,0,0,0-.84C1094.52,557.17,1094.17,557,1094.24,556.87Z"/></g><g id="Industrialisierung"><circle class="cls-11" cx="1093.57" cy="76.94" r="62.26"/><path class="cls-6" d="M1152.22,97.85a62.28,62.28,0,0,1-117.3.07Z"/><path class="cls-8" d="M1093.57,14.69a62.15,62.15,0,0,0-49.52,24.52,2.78,2.78,0,0,0,1,1.82c.48.31.82.17,2,.77,1.36.69,1.23,1,2,1.23a4.11,4.11,0,0,0,3.72-1c.15-.17.39-.48.6-.42s.46,1.09.46,1.09c0,.33-.2,2-.2,2l1-.18s.42-1.45.95-1.79a4.7,4.7,0,0,1,2.73-1c1.18.1,2.26,1.1,2.13,1.59s-1.46.19-2,1.06a1.33,1.33,0,0,0,0,1.37c.11.16.25.24,1.14.53s1.37.41,1.37.53-1,.05-1.52.61a2.49,2.49,0,0,0,.3,3.19c.87.71,2.16.09,2.58.84.14.26,0,.42.3,1.14a3.75,3.75,0,0,1-.17,1.68l.76,0a24.82,24.82,0,0,1,1.61-3.07,9,9,0,0,1,2.81-2.58c2.25-1.06,3.62,1.18,6.68.68,2.88-.47,5.12-3,4.78-4.1-.21-.68-1.45-.76-1.67-1.82a1.11,1.11,0,0,1,.15-.91c.31-.34.79-.11,1.44-.23.92-.16,1.16-.83,2-1.44a5.92,5.92,0,0,1,2.73-.84c3.74-.59,5.3.75,6.72-.41a3.94,3.94,0,0,0,1.12-1.87c.43-1.3-.4-2.18.12-2.75a1.5,1.5,0,0,1,1.75-.12c.6.38.42,1.08.87,1.25.65.24,1.35-1.08,2.12-.87.44.12.43.59.87,1.12.95,1.13,2.27.46,3.5,1.25s.65,1.7,1.87,3.87a9.36,9.36,0,0,0,3,3.37c.54.35,3.36,2.21,5.5,1.25a6.51,6.51,0,0,1,2.25-.87c.45-.06,1.14-.14,1.5.25s0,1,.37,1.25,1.24-.14,1.75-.5c1.2-.85,1-1.69,2-2.25a3.29,3.29,0,0,1,2.12-.25,4.3,4.3,0,0,1,2.12,1,7.91,7.91,0,0,1,1.25,1.37,7,7,0,0,1,.57,2.45l1.52-.24s-.07-1.15-.1-2c0-.59-.66-.83-.87-1.62a3,3,0,0,1,1.25-2.75c1.25-1,2.93-.69,4.62-.37,3.46.65,4.85,2.13,5.62,1.5s-.38-2,.37-4.5a7.09,7.09,0,0,1,1.5-2.62,5.63,5.63,0,0,1,.69-.63A62.1,62.1,0,0,0,1093.57,14.69Z"/><polygon class="cls-12" points="1057.19 79.02 1051.47 79.02 1053.03 44.45 1055.64 44.45 1057.19 79.02"/><polygon class="cls-12" points="1064.82 82.13 1061.44 82.13 1061.96 54.06 1064.31 54.06 1064.82 82.13"/><polygon class="cls-12" points="1114.08 81.39 1090.98 68.43 1090.98 81.39 1090.97 81.39 1067.87 68.43 1067.87 81.39 1067.86 81.39 1044.76 68.43 1044.76 81.39 1044.76 81.4 1044.76 107.29 1114.09 107.29 1114.09 81.39 1114.08 81.39"/><rect class="cls-8" x="1047.64" y="96.87" width="5.4" height="5.27"/><rect class="cls-8" x="1057.31" y="96.87" width="5.4" height="5.27"/><rect class="cls-8" x="1066.98" y="96.87" width="5.4" height="5.27"/><rect class="cls-8" x="1076.65" y="96.87" width="5.4" height="5.27"/><rect class="cls-8" x="1086.32" y="96.87" width="5.4" height="5.27"/><rect class="cls-8" x="1095.99" y="96.87" width="5.4" height="5.27"/><rect class="cls-8" x="1105.66" y="96.87" width="5.4" height="5.27"/><polygon class="cls-12" points="1128.39 93.8 1123.73 93.8 1124.77 48.06 1127.36 48.06 1128.39 93.8"/><rect class="cls-12" x="1119.07" y="90.53" width="20.39" height="20.39"/><rect class="cls-8" x="1131.67" y="92.83" width="5.4" height="5.27"/></g><g id="Kraftwerk"><circle class="cls-4" cx="1100" cy="429.9" r="62.26"/><path class="cls-11" d="M1100,367.64a62.33,62.33,0,0,0-16.18,2.13,5,5,0,0,0,.09,2.34c.32,1,.69,2.32.69,2.32s-1.4-.05-3.25.08a6.47,6.47,0,0,0-3.67,1.22,8.29,8.29,0,0,0-2.22,3.56,10.6,10.6,0,0,1-2.17,2c-2.29,1.6-4,1.43-4.49,2.72-.24.69.19.92.29,2.88,0,.21,0,.53-.08,2.29-.15,3-.22,3-.11,3.25.88,1.9,5.28,1.59,6.07,1.54a16,16,0,0,0,4.82-1.18c3.45-1.4,4-2.83,6.21-2.85,1.37,0,1.29.52,3.6,1.07a16.43,16.43,0,0,0,7.26,0c2.23-.5,4.29-1,5.44-2.69a15,15,0,0,0,1.43-2.82,27.07,27.07,0,0,1,3.93,2.61c3,2.72,6.59,3.2,11.15,3.81,3,.4,11.42,1.53,13.65-2.23a24.84,24.84,0,0,0,1.88-4.72,7.09,7.09,0,0,1,3,.29c4.76,1.67,5.84,3.5,8.28,3.91a5.43,5.43,0,0,0,1.52,0A62.12,62.12,0,0,0,1100,367.64Z"/><path class="cls-5" d="M1100,492.16A62.28,62.28,0,0,0,1161.62,421c-7,2.84-10.34,8.53-20.92,13.22-11.66,5.17-22.41,4.83-39.79,4.27-13-.41-16-2.14-29.92-1.64s-20.29,2.59-23.67,3.95a82,82,0,0,0-7.9,3.52A62.28,62.28,0,0,0,1100,492.16Z"/><path class="cls-8" d="M1055.86,463.43a.13.13,0,0,0,0-.08c0-.11,0-.29-.22-.28s-.15.09-.14.19a.43.43,0,0,0,0,.18h-1.48v-2.54c.8-5.13,4-14.15,6-33.89l.09-.93c.89-8.92,1.55-20,1.67-33.76h12.48a.12.12,0,0,0-.08.15.35.35,0,0,0,.26.28c.13,0,.11-.11.11-.19a.23.23,0,0,0-.1-.24h8.43q0,2,.06,3.95a.08.08,0,0,0,0,.09.28.28,0,0,0,0,.09c.81,42.08,6.68,57.48,7.65,64.57l.06,2.43Z"/><path class="cls-8" d="M1083,396.43a.28.28,0,0,1,0-.09.08.08,0,0,1,0-.09q0-1.94-.06-3.95h-8.43a.23.23,0,0,1,.1.24c0,.08,0,.22-.11.19a.35.35,0,0,1-.26-.28.12.12,0,0,1,.08-.15h-12.48c-.12,13.79-.77,24.84-1.67,33.76a.79.79,0,0,1,.29.48c-.11.17-.21.41-.38.45-2,19.74-5.22,28.76-6,33.89v2.54h1.48a.43.43,0,0,1,0-.18c0-.1,0-.19.14-.19s.17.18.22.28a.13.13,0,0,1,0,.08h34.83l-.06-2.43C1089.66,453.9,1083.79,438.5,1083,396.43Z"/><path class="cls-12" d="M1127.39,397.46h-3L1123.12,427a25.41,25.41,0,0,0-42.53,18.78c0,.08,0,.16,0,.24h0v30.12h50.79V447c0-.42,0-.83,0-1.26A25.3,25.3,0,0,0,1129,435Z"/><path class="cls-8" d="M1103.06,441.73l-7.72-13.37a21.28,21.28,0,0,0-10.65,18.44h15.42a5.88,5.88,0,0,1,2.95-5.08"/><path class="cls-8" d="M1111.89,446.81h15.4a21.28,21.28,0,0,0-10.65-18.44l-7.71,13.36a5.88,5.88,0,0,1,3,5.08"/><path class="cls-8" d="M1106,452.72a5.86,5.86,0,0,1-3-.8l-7.7,13.33a21.32,21.32,0,0,0,21.29,0l-7.69-13.33a5.86,5.86,0,0,1-2.94.79"/><path class="cls-8" d="M1109.85,446.83A3.85,3.85,0,1,1,1106,443a3.85,3.85,0,0,1,3.85,3.85"/></g><g id="Ausstieg"><circle class="cls-4" cx="1100.89" cy="217.93" r="62.26"/><path class="cls-11" d="M1100.89,155.67a62.33,62.33,0,0,0-16.18,2.13,5,5,0,0,0,.09,2.34c.32,1,.69,2.32.69,2.32s-1.4-.05-3.25.08a6.47,6.47,0,0,0-3.67,1.22,8.29,8.29,0,0,0-2.22,3.56,10.6,10.6,0,0,1-2.17,2c-2.29,1.6-4,1.43-4.49,2.72-.24.69.19.92.29,2.88,0,.21,0,.53-.08,2.29-.15,3-.22,3-.11,3.25.88,1.9,5.28,1.59,6.07,1.54a16,16,0,0,0,4.82-1.18c3.45-1.4,4-2.83,6.21-2.85,1.37,0,1.29.52,3.6,1.07a16.43,16.43,0,0,0,7.26,0c2.23-.5,4.29-1,5.44-2.69a15,15,0,0,0,1.43-2.82,27.07,27.07,0,0,1,3.93,2.61c3,2.72,6.59,3.2,11.15,3.81,3,.4,11.42,1.53,13.65-2.23a24.84,24.84,0,0,0,1.88-4.72,7.09,7.09,0,0,1,3,.29c4.76,1.67,5.84,3.5,8.28,3.91a5.43,5.43,0,0,0,1.52,0A62.12,62.12,0,0,0,1100.89,155.67Z"/><path class="cls-5" d="M1100.89,280.19A62.28,62.28,0,0,0,1162.51,209c-7,2.84-10.34,8.53-20.92,13.22-11.66,5.17-22.41,4.83-39.79,4.27-13-.41-16-2.14-29.92-1.64s-20.29,2.59-23.67,3.95a82,82,0,0,0-7.9,3.52A62.28,62.28,0,0,0,1100.89,280.19Z"/><path class="cls-8" d="M1056.76,251.46a.13.13,0,0,0,0-.08c0-.11,0-.29-.22-.28s-.15.09-.14.19a.43.43,0,0,0,0,.18H1055v-2.54c.8-5.13,4-14.15,6-33.89l.09-.93c.89-8.92,1.55-20,1.67-33.76h12.48a.12.12,0,0,0-.08.15.35.35,0,0,0,.26.28c.13,0,.11-.11.11-.19a.23.23,0,0,0-.1-.24h8.43q0,2,.06,3.95a.08.08,0,0,0,0,.09.28.28,0,0,0,0,.09c.81,42.08,6.68,57.48,7.65,64.57l.06,2.43Z"/><path class="cls-8" d="M1083.88,184.45a.28.28,0,0,1,0-.09.08.08,0,0,1,0-.09q0-1.94-.06-3.95h-8.43a.23.23,0,0,1,.1.24c0,.08,0,.22-.11.19a.35.35,0,0,1-.26-.28.12.12,0,0,1,.08-.15h-12.48c-.12,13.79-.77,24.84-1.67,33.76a.79.79,0,0,1,.29.48c-.11.17-.21.41-.38.45-2,19.74-5.22,28.76-6,33.89v2.54h1.48a.43.43,0,0,1,0-.18c0-.1,0-.19.14-.19s.17.18.22.28a.13.13,0,0,1,0,.08h34.83l-.06-2.43C1090.56,241.93,1084.69,226.53,1083.88,184.45Z"/><path class="cls-12" d="M1128.28,185.49h-3L1124,215a25.41,25.41,0,0,0-42.53,18.78c0,.08,0,.16,0,.24h0v30.12h50.79V235c0-.42,0-.83,0-1.26a25.3,25.3,0,0,0-2.41-10.8Z"/><path class="cls-8" d="M1104,229.76l-7.72-13.37a21.28,21.28,0,0,0-10.65,18.44H1101a5.88,5.88,0,0,1,2.95-5.08"/><path class="cls-8" d="M1112.78,234.84h15.4a21.28,21.28,0,0,0-10.65-18.44l-7.71,13.36a5.88,5.88,0,0,1,3,5.08"/><path class="cls-8" d="M1106.9,240.75a5.86,5.86,0,0,1-3-.8l-7.7,13.33a21.32,21.32,0,0,0,21.29,0L1109.84,240a5.86,5.86,0,0,1-2.94.79"/><path class="cls-8" d="M1110.74,234.86a3.85,3.85,0,1,1-3.85-3.85,3.85,3.85,0,0,1,3.85,3.85"/><path class="cls-6" d="M1100.89,155.67a62.26,62.26,0,1,0,62.26,62.26A62.26,62.26,0,0,0,1100.89,155.67Zm0,116.36a54.11,54.11,0,0,1-43.15-86.75l75.79,75.79A53.86,53.86,0,0,1,1100.89,272Zm39.09-16.7-76.5-76.5a54.1,54.1,0,0,1,76.5,76.5Z"/></g></svg>