<svg id="Layer_1" data-name="Layer 1" xmlns="http://www.w3.org/2000/svg" xmlns:xlink="http://www.w3.org/1999/xlink" viewBox="0 0 566.93 649.71"><defs><style>.cls-1,.cls-10,.cls-14,.cls-38,.cls-6,.cls-7,.cls-9{fill:none;}.cls-2{fill:#f9e100;}.cls-3{clip-path:url(#clip-path);}.cls-4{fill:#232323;}.cls-5{fill:#70cbd4;opacity:0.5;}.cls-10,.cls-38,.cls-6,.cls-7,.cls-9{stroke:#231f20;}.cls-10,.cls-14,.cls-38,.cls-6,.cls-7,.cls-9{stroke-miterlimit:10;}.cls-14,.cls-6,.cls-7{stroke-width:8.5px;}.cls-6,.cls-9{opacity:0.35;}.cls-10,.cls-7{opacity:0.4;}.cls-8{clip-path:url(#clip-path-3);}.cls-10,.cls-9{stroke-width:11.34px;}.cls-11{clip-path:url(#clip-path-5);}.cls-12{clip-path:url(#clip-path-7);}.cls-13{clip-path:url(#clip-path-9);}.cls-14{stroke:#a6a5a5;}.cls-15{clip-path:url(#clip-path-11);}.cls-16{clip-path:url(#clip-path-13);}.cls-17{clip-path:url(#clip-path-15);}.cls-18{clip-path:url(#clip-path-17);}.cls-19{clip-path:url(#clip-path-19);}.cls-20{clip-path:url(#clip-path-21);}.cls-21{clip-path:url(#clip-path-23);}.cls-22{clip-path:url(#clip-path-25);}.cls-23{clip-path:url(#clip-path-27);}.cls-24{clip-path:url(#clip-path-29);}.cls-25{clip-path:url(#clip-path-31);}.cls-26{clip-path:url(#clip-path-33);}.cls-27{clip-path:url(#clip-path-35);}.cls-28{clip-path:url(#clip-path-37);}.cls-29{clip-path:url(#clip-path-39);}.cls-30{clip-path:url(#clip-path-41);}.cls-31{clip-path:url(#clip-path-43);}.cls-32{clip-path:url(#clip-path-45);}.cls-33{clip-path:url(#clip-path-47);}.cls-34{clip-path:url(#clip-path-49);}.cls-35{clip-path:url(#clip-path-51);}.cls-36{clip-path:url(#clip-path-53);}.cls-37{font-size:12px;fill:#231f20;font-family:OpenSans, Open Sans;}.cls-38{stroke-width:0.57px;}</style><clipPath id="clip-path"><rect class="cls-1" x="31.73" y="495.27" width="46.69" height="46.69"/></clipPath><clipPath id="clip-path-3"><rect class="cls-1" x="294.96" y="449.75" width="46.69" height="46.69"/></clipPath><clipPath id="clip-path-5"><rect class="cls-1" x="369.71" y="459.28" width="46.69" height="46.69"/></clipPath><clipPath id="clip-path-7"><rect class="cls-1" x="447.39" y="452.68" width="46.69" height="46.69"/></clipPath><clipPath id="clip-path-9"><rect class="cls-1" x="482.57" y="476.13" width="46.69" height="46.69"/></clipPath><clipPath id="clip-path-11"><rect class="cls-1" x="409.28" y="482.73" width="46.69" height="46.69"/></clipPath><clipPath id="clip-path-13"><rect class="cls-1" x="333.8" y="479.06" width="46.69" height="46.69"/></clipPath><clipPath id="clip-path-15"><rect class="cls-1" x="256.85" y="473.2" width="46.69" height="46.69"/></clipPath><clipPath id="clip-path-17"><rect class="cls-1" x="300.09" y="499.58" width="46.69" height="46.69"/></clipPath><clipPath id="clip-path-19"><rect class="cls-1" x="379.97" y="503.25" width="46.69" height="46.69"/></clipPath><clipPath id="clip-path-21"><rect class="cls-1" x="313.95" y="324.37" width="46.69" height="46.69"/></clipPath><clipPath id="clip-path-23"><rect class="cls-1" x="390.96" y="328.1" width="46.69" height="46.69"/></clipPath><clipPath id="clip-path-25"><rect class="cls-1" x="446.66" y="340.56" width="46.69" height="46.69"/></clipPath><clipPath id="clip-path-27"><rect class="cls-1" x="291.29" y="343.49" width="46.69" height="46.69"/></clipPath><clipPath id="clip-path-29"><rect class="cls-1" x="350.65" y="347.89" width="46.69" height="46.69"/></clipPath><clipPath id="clip-path-31"><rect class="cls-1" x="416.61" y="355.21" width="46.69" height="46.69"/></clipPath><clipPath id="clip-path-33"><rect class="cls-1" x="281.03" y="367.67" width="46.69" height="46.69"/></clipPath><clipPath id="clip-path-35"><rect class="cls-1" x="356.52" y="375" width="46.69" height="46.69"/></clipPath><clipPath id="clip-path-37"><rect class="cls-1" x="349.19" y="195.45" width="46.69" height="46.69"/></clipPath><clipPath id="clip-path-39"><rect class="cls-1" x="423.94" y="200.58" width="46.69" height="46.69"/></clipPath><clipPath id="clip-path-41"><rect class="cls-1" x="319.87" y="215.24" width="46.69" height="46.69"/></clipPath><clipPath id="clip-path-43"><rect class="cls-1" x="395.36" y="220.37" width="46.69" height="46.69"/></clipPath><clipPath id="clip-path-45"><rect class="cls-1" x="333.06" y="239.42" width="46.69" height="46.69"/></clipPath><clipPath id="clip-path-47"><rect class="cls-1" x="385.1" y="73.8" width="46.69" height="46.69"/></clipPath><clipPath id="clip-path-49"><rect class="cls-1" x="336.09" y="85.61" width="46.69" height="46.69"/></clipPath><clipPath id="clip-path-51"><rect class="cls-1" x="407.91" y="91.48" width="46.69" height="46.69"/></clipPath><clipPath id="clip-path-53"><rect class="cls-1" x="336.82" y="108.33" width="46.69" height="46.69"/></clipPath></defs><title>Artboard 1</title><ellipse class="cls-2" cx="55.05" cy="451.62" rx="32.73" ry="7.44"/><path class="cls-2" d="M87.78,575.74s.11,8.46-33.56,8.59c-31.88.12-31.9-8.59-31.9-8.59V454.88s.36,7.59,31.9,7.51c34.68-.09,33.56-7.51,33.56-7.51Z"/><g class="cls-3"><g class="cls-3"><path class="cls-4" d="M52.08,513,44,499a22.29,22.29,0,0,0-11.15,19.32H49A6.16,6.16,0,0,1,52.08,513"/><path class="cls-4" d="M61.32,518.32H77.45A22.29,22.29,0,0,0,66.3,499l-8.08,14a6.16,6.16,0,0,1,3.1,5.32"/><path class="cls-4" d="M55.16,524.51a6.13,6.13,0,0,1-3.1-.84l-8.06,14a22.32,22.32,0,0,0,22.3,0l-8.06-14a6.13,6.13,0,0,1-3.08.83"/><path class="cls-4" d="M59.18,518.35a4,4,0,1,1-4-4,4,4,0,0,1,4,4"/></g></g><path class="cls-5" d="M87.78,575.74s.11,8.46-33.56,8.59V462.39c34.68-.09,33.56-7.51,33.56-7.51Z"/><path class="cls-5" d="M48,458.8c.61.2-3.68,0-13.11-1.35-8.16-1.18-12.58-4.07-12.58-5.82s4-4.42,11.62-5.71A161.15,161.15,0,0,1,55,444.19C45.48,446.75,31.85,453.45,48,458.8Z"/><path class="cls-6" d="M88.91,452c0,4.88-9.59,9.94-34.15,9.9-26.12,0-33.42-5-33.42-9.9,0-2.44,9.73-7,33.91-7C77.9,445,88.91,449.6,88.91,452Z"/><path class="cls-7" d="M19.73,480.65s3.48,7,35.06,7.45c32.58.44,35.83-7.45,35.83-7.45"/><path class="cls-7" d="M19.75,550.26s3.48,7,35.06,7.45c32.58.44,35.83-7.45,35.83-7.45"/><path class="cls-7" d="M19.75,577.4s3.48,7,35.06,7.45c32.58.44,35.83-7.45,35.83-7.45"/><ellipse class="cls-2" cx="318.27" cy="406.1" rx="32.73" ry="7.44"/><path class="cls-2" d="M351,530.21s.11,8.46-33.56,8.59c-31.88.12-31.9-8.59-31.9-8.59V409.36s.36,7.59,31.9,7.51c34.68-.09,33.56-7.51,33.56-7.51Z"/><g class="cls-8"><g class="cls-8"><path class="cls-4" d="M315.31,467.48l-8.08-14a22.29,22.29,0,0,0-11.15,19.32h16.15a6.16,6.16,0,0,1,3.09-5.32"/><path class="cls-4" d="M324.55,472.8h16.13a22.29,22.29,0,0,0-11.15-19.31l-8.08,14a6.16,6.16,0,0,1,3.1,5.32"/><path class="cls-4" d="M318.38,479a6.13,6.13,0,0,1-3.1-.84l-8.06,14a22.32,22.32,0,0,0,22.3,0l-8.06-14a6.13,6.13,0,0,1-3.08.83"/><path class="cls-4" d="M322.41,472.82a4,4,0,1,1-4-4,4,4,0,0,1,4,4"/></g></g><path class="cls-5" d="M351,530.21s.11,8.46-33.56,8.59V416.86c34.68-.09,33.56-7.51,33.56-7.51Z"/><path class="cls-5" d="M311.24,413.27c.61.2-3.68,0-13.11-1.35-8.16-1.18-12.58-4.07-12.58-5.82s4-4.42,11.62-5.71a161.15,161.15,0,0,1,21.11-1.73C308.71,401.23,295.07,407.92,311.24,413.27Z"/><path class="cls-9" d="M352.13,406.52c0,4.88-9.59,9.94-34.15,9.9-26.12,0-33.42-5-33.42-9.9,0-2.44,9.73-7,33.91-7C341.13,399.48,352.13,404.07,352.13,406.52Z"/><path class="cls-10" d="M283,435.13s3.48,7,35.06,7.45c32.58.44,35.83-7.45,35.83-7.45"/><path class="cls-10" d="M283,504.74s3.48,7,35.06,7.45c32.58.44,35.83-7.45,35.83-7.45"/><path class="cls-10" d="M283,531.87s3.48,7,35.06,7.45c32.58.44,35.83-7.45,35.83-7.45"/><ellipse class="cls-2" cx="393.02" cy="415.63" rx="32.73" ry="7.44"/><path class="cls-2" d="M425.75,539.74s.11,8.46-33.56,8.59c-31.88.12-31.9-8.59-31.9-8.59V418.88s.36,7.59,31.9,7.51c34.68-.09,33.56-7.51,33.56-7.51Z"/><g class="cls-11"><g class="cls-11"><path class="cls-4" d="M390.06,477,382,463a22.29,22.29,0,0,0-11.15,19.32H387a6.16,6.16,0,0,1,3.09-5.32"/><path class="cls-4" d="M399.3,482.32h16.13A22.29,22.29,0,0,0,404.27,463l-8.08,14a6.16,6.16,0,0,1,3.1,5.32"/><path class="cls-4" d="M393.13,488.51a6.13,6.13,0,0,1-3.1-.84l-8.06,14a22.32,22.32,0,0,0,22.3,0l-8.06-14a6.13,6.13,0,0,1-3.08.83"/><path class="cls-4" d="M397.16,482.35a4,4,0,1,1-4-4,4,4,0,0,1,4,4"/></g></g><path class="cls-5" d="M425.75,539.74s.11,8.46-33.56,8.59V426.39c34.68-.09,33.56-7.51,33.56-7.51Z"/><path class="cls-5" d="M386,422.8c.61.2-3.68,0-13.11-1.35-8.16-1.18-12.58-4.07-12.58-5.82s4-4.42,11.62-5.71A161.15,161.15,0,0,1,393,408.19C383.46,410.75,369.82,417.45,386,422.8Z"/><path class="cls-9" d="M426.88,416c0,4.88-9.59,9.94-34.15,9.9-26.12,0-33.42-5-33.42-9.9,0-2.44,9.73-7,33.91-7C415.88,409,426.88,413.6,426.88,416Z"/><path class="cls-10" d="M357.7,444.66s3.48,7,35.06,7.45c32.58.44,35.83-7.45,35.83-7.45"/><path class="cls-10" d="M357.73,514.27s3.48,7,35.06,7.45c32.58.44,35.83-7.45,35.83-7.45"/><path class="cls-10" d="M357.73,541.4s3.48,7,35.06,7.45c32.58.44,35.83-7.45,35.83-7.45"/><ellipse class="cls-2" cx="470.71" cy="409.03" rx="32.73" ry="7.44"/><path class="cls-2" d="M503.44,533.14s.11,8.46-33.56,8.59c-31.88.12-31.9-8.59-31.9-8.59V412.29s.36,7.59,31.9,7.51c34.68-.09,33.56-7.51,33.56-7.51Z"/><g class="cls-12"><g class="cls-12"><path class="cls-4" d="M467.74,470.41l-8.08-14a22.29,22.29,0,0,0-11.15,19.32h16.15a6.16,6.16,0,0,1,3.09-5.32"/><path class="cls-4" d="M477,475.73h16.13A22.29,22.29,0,0,0,482,456.41l-8.08,14a6.16,6.16,0,0,1,3.1,5.32"/><path class="cls-4" d="M470.81,481.92a6.13,6.13,0,0,1-3.1-.84l-8.06,14a22.32,22.32,0,0,0,22.3,0l-8.06-14a6.13,6.13,0,0,1-3.08.83"/><path class="cls-4" d="M474.84,475.75a4,4,0,1,1-4-4,4,4,0,0,1,4,4"/></g></g><path class="cls-5" d="M503.44,533.14s.11,8.46-33.56,8.59V419.8c34.68-.09,33.56-7.51,33.56-7.51Z"/><path class="cls-5" d="M463.67,416.2c.61.2-3.68,0-13.11-1.35C442.4,413.67,438,410.79,438,409s4-4.42,11.62-5.71a161.15,161.15,0,0,1,21.11-1.73C461.14,404.16,447.5,410.85,463.67,416.2Z"/><path class="cls-6" d="M504.56,409.45c0,4.88-9.59,9.94-34.15,9.9-26.12,0-33.42-5-33.42-9.9,0-2.44,9.73-7,33.91-7C493.56,402.41,504.56,407,504.56,409.45Z"/><path class="cls-7" d="M435.39,438.06s3.48,7,35.06,7.45c32.58.44,35.83-7.45,35.83-7.45"/><path class="cls-7" d="M435.41,507.67s3.48,7,35.06,7.45c32.58.44,35.83-7.45,35.83-7.45"/><path class="cls-7" d="M435.41,534.81s3.48,7,35.06,7.45c32.58.44,35.83-7.45,35.83-7.45"/><ellipse class="cls-2" cx="505.88" cy="432.48" rx="32.73" ry="7.44"/><path class="cls-2" d="M538.61,556.6s.11,8.46-33.56,8.59c-31.88.12-31.9-8.59-31.9-8.59V435.74s.36,7.59,31.9,7.51c34.68-.09,33.56-7.51,33.56-7.51Z"/><g class="cls-13"><g class="cls-13"><path class="cls-4" d="M502.91,493.87l-8.08-14a22.29,22.29,0,0,0-11.15,19.32h16.15a6.16,6.16,0,0,1,3.09-5.32"/><path class="cls-4" d="M512.15,499.18h16.13a22.29,22.29,0,0,0-11.15-19.31l-8.08,14a6.16,6.16,0,0,1,3.1,5.32"/><path class="cls-4" d="M506,505.37a6.13,6.13,0,0,1-3.1-.84l-8.06,14a22.32,22.32,0,0,0,22.3,0l-8.06-14a6.13,6.13,0,0,1-3.08.83"/><path class="cls-4" d="M510,499.2a4,4,0,1,1-4-4,4,4,0,0,1,4,4"/></g></g><path class="cls-5" d="M538.61,556.6s.11,8.46-33.56,8.59V443.25c34.68-.09,33.56-7.51,33.56-7.51Z"/><path class="cls-5" d="M498.84,439.65c.61.2-3.68,0-13.11-1.35-8.16-1.18-12.58-4.07-12.58-5.82s4-4.42,11.62-5.71A161.15,161.15,0,0,1,505.88,425C496.31,427.61,482.68,434.31,498.84,439.65Z"/><path class="cls-14" d="M539.74,432.9c0,4.88-9.59,9.94-34.15,9.9-26.12,0-33.42-5-33.42-9.9,0-2.44,9.73-7,33.91-7C528.73,425.86,539.74,430.46,539.74,432.9Z"/><path class="cls-7" d="M470.56,461.51s3.48,7,35.06,7.45c32.58.44,35.83-7.45,35.83-7.45"/><path class="cls-7" d="M470.58,531.12s3.48,7,35.06,7.45c32.58.44,35.83-7.45,35.83-7.45"/><path class="cls-7" d="M470.58,558.26s3.48,7,35.06,7.45c32.58.44,35.83-7.45,35.83-7.45"/><ellipse class="cls-2" cx="432.6" cy="439.08" rx="32.73" ry="7.44"/><path class="cls-2" d="M465.33,563.19s.11,8.46-33.56,8.59c-31.88.12-31.9-8.59-31.9-8.59V442.33s.36,7.59,31.9,7.51c34.68-.09,33.56-7.51,33.56-7.51Z"/><g class="cls-15"><g class="cls-15"><path class="cls-4" d="M429.63,500.46l-8.08-14a22.29,22.29,0,0,0-11.15,19.32h16.15a6.16,6.16,0,0,1,3.09-5.32"/><path class="cls-4" d="M438.87,505.77H455a22.29,22.29,0,0,0-11.15-19.31l-8.08,14a6.16,6.16,0,0,1,3.1,5.32"/><path class="cls-4" d="M432.71,512a6.13,6.13,0,0,1-3.1-.84l-8.06,14a22.32,22.32,0,0,0,22.3,0l-8.06-14a6.13,6.13,0,0,1-3.08.83"/><path class="cls-4" d="M436.73,505.8a4,4,0,1,1-4-4,4,4,0,0,1,4,4"/></g></g><path class="cls-5" d="M465.33,563.19s.11,8.46-33.56,8.59V449.84c34.68-.09,33.56-7.51,33.56-7.51Z"/><path class="cls-5" d="M425.56,446.25c.61.2-3.68,0-13.11-1.35-8.16-1.18-12.58-4.07-12.58-5.82s4-4.42,11.62-5.71a161.15,161.15,0,0,1,21.11-1.73C423,434.2,409.4,440.9,425.56,446.25Z"/><path class="cls-14" d="M466.46,439.5c0,4.88-9.59,9.94-34.15,9.9-26.12,0-33.42-5-33.42-9.9,0-2.44,9.73-7,33.91-7C455.45,432.46,466.46,437.05,466.46,439.5Z"/><path class="cls-7" d="M397.28,468.11s3.48,7,35.06,7.45c32.58.44,35.83-7.45,35.83-7.45"/><path class="cls-7" d="M397.3,537.72s3.48,7,35.06,7.45c32.58.44,35.83-7.45,35.83-7.45"/><path class="cls-7" d="M397.3,564.85s3.48,7,35.06,7.45c32.58.44,35.83-7.45,35.83-7.45"/><ellipse class="cls-2" cx="357.12" cy="435.41" rx="32.73" ry="7.44"/><path class="cls-2" d="M389.84,559.53s.11,8.46-33.56,8.59c-31.88.12-31.9-8.59-31.9-8.59V438.67s.36,7.59,31.9,7.51c34.68-.09,33.56-7.51,33.56-7.51Z"/><g class="cls-16"><g class="cls-16"><path class="cls-4" d="M354.15,496.8l-8.08-14a22.29,22.29,0,0,0-11.15,19.32h16.15a6.16,6.16,0,0,1,3.09-5.32"/><path class="cls-4" d="M363.39,502.11h16.13a22.29,22.29,0,0,0-11.15-19.31l-8.08,14a6.16,6.16,0,0,1,3.1,5.32"/><path class="cls-4" d="M357.22,508.3a6.13,6.13,0,0,1-3.1-.84l-8.06,14a22.32,22.32,0,0,0,22.3,0l-8.06-14a6.13,6.13,0,0,1-3.08.83"/><path class="cls-4" d="M361.25,502.14a4,4,0,1,1-4-4,4,4,0,0,1,4,4"/></g></g><path class="cls-5" d="M389.84,559.53s.11,8.46-33.56,8.59V446.18c34.68-.09,33.56-7.51,33.56-7.51Z"/><path class="cls-5" d="M350.08,442.59c.61.2-3.68,0-13.11-1.35-8.16-1.18-12.58-4.07-12.58-5.82s4-4.42,11.62-5.71A161.15,161.15,0,0,1,357.12,428C347.55,430.54,333.91,437.24,350.08,442.59Z"/><path class="cls-14" d="M391,435.83c0,4.88-9.59,9.94-34.15,9.9-26.12,0-33.42-5-33.42-9.9,0-2.44,9.73-7,33.91-7C380,428.79,391,433.39,391,435.83Z"/><path class="cls-7" d="M321.79,464.44s3.48,7,35.06,7.45c32.58.44,35.83-7.45,35.83-7.45"/><path class="cls-7" d="M321.82,534.05s3.48,7,35.06,7.45c32.58.44,35.83-7.45,35.83-7.45"/><path class="cls-7" d="M321.82,561.19s3.48,7,35.06,7.45c32.58.44,35.83-7.45,35.83-7.45"/><ellipse class="cls-2" cx="280.17" cy="429.55" rx="32.73" ry="7.44"/><path class="cls-2" d="M312.9,553.66s.11,8.46-33.56,8.59c-31.88.12-31.9-8.59-31.9-8.59V432.81s.36,7.59,31.9,7.51c34.68-.09,33.56-7.51,33.56-7.51Z"/><g class="cls-17"><g class="cls-17"><path class="cls-4" d="M277.2,490.93l-8.08-14A22.29,22.29,0,0,0,258,496.25h16.15a6.16,6.16,0,0,1,3.09-5.32"/><path class="cls-4" d="M286.44,496.25h16.13a22.29,22.29,0,0,0-11.15-19.31l-8.08,14a6.16,6.16,0,0,1,3.1,5.32"/><path class="cls-4" d="M280.27,502.44a6.13,6.13,0,0,1-3.1-.84l-8.06,14a22.32,22.32,0,0,0,22.3,0l-8.06-14a6.13,6.13,0,0,1-3.08.83"/><path class="cls-4" d="M284.3,496.27a4,4,0,1,1-4-4,4,4,0,0,1,4,4"/></g></g><path class="cls-5" d="M312.9,553.66s.11,8.46-33.56,8.59V440.32c34.68-.09,33.56-7.51,33.56-7.51Z"/><path class="cls-14" d="M314,430c0,4.88-9.59,9.94-34.15,9.9-26.12,0-33.42-5-33.42-9.9,0-2.44,9.73-7,33.91-7C303,422.93,314,427.52,314,430Z"/><path class="cls-7" d="M244.85,458.58s3.48,7,35.06,7.45c32.58.44,35.83-7.45,35.83-7.45"/><path class="cls-7" d="M244.87,528.19s3.48,7,35.06,7.45c32.58.44,35.83-7.45,35.83-7.45"/><path class="cls-7" d="M244.87,555.33s3.48,7,35.06,7.45c32.58.44,35.83-7.45,35.83-7.45"/><path class="cls-5" d="M273.13,436.72c.61.2-3.68,0-13.11-1.35-8.16-1.18-12.58-4.07-12.58-5.82s4-4.42,11.62-5.71a161.15,161.15,0,0,1,21.11-1.73C270.6,424.68,257,431.37,273.13,436.72Z"/><ellipse class="cls-2" cx="323.4" cy="455.93" rx="32.73" ry="7.44"/><path class="cls-2" d="M356.13,580s.11,8.46-33.56,8.59c-31.88.12-31.9-8.59-31.9-8.59V459.19s.36,7.59,31.9,7.51c34.68-.09,33.56-7.51,33.56-7.51Z"/><g class="cls-18"><g class="cls-18"><path class="cls-4" d="M320.44,517.32l-8.08-14a22.29,22.29,0,0,0-11.15,19.32h16.15a6.16,6.16,0,0,1,3.09-5.32"/><path class="cls-4" d="M329.68,522.63H345.8a22.29,22.29,0,0,0-11.15-19.31l-8.08,14a6.16,6.16,0,0,1,3.1,5.32"/><path class="cls-4" d="M323.51,528.82a6.13,6.13,0,0,1-3.1-.84l-8.06,14a22.32,22.32,0,0,0,22.3,0l-8.06-14a6.13,6.13,0,0,1-3.08.83"/><path class="cls-4" d="M327.54,522.66a4,4,0,1,1-4-4,4,4,0,0,1,4,4"/></g></g><path class="cls-5" d="M356.13,580s.11,8.46-33.56,8.59V466.7c34.68-.09,33.56-7.51,33.56-7.51Z"/><path class="cls-5" d="M316.37,463.11c.61.2-3.68,0-13.11-1.35-8.16-1.18-12.58-4.07-12.58-5.82s4-4.42,11.62-5.71a161.15,161.15,0,0,1,21.11-1.73C313.84,451.06,300.2,457.76,316.37,463.11Z"/><path class="cls-14" d="M357.26,456.35c0,4.88-9.59,9.94-34.15,9.9-26.12,0-33.42-5-33.42-9.9,0-2.44,9.73-7,33.91-7C346.25,449.31,357.26,453.91,357.26,456.35Z"/><path class="cls-7" d="M288.08,485s3.48,7,35.06,7.45C355.72,492.86,359,485,359,485"/><path class="cls-7" d="M288.11,554.57s3.48,7,35.06,7.45c32.58.44,35.83-7.45,35.83-7.45"/><path class="cls-7" d="M288.11,581.71s3.48,7,35.06,7.45c32.58.44,35.83-7.45,35.83-7.45"/><ellipse class="cls-2" cx="403.28" cy="459.6" rx="32.73" ry="7.44"/><path class="cls-2" d="M436,583.71s.11,8.46-33.56,8.59c-31.88.12-31.9-8.59-31.9-8.59V462.85s.36,7.59,31.9,7.51c34.68-.09,33.56-7.51,33.56-7.51Z"/><g class="cls-19"><g class="cls-19"><path class="cls-4" d="M400.32,521l-8.08-14a22.29,22.29,0,0,0-11.15,19.32h16.15a6.16,6.16,0,0,1,3.09-5.32"/><path class="cls-4" d="M409.56,526.29h16.13A22.29,22.29,0,0,0,414.53,507l-8.08,14a6.16,6.16,0,0,1,3.1,5.32"/><path class="cls-4" d="M403.39,532.48a6.13,6.13,0,0,1-3.1-.84l-8.06,14a22.32,22.32,0,0,0,22.3,0l-8.06-14a6.13,6.13,0,0,1-3.08.83"/><path class="cls-4" d="M407.42,526.32a4,4,0,1,1-4-4,4,4,0,0,1,4,4"/></g></g><path class="cls-5" d="M436,583.71s.11,8.46-33.56,8.59V470.36c34.68-.09,33.56-7.51,33.56-7.51Z"/><path class="cls-5" d="M396.25,466.77c.61.2-3.68,0-13.11-1.35-8.16-1.18-12.58-4.07-12.58-5.82s4-4.42,11.62-5.71a161.15,161.15,0,0,1,21.11-1.73C393.72,454.72,380.08,461.42,396.25,466.77Z"/><path class="cls-14" d="M437.14,460c0,4.88-9.59,9.94-34.15,9.9-26.12,0-33.42-5-33.42-9.9,0-2.44,9.73-7,33.91-7C426.14,453,437.14,457.57,437.14,460Z"/><path class="cls-7" d="M368,488.63s3.48,7,35.06,7.45c32.58.44,35.83-7.45,35.83-7.45"/><path class="cls-7" d="M368,558.24s3.48,7,35.06,7.45c32.58.44,35.83-7.45,35.83-7.45"/><path class="cls-7" d="M368,585.37s3.48,7,35.06,7.45c32.58.44,35.83-7.45,35.83-7.45"/><ellipse class="cls-2" cx="337.26" cy="280.72" rx="32.73" ry="7.44"/><path class="cls-2" d="M370,404.83s.11,8.46-33.56,8.59c-31.88.12-31.9-8.59-31.9-8.59V284s.36,7.59,31.9,7.51C371.11,291.39,370,284,370,284Z"/><g class="cls-20"><g class="cls-20"><path class="cls-4" d="M334.29,342.1l-8.08-14a22.29,22.29,0,0,0-11.15,19.32h16.15a6.16,6.16,0,0,1,3.09-5.32"/><path class="cls-4" d="M343.53,347.42h16.13a22.29,22.29,0,0,0-11.15-19.31l-8.08,14a6.16,6.16,0,0,1,3.1,5.32"/><path class="cls-4" d="M337.37,353.61a6.13,6.13,0,0,1-3.1-.84l-8.06,14a22.32,22.32,0,0,0,22.3,0l-8.06-14a6.13,6.13,0,0,1-3.08.83"/><path class="cls-4" d="M341.4,347.44a4,4,0,1,1-4-4,4,4,0,0,1,4,4"/></g></g><path class="cls-5" d="M370,404.83s.11,8.46-33.56,8.59V291.49C371.11,291.39,370,284,370,284Z"/><path class="cls-5" d="M330.22,287.89c.61.2-3.68,0-13.11-1.35-8.16-1.18-12.58-4.07-12.58-5.82s4-4.42,11.62-5.71a161.15,161.15,0,0,1,21.11-1.73C327.69,275.85,314.06,282.54,330.22,287.89Z"/><path class="cls-14" d="M371.12,281.14c0,4.88-9.59,9.94-34.15,9.9-26.12,0-33.42-5-33.42-9.9,0-2.44,9.73-7,33.91-7C360.11,274.1,371.12,278.69,371.12,281.14Z"/><path class="cls-10" d="M301.94,309.75s3.48,7,35.06,7.45c32.58.44,35.83-7.45,35.83-7.45"/><path class="cls-10" d="M302,379.36s3.48,7,35.06,7.45c32.58.44,35.83-7.45,35.83-7.45"/><path class="cls-10" d="M302,406.5s3.48,7,35.06,7.45c32.58.44,35.83-7.45,35.83-7.45"/><ellipse class="cls-2" cx="414.28" cy="284.45" rx="32.73" ry="7.44"/><path class="cls-2" d="M447,408.56s.11,8.46-33.56,8.59c-31.88.12-31.9-8.59-31.9-8.59V287.7s.36,7.59,31.9,7.51c34.68-.09,33.56-7.51,33.56-7.51Z"/><g class="cls-21"><g class="cls-21"><path class="cls-4" d="M411.31,345.83l-8.08-14a22.29,22.29,0,0,0-11.15,19.32h16.15a6.16,6.16,0,0,1,3.09-5.32"/><path class="cls-4" d="M420.55,351.14h16.13a22.29,22.29,0,0,0-11.15-19.31l-8.08,14a6.16,6.16,0,0,1,3.1,5.32"/><path class="cls-4" d="M414.39,357.33a6.13,6.13,0,0,1-3.1-.84l-8.06,14a22.32,22.32,0,0,0,22.3,0l-8.06-14a6.13,6.13,0,0,1-3.08.83"/><path class="cls-4" d="M418.41,351.17a4,4,0,1,1-4-4,4,4,0,0,1,4,4"/></g></g><path class="cls-5" d="M447,408.56s.11,8.46-33.56,8.59V295.21c34.68-.09,33.56-7.51,33.56-7.51Z"/><path class="cls-5" d="M407.24,291.62c.61.2-3.68,0-13.11-1.35-8.16-1.18-12.58-4.07-12.58-5.82s4-4.42,11.62-5.71A161.15,161.15,0,0,1,414.28,277C404.71,279.57,391.08,286.27,407.24,291.62Z"/><path class="cls-9" d="M448.13,284.87c0,4.88-9.59,9.94-34.15,9.9-26.12,0-33.42-5-33.42-9.9,0-2.44,9.73-7,33.91-7C437.13,277.83,448.13,282.42,448.13,284.87Z"/><path class="cls-10" d="M379,313.48s3.48,7,35.06,7.45c32.58.44,35.83-7.45,35.83-7.45"/><path class="cls-10" d="M379,383.09s3.48,7,35.06,7.45c32.58.44,35.83-7.45,35.83-7.45"/><path class="cls-10" d="M379,410.22s3.48,7,35.06,7.45c32.58.44,35.83-7.45,35.83-7.45"/><ellipse class="cls-2" cx="469.97" cy="296.91" rx="32.73" ry="7.44"/><path class="cls-2" d="M502.7,421s.11,8.46-33.56,8.59c-31.88.12-31.9-8.59-31.9-8.59V300.16s.36,7.59,31.9,7.51c34.68-.09,33.56-7.51,33.56-7.51Z"/><g class="cls-22"><g class="cls-22"><path class="cls-4" d="M467,358.29l-8.08-14a22.29,22.29,0,0,0-11.15,19.32h16.15a6.16,6.16,0,0,1,3.09-5.32"/><path class="cls-4" d="M476.24,363.6h16.13a22.29,22.29,0,0,0-11.15-19.31l-8.08,14a6.16,6.16,0,0,1,3.1,5.32"/><path class="cls-4" d="M470.08,369.79A6.13,6.13,0,0,1,467,369l-8.06,14a22.32,22.32,0,0,0,22.3,0l-8.06-14a6.13,6.13,0,0,1-3.08.83"/><path class="cls-4" d="M474.11,363.63a4,4,0,1,1-4-4,4,4,0,0,1,4,4"/></g></g><path class="cls-5" d="M502.7,421s.11,8.46-33.56,8.59V307.67c34.68-.09,33.56-7.51,33.56-7.51Z"/><path class="cls-5" d="M462.93,304.08c.61.2-3.68,0-13.11-1.35-8.16-1.18-12.58-4.07-12.58-5.82s4-4.42,11.62-5.71A161.15,161.15,0,0,1,470,289.47C460.41,292,446.77,298.73,462.93,304.08Z"/><path class="cls-14" d="M503.83,297.33c0,4.88-9.59,9.94-34.15,9.9-26.12,0-33.42-5-33.42-9.9,0-2.44,9.73-7,33.91-7C492.82,290.29,503.83,294.88,503.83,297.33Z"/><path class="cls-7" d="M434.65,325.93s3.48,7,35.06,7.45c32.58.44,35.83-7.45,35.83-7.45"/><path class="cls-7" d="M434.67,395.54s3.48,7,35.06,7.45c32.58.44,35.83-7.45,35.83-7.45"/><path class="cls-10" d="M434.67,422.68s3.48,7,35.06,7.45c32.58.44,35.83-7.45,35.83-7.45"/><ellipse class="cls-2" cx="314.61" cy="299.84" rx="32.73" ry="7.44"/><path class="cls-2" d="M347.34,424s.11,8.46-33.56,8.59c-31.88.12-31.9-8.59-31.9-8.59V303.09s.36,7.59,31.9,7.51c34.68-.09,33.56-7.51,33.56-7.51Z"/><g class="cls-23"><g class="cls-23"><path class="cls-4" d="M311.64,361.22l-8.08-14a22.29,22.29,0,0,0-11.15,19.32h16.15a6.16,6.16,0,0,1,3.09-5.32"/><path class="cls-4" d="M320.88,366.53H337a22.29,22.29,0,0,0-11.15-19.31l-8.08,14a6.16,6.16,0,0,1,3.1,5.32"/><path class="cls-4" d="M314.72,372.72a6.13,6.13,0,0,1-3.1-.84l-8.06,14a22.32,22.32,0,0,0,22.3,0l-8.06-14a6.13,6.13,0,0,1-3.08.83"/><path class="cls-4" d="M318.75,366.56a4,4,0,1,1-4-4,4,4,0,0,1,4,4"/></g></g><path class="cls-5" d="M347.34,424s.11,8.46-33.56,8.59V310.6c34.68-.09,33.56-7.51,33.56-7.51Z"/><path class="cls-14" d="M348.47,300.26c0,4.88-9.59,9.94-34.15,9.9-26.12,0-33.42-5-33.42-9.9,0-2.44,9.73-7,33.91-7C337.46,293.22,348.47,297.81,348.47,300.26Z"/><path class="cls-10" d="M279.29,328.87s3.48,7,35.06,7.45c32.58.44,35.83-7.45,35.83-7.45"/><path class="cls-7" d="M279.31,398.48s3.48,7,35.06,7.45c32.58.44,35.83-7.45,35.83-7.45"/><path class="cls-10" d="M279.31,425.61s3.48,7,35.06,7.45c32.58.44,35.83-7.45,35.83-7.45"/><path class="cls-5" d="M307.57,307c.61.2-3.68,0-13.11-1.35-8.16-1.18-12.58-4.07-12.58-5.82s4-4.42,11.62-5.71a161.15,161.15,0,0,1,21.11-1.73C305,295,291.41,301.66,307.57,307Z"/><ellipse class="cls-2" cx="373.97" cy="304.23" rx="32.73" ry="7.44"/><path class="cls-2" d="M406.7,428.35s.11,8.46-33.56,8.59c-31.88.12-31.9-8.59-31.9-8.59V307.49s.36,7.59,31.9,7.51c34.68-.09,33.56-7.51,33.56-7.51Z"/><g class="cls-24"><g class="cls-24"><path class="cls-4" d="M371,365.62l-8.08-14a22.29,22.29,0,0,0-11.15,19.32h16.15a6.16,6.16,0,0,1,3.09-5.32"/><path class="cls-4" d="M380.24,370.93h16.13a22.29,22.29,0,0,0-11.15-19.31l-8.08,14a6.16,6.16,0,0,1,3.1,5.32"/><path class="cls-4" d="M374.08,377.12a6.13,6.13,0,0,1-3.1-.84l-8.06,14a22.32,22.32,0,0,0,22.3,0l-8.06-14a6.13,6.13,0,0,1-3.08.83"/><path class="cls-4" d="M378.11,371a4,4,0,1,1-4-4,4,4,0,0,1,4,4"/></g></g><path class="cls-5" d="M406.7,428.35s.11,8.46-33.56,8.59V315c34.68-.09,33.56-7.51,33.56-7.51Z"/><path class="cls-5" d="M366.93,311.41c.61.2-3.68,0-13.11-1.35-8.16-1.18-12.58-4.07-12.58-5.82s4-4.42,11.62-5.71A161.15,161.15,0,0,1,374,296.8C364.4,299.36,350.77,306.06,366.93,311.41Z"/><path class="cls-14" d="M407.83,304.65c0,4.88-9.59,9.94-34.15,9.9-26.12,0-33.42-5-33.42-9.9,0-2.44,9.73-7,33.91-7C396.82,297.62,407.83,302.21,407.83,304.65Z"/><path class="cls-7" d="M338.65,333.26s3.48,7,35.06,7.45c32.58.44,35.83-7.45,35.83-7.45"/><path class="cls-7" d="M338.67,402.87s3.48,7,35.06,7.45c32.58.44,35.83-7.45,35.83-7.45"/><path class="cls-7" d="M338.67,430s3.48,7,35.06,7.45c32.58.44,35.83-7.45,35.83-7.45"/><ellipse class="cls-2" cx="439.93" cy="311.56" rx="32.73" ry="7.44"/><path class="cls-2" d="M472.66,435.68s.11,8.46-33.56,8.59c-31.88.12-31.9-8.59-31.9-8.59V314.82s.36,7.59,31.9,7.51c34.68-.09,33.56-7.51,33.56-7.51Z"/><g class="cls-25"><g class="cls-25"><path class="cls-4" d="M437,372.95l-8.08-14a22.29,22.29,0,0,0-11.15,19.32h16.15a6.16,6.16,0,0,1,3.09-5.32"/><path class="cls-4" d="M446.2,378.26h16.13a22.29,22.29,0,0,0-11.15-19.31l-8.08,14a6.16,6.16,0,0,1,3.1,5.32"/><path class="cls-4" d="M440,384.45a6.13,6.13,0,0,1-3.1-.84l-8.06,14a22.32,22.32,0,0,0,22.3,0l-8.06-14a6.13,6.13,0,0,1-3.08.83"/><path class="cls-4" d="M444.06,378.29a4,4,0,1,1-4-4,4,4,0,0,1,4,4"/></g></g><path class="cls-5" d="M472.66,435.68s.11,8.46-33.56,8.59V322.33c34.68-.09,33.56-7.51,33.56-7.51Z"/><path class="cls-5" d="M432.89,318.73c.61.2-3.68,0-13.11-1.35-8.16-1.18-12.58-4.07-12.58-5.82s4-4.42,11.62-5.71a161.15,161.15,0,0,1,21.11-1.73C430.36,306.69,416.73,313.39,432.89,318.73Z"/><path class="cls-14" d="M473.78,312c0,4.88-9.59,9.94-34.15,9.9-26.12,0-33.42-5-33.42-9.9,0-2.44,9.73-7,33.91-7C462.78,304.94,473.78,309.54,473.78,312Z"/><path class="cls-7" d="M404.61,340.59s3.48,7,35.06,7.45c32.58.44,35.83-7.45,35.83-7.45"/><path class="cls-7" d="M404.63,410.2s3.48,7,35.06,7.45c32.58.44,35.83-7.45,35.83-7.45"/><path class="cls-7" d="M404.63,437.34s3.48,7,35.06,7.45c32.58.44,35.83-7.45,35.83-7.45"/><ellipse class="cls-2" cx="304.35" cy="324.02" rx="32.73" ry="7.44"/><path class="cls-2" d="M337.08,448.13s.11,8.46-33.56,8.59c-31.88.12-31.9-8.59-31.9-8.59V327.28s.36,7.59,31.9,7.51c34.68-.09,33.56-7.51,33.56-7.51Z"/><g class="cls-26"><g class="cls-26"><path class="cls-4" d="M301.38,385.4l-8.08-14a22.29,22.29,0,0,0-11.15,19.32H298.3a6.16,6.16,0,0,1,3.09-5.32"/><path class="cls-4" d="M310.62,390.72h16.13A22.29,22.29,0,0,0,315.6,371.4l-8.08,14a6.16,6.16,0,0,1,3.1,5.32"/><path class="cls-4" d="M304.46,396.91a6.13,6.13,0,0,1-3.1-.84l-8.06,14a22.32,22.32,0,0,0,22.3,0l-8.06-14a6.13,6.13,0,0,1-3.08.83"/><path class="cls-4" d="M308.49,390.74a4,4,0,1,1-4-4,4,4,0,0,1,4,4"/></g></g><path class="cls-5" d="M337.08,448.13s.11,8.46-33.56,8.59V334.79c34.68-.09,33.56-7.51,33.56-7.51Z"/><path class="cls-14" d="M338.21,324.44c0,4.88-9.59,9.94-34.15,9.9-26.12,0-33.42-5-33.42-9.9,0-2.44,9.73-7,33.91-7C327.2,317.4,338.21,322,338.21,324.44Z"/><path class="cls-7" d="M269,353s3.48,7,35.06,7.45c32.58.44,35.83-7.45,35.83-7.45"/><path class="cls-7" d="M269.05,422.66s3.48,7,35.06,7.45c32.58.44,35.83-7.45,35.83-7.45"/><path class="cls-7" d="M269.05,449.8s3.48,7,35.06,7.45c32.58.44,35.83-7.45,35.83-7.45"/><path class="cls-5" d="M297.31,331.19c.61.2-3.68,0-13.11-1.35-8.16-1.18-12.58-4.07-12.58-5.82s4-4.42,11.62-5.71a161.15,161.15,0,0,1,21.11-1.73C294.78,319.15,281.15,325.84,297.31,331.19Z"/><ellipse class="cls-2" cx="379.83" cy="331.35" rx="32.73" ry="7.44"/><path class="cls-2" d="M412.56,455.46s.11,8.46-33.56,8.59c-31.88.12-31.9-8.59-31.9-8.59V334.61s.36,7.59,31.9,7.51c34.68-.09,33.56-7.51,33.56-7.51Z"/><g class="cls-27"><g class="cls-27"><path class="cls-4" d="M376.86,392.73l-8.08-14A22.29,22.29,0,0,0,357.63,398h16.15a6.16,6.16,0,0,1,3.09-5.32"/><path class="cls-4" d="M386.1,398h16.13a22.29,22.29,0,0,0-11.15-19.31l-8.08,14a6.16,6.16,0,0,1,3.1,5.32"/><path class="cls-4" d="M379.94,404.24a6.13,6.13,0,0,1-3.1-.84l-8.06,14a22.32,22.32,0,0,0,22.3,0l-8.06-14a6.13,6.13,0,0,1-3.08.83"/><path class="cls-4" d="M384,398.07a4,4,0,1,1-4-4,4,4,0,0,1,4,4"/></g></g><path class="cls-5" d="M412.56,455.46s.11,8.46-33.56,8.59V342.11c34.68-.09,33.56-7.51,33.56-7.51Z"/><path class="cls-5" d="M372.79,338.52c.61.2-3.68,0-13.11-1.35-8.16-1.18-12.58-4.07-12.58-5.82s4-4.42,11.62-5.71a161.15,161.15,0,0,1,21.11-1.73C370.27,326.48,356.63,333.17,372.79,338.52Z"/><path class="cls-14" d="M413.69,331.77c0,4.88-9.59,9.94-34.15,9.9-26.12,0-33.42-5-33.42-9.9,0-2.44,9.73-7,33.91-7C402.68,324.73,413.69,329.32,413.69,331.77Z"/><path class="cls-7" d="M344.51,360.38s3.48,7,35.06,7.45c32.58.44,35.83-7.45,35.83-7.45"/><path class="cls-7" d="M344.53,430s3.48,7,35.06,7.45c32.58.44,35.83-7.45,35.83-7.45"/><path class="cls-7" d="M344.53,457.12s3.48,7,35.06,7.45c32.58.44,35.83-7.45,35.83-7.45"/><ellipse class="cls-2" cx="372.5" cy="151.8" rx="32.73" ry="7.44"/><path class="cls-2" d="M405.23,275.92s.11,8.46-33.56,8.59c-31.88.12-31.9-8.59-31.9-8.59V155.06s.36,7.59,31.9,7.51c34.68-.09,33.56-7.51,33.56-7.51Z"/><g class="cls-28"><g class="cls-28"><path class="cls-4" d="M369.54,213.18l-8.08-14A22.29,22.29,0,0,0,350.3,218.5h16.15a6.16,6.16,0,0,1,3.09-5.32"/><path class="cls-4" d="M378.78,218.5H394.9a22.29,22.29,0,0,0-11.15-19.31l-8.08,14a6.16,6.16,0,0,1,3.1,5.32"/><path class="cls-4" d="M372.61,224.69a6.13,6.13,0,0,1-3.1-.84l-8.06,14a22.32,22.32,0,0,0,22.3,0l-8.06-14a6.13,6.13,0,0,1-3.08.83"/><path class="cls-4" d="M376.64,218.52a4,4,0,1,1-4-4,4,4,0,0,1,4,4"/></g></g><path class="cls-5" d="M405.23,275.92s.11,8.46-33.56,8.59V162.57c34.68-.09,33.56-7.51,33.56-7.51Z"/><path class="cls-5" d="M365.47,159c.61.2-3.68,0-13.11-1.35-8.16-1.18-12.58-4.07-12.58-5.82s4-4.42,11.62-5.71a161.15,161.15,0,0,1,21.11-1.73C362.94,146.93,349.3,153.63,365.47,159Z"/><path class="cls-9" d="M406.36,152.22c0,4.88-9.59,9.94-34.15,9.9-26.12,0-33.42-5-33.42-9.9,0-2.44,9.73-7,33.91-7C395.36,145.18,406.36,149.78,406.36,152.22Z"/><path class="cls-10" d="M337.18,180.83s3.48,7,35.06,7.45c32.58.44,35.83-7.45,35.83-7.45"/><path class="cls-10" d="M337.21,250.44s3.48,7,35.06,7.45c32.58.44,35.83-7.45,35.83-7.45"/><path class="cls-10" d="M337.21,277.58s3.48,7,35.06,7.45c32.58.44,35.83-7.45,35.83-7.45"/><ellipse class="cls-2" cx="447.26" cy="156.93" rx="32.73" ry="7.44"/><path class="cls-2" d="M480,281s.11,8.46-33.56,8.59c-31.88.12-31.9-8.59-31.9-8.59V160.19s.36,7.59,31.9,7.51c34.68-.09,33.56-7.51,33.56-7.51Z"/><g class="cls-29"><g class="cls-29"><path class="cls-4" d="M444.29,218.31l-8.08-14a22.29,22.29,0,0,0-11.15,19.32H441.2a6.16,6.16,0,0,1,3.09-5.32"/><path class="cls-4" d="M453.53,223.63h16.13a22.29,22.29,0,0,0-11.15-19.31l-8.08,14a6.16,6.16,0,0,1,3.1,5.32"/><path class="cls-4" d="M447.36,229.82a6.13,6.13,0,0,1-3.1-.84l-8.06,14a22.32,22.32,0,0,0,22.3,0l-8.06-14a6.13,6.13,0,0,1-3.08.83"/><path class="cls-4" d="M451.39,223.65a4,4,0,1,1-4-4,4,4,0,0,1,4,4"/></g></g><path class="cls-5" d="M480,281s.11,8.46-33.56,8.59V167.7c34.68-.09,33.56-7.51,33.56-7.51Z"/><path class="cls-5" d="M440.22,164.1c.61.2-3.68,0-13.11-1.35-8.16-1.18-12.58-4.07-12.58-5.82s4-4.42,11.62-5.71a161.15,161.15,0,0,1,21.11-1.73C437.69,152.06,424.05,158.76,440.22,164.1Z"/><path class="cls-14" d="M481.11,157.35c0,4.88-9.59,9.94-34.15,9.9-26.12,0-33.42-5-33.42-9.9,0-2.44,9.73-7,33.91-7C470.11,150.31,481.11,154.91,481.11,157.35Z"/><path class="cls-7" d="M411.93,186s3.48,7,35.06,7.45c32.58.44,35.83-7.45,35.83-7.45"/><path class="cls-7" d="M412,255.57s3.48,7,35.06,7.45c32.58.44,35.83-7.45,35.83-7.45"/><path class="cls-7" d="M412,282.71s3.48,7,35.06,7.45c32.58.44,35.83-7.45,35.83-7.45"/><ellipse class="cls-2" cx="343.19" cy="171.59" rx="32.73" ry="7.44"/><path class="cls-2" d="M375.92,295.7s.11,8.46-33.56,8.59c-31.88.12-31.9-8.59-31.9-8.59V174.85s.36,7.59,31.9,7.51c34.68-.09,33.56-7.51,33.56-7.51Z"/><g class="cls-30"><g class="cls-30"><path class="cls-4" d="M340.22,233l-8.08-14A22.29,22.29,0,0,0,321,238.29h16.15a6.16,6.16,0,0,1,3.09-5.32"/><path class="cls-4" d="M349.46,238.29h16.13A22.29,22.29,0,0,0,354.44,219l-8.08,14a6.16,6.16,0,0,1,3.1,5.32"/><path class="cls-4" d="M343.3,244.47a6.13,6.13,0,0,1-3.1-.84l-8.06,14a22.32,22.32,0,0,0,22.3,0l-8.06-14a6.13,6.13,0,0,1-3.08.83"/><path class="cls-4" d="M347.33,238.31a4,4,0,1,1-4-4,4,4,0,0,1,4,4"/></g></g><path class="cls-5" d="M375.92,295.7s.11,8.46-33.56,8.59V182.35c34.68-.09,33.56-7.51,33.56-7.51Z"/><path class="cls-5" d="M336.15,178.76c.61.2-3.68,0-13.11-1.35-8.16-1.18-12.58-4.07-12.58-5.82s4-4.42,11.62-5.71a161.15,161.15,0,0,1,21.11-1.73C333.62,166.72,320,173.41,336.15,178.76Z"/><path class="cls-14" d="M377,172c0,4.88-9.59,9.94-34.15,9.9-26.12,0-33.42-5-33.42-9.9,0-2.44,9.73-7,33.91-7C366,165,377,169.56,377,172Z"/><path class="cls-7" d="M307.87,200.62s3.48,7,35.06,7.45c32.58.44,35.83-7.45,35.83-7.45"/><path class="cls-7" d="M307.89,270.23s3.48,7,35.06,7.45c32.58.44,35.83-7.45,35.83-7.45"/><path class="cls-7" d="M307.89,297.36s3.48,7,35.06,7.45c32.58.44,35.83-7.45,35.83-7.45"/><ellipse class="cls-2" cx="418.67" cy="176.72" rx="32.73" ry="7.44"/><path class="cls-2" d="M451.4,300.83s.11,8.46-33.56,8.59c-31.88.12-31.9-8.59-31.9-8.59V180s.36,7.59,31.9,7.51c34.68-.09,33.56-7.51,33.56-7.51Z"/><g class="cls-31"><g class="cls-31"><path class="cls-4" d="M415.71,238.1l-8.08-14a22.29,22.29,0,0,0-11.15,19.32h16.15a6.16,6.16,0,0,1,3.09-5.32"/><path class="cls-4" d="M424.95,243.42h16.13a22.29,22.29,0,0,0-11.15-19.31l-8.08,14a6.16,6.16,0,0,1,3.1,5.32"/><path class="cls-4" d="M418.78,249.6a6.13,6.13,0,0,1-3.1-.84l-8.06,14a22.32,22.32,0,0,0,22.3,0l-8.06-14a6.13,6.13,0,0,1-3.08.83"/><path class="cls-4" d="M422.81,243.44a4,4,0,1,1-4-4,4,4,0,0,1,4,4"/></g></g><path class="cls-5" d="M451.4,300.83s.11,8.46-33.56,8.59V187.48c34.68-.09,33.56-7.51,33.56-7.51Z"/><path class="cls-5" d="M411.64,183.89c.61.2-3.68,0-13.11-1.35-8.16-1.18-12.58-4.07-12.58-5.82s4-4.42,11.62-5.71a161.15,161.15,0,0,1,21.11-1.73C409.11,171.85,395.47,178.54,411.64,183.89Z"/><path class="cls-14" d="M452.53,177.14c0,4.88-9.59,9.94-34.15,9.9-26.12,0-33.42-5-33.42-9.9,0-2.44,9.73-7,33.91-7C441.53,170.1,452.53,174.69,452.53,177.14Z"/><path class="cls-7" d="M383.35,205.75s3.48,7,35.06,7.45c32.58.44,35.83-7.45,35.83-7.45"/><path class="cls-7" d="M383.38,275.36s3.48,7,35.06,7.45c32.58.44,35.83-7.45,35.83-7.45"/><path class="cls-7" d="M383.38,302.49s3.48,7,35.06,7.45c32.58.44,35.83-7.45,35.83-7.45"/><ellipse class="cls-2" cx="356.38" cy="195.77" rx="32.73" ry="7.44"/><path class="cls-2" d="M389.11,319.89s.11,8.46-33.56,8.59c-31.88.12-31.9-8.59-31.9-8.59V199s.36,7.59,31.9,7.51c34.68-.09,33.56-7.51,33.56-7.51Z"/><g class="cls-32"><g class="cls-32"><path class="cls-4" d="M353.41,257.16l-8.08-14a22.29,22.29,0,0,0-11.15,19.32h16.15a6.16,6.16,0,0,1,3.09-5.32"/><path class="cls-4" d="M362.65,262.47h16.13a22.29,22.29,0,0,0-11.15-19.31l-8.08,14a6.16,6.16,0,0,1,3.1,5.32"/><path class="cls-4" d="M356.49,268.66a6.13,6.13,0,0,1-3.1-.84l-8.06,14a22.32,22.32,0,0,0,22.3,0l-8.06-14a6.13,6.13,0,0,1-3.08.83"/><path class="cls-4" d="M360.52,262.5a4,4,0,1,1-4-4,4,4,0,0,1,4,4"/></g></g><path class="cls-5" d="M389.11,319.89s.11,8.46-33.56,8.59V206.54c34.68-.09,33.56-7.51,33.56-7.51Z"/><path class="cls-5" d="M349.34,202.94c.61.2-3.68,0-13.11-1.35-8.16-1.18-12.58-4.07-12.58-5.82s4-4.42,11.62-5.71a161.15,161.15,0,0,1,21.11-1.73C346.81,190.9,333.18,197.6,349.34,202.94Z"/><path class="cls-14" d="M390.24,196.19c0,4.88-9.59,9.94-34.15,9.9-26.12,0-33.42-5-33.42-9.9,0-2.44,9.73-7,33.91-7C379.23,189.15,390.24,193.75,390.24,196.19Z"/><path class="cls-7" d="M321.06,224.8s3.48,7,35.06,7.45c32.58.44,35.83-7.45,35.83-7.45"/><path class="cls-7" d="M321.08,294.41s3.48,7,35.06,7.45c32.58.44,35.83-7.45,35.83-7.45"/><path class="cls-7" d="M321.08,321.55s3.48,7,35.06,7.45c32.58.44,35.83-7.45,35.83-7.45"/><ellipse class="cls-2" cx="408.41" cy="30.15" rx="32.73" ry="7.44"/><path class="cls-2" d="M441.14,154.26s.11,8.46-33.56,8.59c-31.88.12-31.9-8.59-31.9-8.59V33.41s.36,7.59,31.9,7.51c34.68-.09,33.56-7.51,33.56-7.51Z"/><g class="cls-33"><g class="cls-33"><path class="cls-4" d="M405.45,91.53l-8.08-14a22.29,22.29,0,0,0-11.15,19.32h16.15a6.16,6.16,0,0,1,3.09-5.32"/><path class="cls-4" d="M414.69,96.85h16.13a22.29,22.29,0,0,0-11.15-19.31l-8.08,14a6.16,6.16,0,0,1,3.1,5.32"/><path class="cls-4" d="M408.52,103a6.13,6.13,0,0,1-3.1-.84l-8.06,14a22.32,22.32,0,0,0,22.3,0l-8.06-14a6.13,6.13,0,0,1-3.08.83"/><path class="cls-4" d="M412.55,96.87a4,4,0,1,1-4-4,4,4,0,0,1,4,4"/></g></g><path class="cls-5" d="M441.14,154.26s.11,8.46-33.56,8.59V40.91c34.68-.09,33.56-7.51,33.56-7.51Z"/><path class="cls-6" d="M442.27,30.57c0,4.88-9.59,9.94-34.15,9.9-26.12,0-33.42-5-33.42-9.9,0-2.44,9.73-7,33.91-7C431.27,23.53,442.27,28.12,442.27,30.57Z"/><path class="cls-7" d="M373.09,59.18s3.48,7,35.06,7.45c32.58.44,35.83-7.45,35.83-7.45"/><path class="cls-7" d="M373.12,128.79s3.48,7,35.06,7.45c32.58.44,35.83-7.45,35.83-7.45"/><path class="cls-7" d="M373.12,155.92s3.48,7,35.06,7.45c32.58.44,35.83-7.45,35.83-7.45"/><path class="cls-5" d="M401.38,37.32c.61.2-3.68,0-13.11-1.35-8.16-1.18-12.58-4.07-12.58-5.82s4-4.42,11.62-5.71a161.15,161.15,0,0,1,21.11-1.73C398.85,25.28,385.21,32,401.38,37.32Z"/><ellipse class="cls-2" cx="359.4" cy="41.96" rx="32.73" ry="7.44"/><path class="cls-2" d="M392.13,166.08s.11,8.46-33.56,8.59c-31.88.12-31.9-8.59-31.9-8.59V45.22s.36,7.59,31.9,7.51c34.68-.09,33.56-7.51,33.56-7.51Z"/><g class="cls-34"><g class="cls-34"><path class="cls-4" d="M356.44,103.35l-8.08-14a22.29,22.29,0,0,0-11.15,19.32h16.15a6.16,6.16,0,0,1,3.09-5.32"/><path class="cls-4" d="M365.68,108.66H381.8a22.29,22.29,0,0,0-11.15-19.31l-8.08,14a6.16,6.16,0,0,1,3.1,5.32"/><path class="cls-4" d="M359.51,114.85a6.13,6.13,0,0,1-3.1-.84l-8.06,14a22.32,22.32,0,0,0,22.3,0l-8.06-14a6.13,6.13,0,0,1-3.08.83"/><path class="cls-4" d="M363.54,108.69a4,4,0,1,1-4-4,4,4,0,0,1,4,4"/></g></g><path class="cls-5" d="M392.13,166.08s.11,8.46-33.56,8.59V52.73c34.68-.09,33.56-7.51,33.56-7.51Z"/><path class="cls-14" d="M393.26,42.38c0,4.88-9.59,9.94-34.15,9.9-26.12,0-33.42-5-33.42-9.9,0-2.44,9.73-7,33.91-7C382.26,35.34,393.26,39.94,393.26,42.38Z"/><path class="cls-7" d="M324.08,71s3.48,7,35.06,7.45C391.72,78.88,395,71,395,71"/><path class="cls-7" d="M324.11,140.6s3.48,7,35.06,7.45c32.58.44,35.83-7.45,35.83-7.45"/><path class="cls-7" d="M324.11,167.74s3.48,7,35.06,7.45c32.58.44,35.83-7.45,35.83-7.45"/><path class="cls-5" d="M352.37,49.14c.61.2-3.68,0-13.11-1.35-8.16-1.18-12.58-4.07-12.58-5.82s4-4.42,11.62-5.71a161.15,161.15,0,0,1,21.11-1.73C349.84,37.09,336.2,43.79,352.37,49.14Z"/><ellipse class="cls-2" cx="431.22" cy="47.83" rx="32.73" ry="7.44"/><path class="cls-2" d="M464,171.94s.11,8.46-33.56,8.59c-31.88.12-31.9-8.59-31.9-8.59V51.08s.36,7.59,31.9,7.51C465.07,58.5,464,51.08,464,51.08Z"/><g class="cls-35"><g class="cls-35"><path class="cls-4" d="M428.25,109.21l-8.08-14A22.29,22.29,0,0,0,409,114.52h16.15a6.16,6.16,0,0,1,3.09-5.32"/><path class="cls-4" d="M437.49,114.52h16.13a22.29,22.29,0,0,0-11.15-19.31l-8.08,14a6.16,6.16,0,0,1,3.1,5.32"/><path class="cls-4" d="M431.33,120.71a6.13,6.13,0,0,1-3.1-.84l-8.06,14a22.32,22.32,0,0,0,22.3,0l-8.06-14a6.13,6.13,0,0,1-3.08.83"/><path class="cls-4" d="M435.36,114.55a4,4,0,1,1-4-4,4,4,0,0,1,4,4"/></g></g><path class="cls-5" d="M464,171.94s.11,8.46-33.56,8.59V58.59C465.07,58.5,464,51.08,464,51.08Z"/><path class="cls-14" d="M465.08,48.25c0,4.88-9.59,9.94-34.15,9.9-26.12,0-33.42-5-33.42-9.9,0-2.44,9.73-7,33.91-7C454.07,41.21,465.08,45.8,465.08,48.25Z"/><path class="cls-7" d="M395.9,76.85s3.48,7,35.06,7.45c32.58.44,35.83-7.45,35.83-7.45"/><path class="cls-7" d="M395.92,146.47s3.48,7,35.06,7.45c32.58.44,35.83-7.45,35.83-7.45"/><path class="cls-7" d="M395.92,173.6s3.48,7,35.06,7.45c32.58.44,35.83-7.45,35.83-7.45"/><path class="cls-5" d="M424.18,55c.61.2-3.68,0-13.11-1.35-8.16-1.18-12.58-4.07-12.58-5.82s4-4.42,11.62-5.71a161.15,161.15,0,0,1,21.11-1.73C421.66,43,408,49.65,424.18,55Z"/><ellipse class="cls-2" cx="360.14" cy="64.68" rx="32.73" ry="7.44"/><path class="cls-2" d="M392.87,188.79s.11,8.46-33.56,8.59c-31.88.12-31.9-8.59-31.9-8.59V67.94s.36,7.59,31.9,7.51c34.68-.09,33.56-7.51,33.56-7.51Z"/><g class="cls-36"><g class="cls-36"><path class="cls-4" d="M357.17,126.06l-8.08-14a22.29,22.29,0,0,0-11.15,19.32h16.15a6.16,6.16,0,0,1,3.09-5.32"/><path class="cls-4" d="M366.41,131.38h16.13a22.29,22.29,0,0,0-11.15-19.31l-8.08,14a6.16,6.16,0,0,1,3.1,5.32"/><path class="cls-4" d="M360.25,137.57a6.13,6.13,0,0,1-3.1-.84l-8.06,14a22.32,22.32,0,0,0,22.3,0l-8.06-14a6.13,6.13,0,0,1-3.08.83"/><path class="cls-4" d="M364.27,131.4a4,4,0,1,1-4-4,4,4,0,0,1,4,4"/></g></g><path class="cls-5" d="M392.87,188.79s.11,8.46-33.56,8.59V75.45c34.68-.09,33.56-7.51,33.56-7.51Z"/><path class="cls-14" d="M394,65.1C394,70,384.4,75,359.84,75c-26.12,0-33.42-5-33.42-9.9,0-2.44,9.73-7,33.91-7C383,58.06,394,62.65,394,65.1Z"/><path class="cls-7" d="M324.82,93.71s3.48,7,35.06,7.45c32.58.44,35.83-7.45,35.83-7.45"/><path class="cls-7" d="M324.84,163.32s3.48,7,35.06,7.45c32.58.44,35.83-7.45,35.83-7.45"/><path class="cls-7" d="M324.84,190.46s3.48,7,35.06,7.45c32.58.44,35.83-7.45,35.83-7.45"/><path class="cls-5" d="M353.1,71.85c.61.2-3.68,0-13.11-1.35-8.16-1.18-12.58-4.07-12.58-5.82s4-4.42,11.62-5.71a161.15,161.15,0,0,1,21.11-1.73C350.57,59.81,336.94,66.5,353.1,71.85Z"/><text class="cls-37" transform="translate(44.81 627.9)">hochradioaktive Abfälle<tspan x="0" y="14.4">= 99% Strahlung</tspan></text><text class="cls-37" transform="translate(352.71 627.9)">schwach-, mittelradioaktive Abfälle<tspan x="0" y="14.4">= 1% Strahlung</tspan></text><polyline class="cls-38" points="39.31 624.19 27.96 624.19 27.96 570.02"/><polyline class="cls-38" points="346.7 624.19 335.36 624.19 335.36 570.02"/></svg>