<svg version="1.1" xmlns="http://www.w3.org/2000/svg" xmlns:xlink="http://www.w3.org/1999/xlink"
     preserveAspectRatio="xMidYMid meet" viewBox="0 -15 591.504 800.504" width="591.504" height="800.504">
    <g class="area-layer clay">
        <path d="M174.19 720.03L177.03 721.44L177.03 727.11L169.95 727.11L171.36 724.27L174.19 720.03Z"
              id="a9u3Cl5zA"/>
        <path d="M185.52 718.61L191.18 701.62L198.26 693.13L203.93 701.62L198.26 705.87L194.01 714.36L189.77 714.36L189.77 720.03L186.94 720.03L185.52 718.61Z"
              id="a2xDLhAyMa"/>
        <path d="M239.32 652.07L256.31 647.82L269.05 640.74L276.13 639.33L286.04 630.83L288.87 622.34L294.54 618.09L304.45 616.67L304.45 622.34L290.29 649.24L286.04 663.39L273.3 673.3L269.05 673.3L266.22 677.55L253.48 683.22L246.4 683.22L246.4 678.97L240.74 674.72L239.32 652.07Z"
              id="c4FarBZH18"/>
        <path d="M63.05 326.43L70.13 308.03L75.79 310.86L71.55 316.52L68.71 316.52L68.71 332.09L63.05 326.43Z"
              id="a236yFK6Ln"/>
        <path d="M249.23 293.87L250.65 288.2L256.31 288.2L259.14 293.87L263.39 295.28L264.81 299.53L274.72 305.19L274.72 309.44L269.05 308.03L269.05 305.19L256.31 292.45L253.48 292.45L253.48 295.28L256.31 295.28L254.9 302.36L249.23 293.87Z"
              id="ccXzdkQRm"/>
        <path d="M261.97 288.2L274.72 292.45L274.72 296.7L280.38 305.19L266.22 296.7L261.97 289.62L261.97 288.2Z"
              id="a3ist1iMoB"/>
        <path d="M291.71 292.45L288.87 289.62L291.71 285.37L298.79 285.37L305.86 298.11L301.62 298.11L300.2 293.87L294.54 291.04L291.71 292.45Z"
              id="ajRL2UkYG"/>
        <path d="M212.9 196.18L218.56 196.18L228.47 201.84L234.13 207.5L234.13 211.75L232.72 213.17L217.14 199.01L212.9 197.59L212.9 196.18Z"
              id="am0ELpCnv"/>
        <path d="M322.85 206.09L320.02 208.92L328.52 213.17L322.85 206.09L320.02 207.5L322.85 206.09Z"
              id="bylE4kjdy"/>
        <path d="M368.16 199.01L368.16 201.84L361.08 203.26L359.67 213.17L385.15 231.57L389.4 235.82L387.98 237.24L380.9 235.82L379.49 232.99L375.24 234.4L373.82 227.32L362.5 218.83L358.25 220.25L356.83 217.41L355.42 221.66L351.17 223.08L346.92 217.41L344.09 217.41L342.68 213.17L345.51 211.75L346.92 206.09L349.76 206.09L349.76 201.84L354 200.42L354 203.26L358.25 200.42L368.16 199.01Z"
              id="c2tFmrnD7t"/>
        <path d="M393.65 97.74L393.65 107.65L386.57 113.32L370.99 109.07L368.16 111.9L370.99 117.56L385.15 118.98L385.15 123.23L392.23 131.72L406.39 131.72L403.56 140.22L397.89 141.63L392.23 147.3L387.98 147.3L380.9 143.05L383.73 131.72L382.32 130.31L365.33 127.47L359.67 116.15L348.34 116.15L338.43 120.39L332.77 131.72L329.93 133.14L325.69 128.89L324.27 121.81L345.51 101.99L354 106.24L355.42 111.9L358.25 113.32L358.25 104.82L365.33 101.99L366.75 94.91L387.98 99.16L393.65 97.74ZM385.15 141.63L387.98 143.05L389.4 138.8L385.15 138.8L385.15 141.63Z"
              id="bewRnLghZ"/>
        <path d="M369.58 157.95L373.82 157.95L378.07 152.29L383.73 152.29L395.06 159.37L396.48 169.28L390.81 169.28L390.81 174.94L386.57 174.94L387.98 167.86L390.81 166.44L387.98 163.61L383.73 167.86L382.32 179.19L379.49 182.02L380.9 186.27L386.57 182.02L390.81 182.02L390.81 179.19L403.56 183.43L403.56 187.68L400.72 190.51L392.23 193.34L399.31 199.01L397.89 206.09L386.57 203.26L383.73 206.09L387.98 213.17L383.73 214.58L386.57 223.08L385.15 224.49L378.07 223.08L378.07 218.83L382.32 216L368.16 211.75L368.16 208.92L375.24 206.09L370.99 196.18L370.99 182.02L378.07 173.52L376.66 169.28L373.82 167.86L366.75 174.94L362.5 174.94L368.16 163.61L362.5 157.95L363.91 153.7L369.58 157.95Z"
              id="faaNN1tow9"/>
        <path d="M421.96 163.61L416.3 170.69L416.3 177.77L423.38 184.85L429.04 186.27L430.46 182.02L424.79 172.11L423.38 163.61L421.96 163.61Z"
              id="d6A9BZOr71"/>
        <path d="M413.47 228.74L416.3 235.82L414.88 242.9L402.14 242.9L396.48 240.07L395.06 232.99L406.39 227.32L413.47 228.74Z"
              id="b2MUgtRNm5"/>
        <path d="M424.79 237.24L427.63 242.9L424.79 242.9L421.96 240.07L423.38 238.65L424.79 237.24Z"
              id="f1NcG4JkX9"/>
        <path d="M430.46 248.56L443.2 252.81L441.78 257.06L436.12 259.89L430.46 254.22L430.46 251.39L430.46 248.56Z"
              id="a6bCHZgEw"/>
        <path d="M454.53 248.56L465.85 245.73L480.01 251.39L478.6 254.22L471.52 254.22L455.94 252.81L454.53 249.98L454.53 248.56Z"
              id="d99FiHlBl"/>
        <path d="M457.36 268.38L450.28 285.37L451.69 295.28L443.2 300.95L429.04 293.87L436.12 292.45L437.54 288.2L447.45 288.2L447.45 285.37L431.87 274.05L429.04 266.97L450.28 264.14L455.94 265.55L457.36 268.38ZM444.62 269.8L436.12 268.38L437.54 271.21L444.62 269.8Z"
              id="d3OkaccpwD"/>
        <path d="M132.06 197.59L134.89 200.42L139.14 200.42L140.55 206.09L151.88 210.33L157.54 216L166.04 216L167.45 213.17L174.53 214.58L174.53 217.41L178.78 216L178.78 213.17L173.12 210.33L175.95 204.67L178.78 204.67L183.03 213.17L191.52 214.58L200.02 221.66L200.02 218.83L202.85 217.41L197.19 214.58L201.43 211.75L219.84 214.58L221.26 218.83L225.5 220.25L225.5 216L245.32 220.25L248.16 214.58L246.74 207.5L262.31 206.09L262.31 208.92L269.39 210.33L270.81 213.17L269.39 216L266.56 216L262.31 210.33L258.07 211.75L258.07 218.83L260.9 223.08L259.48 225.91L263.73 227.32L263.73 218.83L269.39 218.83L269.39 221.66L276.47 227.32L280.72 234.4L284.97 237.24L287.8 235.82L287.8 241.48L297.71 244.31L300.54 248.56L300.54 235.82L304.79 231.57L320.36 224.49L321.78 221.66L324.61 223.08L324.61 238.65L328.86 228.74L326.03 220.25L330.27 220.25L333.11 216L338.77 217.41L343.02 221.66L347.26 221.66L348.68 225.91L340.18 235.82L340.18 228.74L337.35 231.57L333.11 242.9L335.94 244.31L337.35 248.56L334.52 251.39L331.69 249.98L333.11 257.06L326.03 268.38L335.94 276.88L334.52 278.29L326.03 275.46L321.78 262.72L317.53 262.72L317.53 265.55L321.78 265.55L321.78 279.71L323.19 278.29L335.94 282.54L335.94 285.37L340.18 286.79L337.35 288.2L330.27 285.37L330.27 282.54L326.03 282.54L321.78 283.96L321.78 289.62L318.95 285.37L316.12 285.37L317.53 289.62L313.28 293.87L304.79 278.29L306.2 271.21L300.54 274.05L300.54 279.71L292.05 279.71L290.63 283.96L282.14 282.54L276.47 269.8L282.14 258.47L280.72 254.22L283.55 255.64L283.55 248.56L280.72 248.56L277.89 254.22L275.06 266.97L269.39 271.21L260.9 268.38L255.24 269.8L258.07 276.88L249.57 276.88L234 275.46L231.17 272.63L201.43 265.55L190.11 265.55L184.44 268.38L178.78 266.97L174.53 262.72L161.79 257.06L147.63 254.22L144.8 255.64L139.14 252.81L133.47 242.9L124.98 240.07L123.56 242.9L134.89 254.22L137.72 261.3L134.89 262.72L126.4 257.06L120.73 259.89L120.73 262.72L136.31 268.38L141.97 272.63L154.71 272.63L156.13 275.46L160.38 276.88L158.96 283.96L150.46 283.96L150.46 278.29L123.56 268.38L109.41 269.8L99.49 274.05L89.58 272.63L89.58 288.2L86.75 292.45L72.59 298.11L78.26 274.05L81.09 272.63L81.09 264.14L85.34 257.06L76.84 247.15L65.52 247.15L64.1 244.31L74.01 240.07L74.01 235.82L78.26 232.99L85.34 234.4L89.58 231.57L89.58 228.74L82.5 228.74L82.5 221.66L85.34 220.25L96.66 223.08L100.91 216L96.66 210.33L98.08 206.09L93.83 204.67L100.91 201.84L103.74 196.18L123.56 199.01L132.06 197.59ZM109.41 217.41L113.65 224.49L112.24 228.74L105.16 231.57L103.74 240.07L95.25 240.07L93.83 238.65L98.08 237.24L96.66 234.4L86.75 237.24L91 238.65L92.42 241.48L105.16 254.22L96.66 257.06L98.08 261.3L102.33 262.72L107.99 261.3L105.16 258.47L110.82 258.47L115.07 261.3L116.48 259.89L113.65 247.15L110.82 244.31L112.24 241.48L120.73 244.31L117.9 234.4L124.98 232.99L140.55 242.9L144.8 242.9L153.3 249.98L160.38 251.39L160.38 254.22L171.7 259.89L185.86 259.89L183.03 258.47L183.03 255.64L185.86 254.22L190.11 259.89L224.09 269.8L229.75 266.97L225.5 265.55L222.67 261.3L204.27 261.3L198.6 258.47L194.35 249.98L208.51 255.64L209.93 252.81L229.75 252.81L232.58 257.06L231.17 258.47L234 259.89L241.08 251.39L243.91 251.39L246.74 257.06L252.4 257.06L248.16 252.81L249.57 251.39L242.49 245.73L243.91 240.07L252.4 241.48L250.99 242.9L255.24 247.15L263.73 249.98L265.15 247.15L263.73 240.07L252.4 240.07L252.4 232.99L245.32 230.16L234 231.57L232.58 225.91L225.5 224.49L228.33 237.24L217.01 237.24L212.76 234.4L207.1 235.82L211.34 237.24L209.93 240.07L205.68 240.07L197.19 237.24L197.19 240.07L192.94 240.07L188.69 244.31L188.69 249.98L175.95 251.39L171.7 249.98L168.87 244.31L164.62 242.9L161.79 247.15L157.54 247.15L161.79 238.65L154.71 238.65L150.46 235.82L150.46 232.99L146.22 232.99L136.31 216L127.81 213.17L110.82 213.17L109.41 217.41ZM307.62 266.97L311.87 254.22L310.45 248.56L306.2 255.64L307.62 266.97ZM256.65 257.06L259.48 265.55L262.31 265.55L262.31 252.81L256.65 254.22L256.65 257.06ZM297.71 265.55L299.13 257.06L296.29 254.22L296.29 255.64L297.71 265.55ZM318.95 254.22L317.53 258.47L321.78 259.89L324.61 264.14L328.86 255.64L327.44 249.98L326.03 254.22L318.95 254.22ZM313.28 240.07L313.28 245.73L320.36 240.07L320.36 235.82L318.95 235.82L313.28 240.07ZM171.7 241.48L170.29 237.24L170.29 240.07L171.7 241.48ZM103.74 207.5L107.99 208.92L116.48 204.67L117.9 200.42L110.82 200.42L103.74 207.5Z"
              id="b1P8yPMDeD"/>
    </g>
</svg>