<svg version="1.1" xmlns="http://www.w3.org/2000/svg" xmlns:xlink="http://www.w3.org/1999/xlink"
	 preserveAspectRatio="xMidYMid meet" viewBox="0 0 591.504 800.504" width="591.504" height="800.504">
<g class="area-layer rocksalt">
	<path id="abpxM354" d="M246.4,442l18.4-4.2l22.6-25.5v-7.1l18.4-19.8l17-1.4l9.9,4.2l12.7,11.3l31.1,19.8l-1.4,9.9l-17,19.8h-14.2
		l-21.2-7.1l-18.4-11.3l-5.7,5.7l1.4,12.7l-4.2,4.2l-11.3-2.8l-11.3,11.3v7.1l-4.2,4.2l-21.2-4.2l-7.1-8.5l-1.4-11.3L246.4,442z"/>
	<path id="e1UlhkZxX6" d="M335.1,236.7l14.2-7.1l17-1.4l7.1,7.1l11.3,2.8l8.5,9.9l2.8,14.2l-8.5,8.5l-17,1.4l-8.5-4.2l-18.4-21.2
		L335.1,236.7z"/>
	<path id="aq5psRNt" d="M30.5,320.2l7.1,6.2l2-3.4l19.2,1.4l12.8,26.9l4.2,22.6l-11.3,12.8l-26.9-2.8l-4.2-7.1l-2.8-11.3l-11.3-14.2
		L14.9,340v-8.5L30.5,320.2z"/>
	<path id="a2kqcyjoJJ" d="M86.2,269.2l-4.7-7.9l-8.6,3.7l-12.6-4.2l2.8-16.4l6.4-2l12,3.5l2.2-12.7l2.5-8.5l7.3-10.8l1-20.5
		l65.4-21.9l5.2-10l-5.2-3.8v-6.4l5.2-2.6l10.4,6.4l36.2,48.3l7.1,22.6l4.2,51l-5.7,8.5l-77.9-11.3L86.2,269.2z"/>
	<path id="g1J4cYRe1k" d="M83.7,153.8h5.3h5.6l-5.6-5l9.8-10l17,0.7l30.5-3.3v9.2h4.9l3.9,9.8l-5.9,6.3l5.7,5.1l9.3,2.2v-10.9
		l-4.1-2.7v-6.4l4.1-1.7l14,8.1l-6-13.5l9.3-21.9h4.1l9.2,6.5h11.7l-11.7-21.1l11.7-2.3l-5.5-7.9l-6.2-1.8l4.9-12.2l15.2,7.5
		l32.4,19.5l29.7,25.5l4.2,35.4l-22.6,25.5l-69.4,7.1L83.7,173.3V153.8z"/>
</g>
</svg>
