<svg version="1.1" xmlns="http://www.w3.org/2000/svg" xmlns:xlink="http://www.w3.org/1999/xlink"
     preserveAspectRatio="xMidYMid meet" viewBox="0 -15 591.504 800.504" width="591.504" height="800.504">
    <g class="area-layer rocksalt-keuper">
        <path d="M83.65 138.78L88.94 138.78L94.51 138.78L88.94 133.74L98.78 123.72L115.81 124.43L146.3 121.1L146.3 130.34L151.22 130.34L155.12 140.1L149.21 146.45L154.93 151.56L164.2 153.72L164.2 142.8L160.13 140.1L160.13 133.74L164.2 132.01L178.18 140.1L172.19 126.64L181.45 104.76L185.52 104.76L194.72 111.24L206.39 111.24L194.72 90.15L206.39 87.8L200.89 79.93L194.72 78.09L199.6 65.91L214.84 73.37L247.29 92.84L277.02 118.32L281.27 153.72L258.62 179.2L189.24 186.28L83.65 158.33L83.65 138.78Z"
              id="g1J4cYRe1k"/>
    </g>
</svg>