<svg version="1.1" xmlns="http://www.w3.org/2000/svg" xmlns:xlink="http://www.w3.org/1999/xlink"
     preserveAspectRatio="xMidYMid meet" viewBox="0 -15 591.504 800.504" width="591.504" height="800.504">
    <g class="area-layer granite">
        <path d="M441.78 308.03L446.03 309.44L457.36 320.77L451.69 323.6L441.78 317.94L440.37 309.44L441.78 308.03Z"
              id="a4LN8d6yl4"/>
        <path d="M464.44 313.69L471.52 319.35L474.35 329.26L465.85 332.09L460.19 329.26L463.02 323.6L463.02 320.77L460.19 320.77L461.61 316.52L463.02 317.94L464.44 313.69Z"
              id="c3ZThTS6z"/>
        <path d="M464.44 384.48L474.35 385.9L477.18 388.73L471.52 392.97L468.68 400.05L461.61 402.88L455.94 409.96L446.03 411.38L444.62 407.13L447.45 405.72L457.36 388.73L464.44 384.48Z"
              id="f26vh4nDHO"/>
        <path d="M485.67 391.56L491.34 391.56L492.75 394.39L499.83 397.22L501.25 394.39L509.74 404.3L513.99 404.3L525.32 414.21L521.07 414.21L518.24 421.29L508.33 421.29L501.25 424.12L501.25 428.37L494.17 431.2L494.17 428.37L491.34 429.79L489.92 435.45L485.67 432.62L484.26 419.87L480.01 421.29L474.35 412.8L484.26 392.97L485.67 391.56Z"
              id="a1A5EJ0XFv"/>
        <path d="M545.14 356.16L555.05 364.66L555.05 367.49L559.3 370.32L562.13 367.49L563.54 374.57L569.21 374.57L572.04 371.74L574.87 374.57L580.53 374.57L584.78 380.23L583.37 388.73L581.95 392.97L577.7 392.97L570.62 402.88L567.79 402.88L569.21 400.05L566.38 398.64L566.38 404.3L566.38 397.93L563.54 392.97L556.47 388.73L549.39 392.97L545.14 388.73L542.31 391.56L546.55 398.64L552.22 400.05L550.8 404.3L542.31 405.72L542.31 408.55L535.23 411.38L533.81 408.55L530.98 408.55L529.56 404.3L528.15 405.72L522.49 401.47L512.57 390.14L512.57 384.48L515.41 383.06L512.57 377.4L512.57 368.91L526.73 366.07L535.23 375.98L538.06 374.57L538.06 371.74L530.98 363.24L535.23 363.24L542.31 358.99L545.14 356.16Z"
              id="b1BO4Cbsg"/>
        <path d="M404.26 488.78L395.77 488.78L383.03 493.02L383.03 495.86L388.69 495.86L384.44 498.69L384.44 501.52L391.52 507.18L398.6 505.77L394.35 501.52L400.02 497.27L412.76 494.44L409.93 490.19L409.93 484.53L404.26 488.78Z"
              id="a3Q3vvdBVb"/>
        <path d="M407.8 508.58L400.72 509.99L399.31 514.24L410.64 519.9L416.3 534.06L416.3 542.56L419.13 542.56L420.55 539.72L416.3 524.15L419.13 524.15L423.38 532.65L426.21 531.23L421.96 521.32L421.96 514.24L414.88 514.24L410.64 511.41L407.8 508.58Z"
              id="d5SKyoDQ"/>
        <path d="M491.34 618.09L491.34 628L494.17 630.83L488.51 630.83L484.26 628L484.26 619.5L488.51 618.09L491.34 618.09Z"
              id="bM7BbN4v1"/>
    </g>
</svg>