<svg version="1.1" xmlns="http://www.w3.org/2000/svg" xmlns:xlink="http://www.w3.org/1999/xlink"
     preserveAspectRatio="xMidYMid meet" viewBox="0 -15 591.504 800.504" width="591.504" height="800.504">
    <g class="area-layer rocksalt">
        <path d="M246.4 426.95L264.81 422.71L287.46 397.22L287.46 390.14L305.86 370.32L322.85 368.91L332.77 373.15L345.51 384.48L376.66 404.3L375.24 414.21L358.25 434.03L344.09 434.03L322.85 426.95L304.45 415.63L298.79 421.29L300.2 434.03L295.95 438.28L284.63 435.45L273.3 446.78L273.3 453.85L269.05 458.1L247.82 453.85L240.74 445.36L239.32 434.03L246.4 426.95Z"
              id="abpxM354"/>
        <path d="M335.11 221.66L349.27 214.58L366.26 213.17L373.34 220.25L384.67 223.08L393.16 232.99L395.99 247.15L387.5 255.64L370.51 257.06L362.01 252.81L343.61 231.57L335.11 221.66Z"
              id="e1UlhkZxX6"/>
        <path d="M30.49 305.19L37.57 311.38L39.58 308.03L58.8 309.44L71.55 336.34L75.79 358.99L64.47 371.74L37.57 368.91L33.32 361.83L30.49 350.5L19.16 336.34L14.91 325.02L14.91 316.52L30.49 305.19Z"
              id="aq5psRNt"/>
    </g>
</svg>