<?xml version="1.0" encoding="utf-8"?>
<!-- Generator: Adobe Illustrator 22.0.0, SVG Export Plug-In . SVG Version: 6.00 Build 0)  -->
<svg version="1.1" id="Layer_1" xmlns="http://www.w3.org/2000/svg" xmlns:xlink="http://www.w3.org/1999/xlink" x="0px" y="0px"
	 viewBox="0 0 574.3 554.9" style="enable-background:new 0 0 574.3 554.9;" xml:space="preserve">
<style type="text/css">
	.st0{fill:none;}
	.st1{fill:#444545;}
	.st2{fill:#231F20;stroke:#FFFFFF;stroke-miterlimit:10;}
	.st3{fill:#232323;}
</style>
<title>URLLogo_gelb_url</title>
<path class="st0" d="M527.1,442.4l-10.8,16.3l-7.8,7.2l-8.3,2.9l-13.7,1.4l-5.6,21l-11.7,15l-15.1-4.7l-4.9,4.8l-0.6,5.3l-4,8.1
	l-13.7,1.4v12.1l-14.3,5l-5.6-6.7l-12.2-12.6l1-13.4l-13.2-3.3l-6.7-6.5l-6-5.5l4.5,19l6.2,14.7l-0.2,11l-12.3-1.1l0.7,13.2l-23.1,8
	l-17.3,0.2l-10.3-3.1l-5.7-3.2l-0.9-29.9l-11.7-24.9l3.3-17.2l10.8-13.1l9.7-4.9l-2.1-6.6l3-7.4l-3.6-8.7l3.1-15.6l16.4-9.2l7.5-6.4
	l-10,3.8l-2.9-7l-3.7,6.7l-11.7,1.8l-5.6,5.4l2,10.1l-4.5,1.2l-2.6,2.1l-1.2,7.7c0,0,2.5,5.4,2.2,7.2c-0.3,1.8-7,15.5-7,15.5
	l-3.2,1.7L296,464l-2,10.1l-6.1,6.1l-7.3,1.6l-11.8-1.8l1.1-4.2l-4.9-1.6l-5-2.7l3.4-4.5l-3.2-1.9L248,454.4l0.7-7l-0.5-3.4
	l-5.4-13.7l-8.5,3l-6.1-1.5l-6.3,2.9l-8-1.2l-5.6-5.8l-7.7,2.8L192,423l-4-7.5l-4.3-9.8l-0.5-10.3l-4.9-14.5l8-21.3l-1.9-4.9
	l2.7-5.6l-4.1-0.6l-8.7,8.2l0.1,8.7l-4.2,2.9l-4.9-6.2l0.6-15.7l-5.6-10.8l-3.4,0.5l-5.7-3.2l-5.2,4.2l4.5,7.4l-2.3,4.4l-5.9-0.9
	l8.7,12l3.6,4.7l-5,5.9l-1.5,5.4l-6.9,8.5l-4.5,4.7l-6.4-0.2l-1.7-3.8l-6.9,0.4l4.5,3.4l-1.2,7.7l-8.2,3.5l-7.9,1.1L101,399
	l-5.4-10.7l-6.2-17.6l2.2-9l-5.3,3.1l1.7,11.9l-0.6,8.2v7.5l4.9,10.3l4.1,8.6l5.2,20.1l-0.8,6.5l-3.9,5.2l-1.4,6l-9.6,1.4l-1.9,2.6
	l-3.1,2.2l4.9,6.2l7.1,12.9l-13.5,7.5l-5-3.4l-2.8-1.8c61.9,70.1,156.8,108.6,256.2,94.3c82.1-11.8,155-58.5,200-128.2L527.1,442.4z
	"/>
<path class="st1" d="M79.6,481.9l13.5-7.5L86,461.5l-4.9-6.2l3.1-2.2l1.9-2.6l9.6-1.4l1.4-6l3.9-5.2l0.8-6.5l-5.2-20l-4.1-8.6
	l-5-10.3l0.1-7.5l0.6-8.2l-1.7-11.9l5.3-3.1l-2.2,9l6.2,17.6l5.4,10.7l7.9,2.3l7.9-1.1l8.2-3.5l1.2-7.7l-4.5-3.4l6.9-0.4l1.7,3.8
	l6.4,0.2l4.5-4.7l6.9-8.5l1.5-5.4l4.9-5.9l-3.6-4.7l-8.7-12l5.9,0.9l2.3-4.4l-4.5-7.4l5.2-4.2l5.7,3.2l3.4-0.5l5.6,10.8l-0.6,15.7
	l4.9,6.2l4.2-2.9v-8.7l8.6-8.2l4.1,0.6l-2.7,5.6l1.9,4.9l-8,21.3l4.9,14.5l0.5,10.3l4.3,9.8l4,7.5l8.6,7.4l7.7-2.8l5.6,5.8l8,1.2
	l6.3-2.9l6.1,1.5l8.5-3l5.4,13.7l0.5,3.4l-0.7,7l12.5,10.3l3.2,1.9l-3.4,4.5l5,2.7l4.9,1.6l-1.1,4.2l11.8,1.8l7.3-1.6l6.1-6.1
	l2-10.1l7.7-2.8l3.2-1.6c0,0,6.7-13.7,7-15.5s-2.2-7.2-2.2-7.2l1.2-7.7l2.6-2.1l4.5-1.2l-2-10.1l5.6-5.4l11.7-1.8l3.8-6.8l2.9,7
	l10-3.8l-7.5,6.4l-16.5,9.2l-3.1,15.6l3.6,8.7l-3,7.4l2.1,6.6l-9.7,4.9l-10.8,13.2l-3.3,17.2l11.7,24.9l0.9,29.9l5.7,3.2l10.3,3.1
	l17.3-0.2l23.1-8l-0.7-13.2l12.3,1.1l0.2-11l-6.2-14.7l-4.5-19l6,5.5l6.7,6.5l13.2,3.3l-0.9,13.4l12.2,12.7l5.6,6.7l14.3-5v-12.1
	l13.7-1.4l4-8.1l0.6-5.3l4.9-4.8l15.1,4.7l11.7-15l5.6-21l13.7-1.4l8.2-2.9l7.8-7.2l10.8-16.3l0.8,0.3c37.7-58.2,53-128.1,43-196.7
	C548.3,89.2,402.8-19.6,246,3S-19.6,171.1,3,327.9c7.9,55.2,31.8,106.9,68.7,148.7l2.8,1.8L79.6,481.9z"/>
<path class="st0" d="M516.3,458.7l-8-3.5l-11.5-2.1l-22.2,27.5l-4.8,11.9l-8,3.1l-1.2,4.8l-9.3,0.4l-4.8,5.4l-0.4,3.8l-26,0.9
	l-15.5-9.9l18.1-17.6l-9.8-9.8l-21.5,6.8l-22.4,7l-13.7-3.6l9.6,14.5l4.3,17.2l0.8,5.4l-7.7,4.9l-2.3,9.7l-20.6,0.2l-13.2-7.5
	l-6.1-29.1l2.3-29.4l14.3-11.4l4.2-10l-4.9-7.7l-5.7-13.2l13.2-12.2l14.4,2.6l0.8-7.6l-11.9-4.8l3-5.1l10.2-0.5l14.2,0.8l15.6-2.2
	l-5.8-1v-6.5l4.1-4.3l3.5,5.1l16.5-2.4l37.3-7.3l-56.5-2.2l-21.7,11.6l-10.9,2.5l-2.6-5.2l-4.4-4.1l-10.7,10l2.6,5.2l-0.4,3.8
	l-3.5,1.5l-4.2-3.1l-4.6,0.7l-20.4,14.2l-21.2,34.9l-38.9,2.8l-8-23.2l-26.1-5.6l-19.4-4.7l-6.8-14l-9.3-25.8l23.8-36.2l-18-20.8
	l0.6-15.1l-15.3,4.1l-3.4,15.5l-8.1-11l-3.8-13.5l5-11.1l0.1-5.6l-10.9-4l-40.7,9.6l27.5-4l15.2,1.6l-10.6,10.9l8.8,22.1l-7,16
	l-9.8-3.3l-7.1-3.7l-10.3,6.2l-9.2,7.9l-2,5.9l1.6,4.4l3.8-6.2l4.1-4.3l11.2-6.3l10.8,9.7l4.1,21.9l-12.8,8.4l-11.4-1.2l-3.8-0.4
	l-1.3,3.9l8.5,7.2l-10.5,5.3l-9.8-3.3l-7.1-16.8l-0.4-9.3l2.9-6l-11,1.6l2.1-2.1l1.2-1.2l-6.1-16l-5.9-8.5l-6.2-10.4l-4-21l-0.6,8.5
	l-0.6,8.5l10.6,21.9l5.1,9.6l1.6,4.4l-1.1,2.1l-3.3,6l2.7,31.4l7.9,28.8l-2.3,22.8l-3.9,5.2l-4.4,8.1l2.5,10.9l-2.6,7.9l-0.2,0.2
	c106,117.7,287.4,126.9,405,20.6c13.6-12.3,26-25.8,37-40.5L516.3,458.7z"/>
<polygon class="st1" points="154.6,413.6 161.4,424.7 157,446.2 151.8,458.5 132.3,459.6 129.2,442.1 138.1,419.4 147.6,405.3 "/>
<polygon class="st1" points="113.3,480.2 117.1,486.6 127.9,489.1 140.6,484.9 136.1,474 125.2,470.4 120.5,465.9 115.9,466 
	116,470.6 115.9,470.6 109.3,472.1 "/>
<polygon class="st1" points="184.3,427.2 178.9,430.3 184.5,441.1 189.3,442.1 191.9,435.9 188.7,430 "/>
<polygon class="st1" points="310.1,518.3 301.2,524.8 288.8,527.1 279.1,532 281.1,541.5 291.4,545.2 304.3,542.2 311.4,535.4 
	313.6,526.4 "/>
<polygon class="st1" points="403.6,533.7 398.1,535.6 401.8,540.9 405.5,542.7 408,540 408,535.9 "/>
<polygon class="st1" points="254.3,480.1 249.3,501.6 274.4,511.3 285.1,509.2 285.1,501.1 273,493.6 259.4,479.4 "/>
<polygon class="st1" points="237.4,447.3 235,454.6 244,460.8 244.7,453.2 "/>
<polyline class="st1" points="236.7,466.5 233.2,469.9 238.6,479.5 242.6,474.9 242.1,467.4 236.4,464.2 "/>
<polygon class="st1" points="83.1,252.1 81.2,256.3 87.9,257.9 89.1,253.2 "/>
<polyline class="st1" points="53,258.4 52.5,264.3 54,274.4 58.3,281.6 59.7,287.2 "/>
<path class="st1" d="M57.2,270.1"/>
<polygon class="st1" points="45.1,401.3 49.3,407.8 60.2,406.9 56.4,399 "/>
<polyline class="st1" points="20.7,213.9 12,225.5 19.1,239.3 22,231.8 20.7,227.4 23.7,225.7 23.1,221.9 18.1,214.2 "/>
<polyline class="st1" points="35.4,204 34.2,209.3 38.5,211.9 38.9,205.4 32.8,203.7 "/>
<polygon class="st1" points="511.1,396.2 500.4,398.4 501.3,404.7 506.5,404.6 512.8,403.7 "/>
<polygon class="st1" points="349.6,470 345.2,462.2 341.3,462.1 345.2,471.3 "/>
<polygon class="st1" points="437.6,380.3 450.6,376.4 466.7,375.4 471.1,379.3 456.2,383.4 "/>
<polygon class="st1" points="266.8,425.6 266.1,434.8 276.6,431.3 277.8,426 "/>
<path class="st2" d="M82.4,482.4"/>
<path class="st3" d="M116,470.6"/>
<polygon class="st3" points="148.9,402.3 135.1,406.6 131.5,414 125.8,418.3 123.2,424.5 122.1,436.8 127.3,444.7 128.4,448.6 
	135.3,448.2 151.6,445.2 155.1,433.2 152.9,426 157.4,421.3 156.9,409.8 "/>
<polygon class="st3" points="118.7,477.7 122.2,477.8 126.8,477.7 126.4,474.9 121.7,470.3 116,470.6 113.5,473.3 "/>
<polygon class="st3" points="258.6,473.7 253.3,477.3 250.9,484.6 253.1,491.8 259.4,499 265.9,500.4 274.8,502 274.1,496.9 
	269.4,492.4 269.3,487.8 263.8,481.6 "/>
<polygon class="st3" points="294.1,523.3 287.1,527.2 289.3,530.3 297.9,530.2 303,525.4 308.5,527 310.6,521.5 301.2,520.5 "/>
<polygon class="st3" points="241.7,528.7 230.5,531.5 233,536.3 237.9,538.5 242.1,535.6 245,531.7 "/>
<polygon class="st3" points="230.2,444.9 229.1,449.6 235,454.6 235.4,449.3 "/>
<path class="st3" d="M574.3,0c-0.1,0-0.1,0-0.2,0C557,0.3,12.1-3.4,0,0v308.8c1.2,6.1,2.3,12.3,3.2,18.5
	c8,56.4,32.8,109.2,71.1,151.4l0.2-0.2l2.6-7.9l-2.5-10.9l4.4-8.1l3.9-5.2l2.3-22.8l-7.9-28.8l-2.7-31.4l3.3-6l1.2-2.1l-1.6-4.4
	l-5.1-9.6l-10.6-21.9l0.6-8.5l0.6-8.5l3.9,20.9l6.2,10.3l5.9,8.5l6.1,16l-1.2,1.2l-2.1,2.1l11-1.6l-2.9,6l0.4,9.3l7.1,16.8l9.8,3.3
	l10.5-5.3l-8.5-7.2l1.3-3.9l3.8,0.4l11.4,1.2l12.8-8.4l-4.1-21.9l-10.8-9.7l-11.2,6.3l-4.1,4.3l-3.8,6.2l-1.6-4.4l2-5.9l9.2-7.9
	l10.3-6.2l7.1,3.7l9.8,3.3l7-16l-8.8-22.1l10.6-10.9l-15.2-1.6l-27.4,4l40.7-9.6l10.9,4l-0.1,5.6l-5,11l3.8,13.5l8.1,11l3.4-15.5
	l15.3-4.1l-0.6,15.1l18,20.8l-23.8,36.2l9.3,25.8l6.7,14l19.4,4.7l26.1,5.6l8,23.2l38.9-2.8l21.2-34.9l20.4-14.2l4.6-0.7l4.2,3.1
	l3.5-1.5l0.4-3.8l-2.6-5.2l10.7-10l4.3,4.1l2.6,5.2l10.9-2.5l21.7-11.6l56.5,2.2l-37.3,7.3l-16.4,2.4l-3.5-5.1l-4.1,4.3v6.5l5.8,1
	l-15.6,2.2l-14.2-0.8l-10.2,0.5l-3,5.1l11.9,4.8l-0.8,7.6l-14.4-2.6L330,427.3l5.7,13.2l4.9,7.7l-4.2,10l-14.1,11.7l-2.3,29.4
	l6.1,29.1l13.2,7.5l20.6-0.2l2.3-9.7l7.7-4.9l-0.8-5.5l-4.3-17.2l-9.6-14.5l13.7,3.6l22.4-6.9l21.5-6.8l9.8,9.8l-18.1,17.6l15.5,9.9
	l26.1-1l0.4-3.8l4.8-5.4l9.3-0.4l1.2-4.8l8-3l4.8-11.9l22.2-27.5l11.5,2.1l8,3.5h0.3c12.8-17,52.4-75.5,57.5-134.8L574.3,0z"/>
</svg>
