<svg class="logo" xmlns="http://www.w3.org/2000/svg" viewBox="0 0 622.84 574.45"><defs><style>.logo-1{fill:#fff200;}.logo-2{fill:none;}.logo-3{fill:#444545;}.logo-4{fill:#232323;}.logo-5{fill:#231f20;stroke:#fff;stroke-miterlimit:10;}.logo-6,.logo-7{fill:#fff;}.logo-7{font-size:21px;font-family:CeraBasic-Regular, Cera Basic;}</style></defs><title>URLLogo_gelb_url</title><circle class="logo-1" cx="335.62" cy="287.54" r="286.75"/><path class="logo-2" d="M512.83,487.68l-13,14.6-8.71,6L482.51,510l-13.73-.57-8.58,20-13.73,13.15-14.3-6.86-5.56,4-1.3,5.12-5.15,7.44-13.73-.57-1.72,12-14.87,2.86-4.58-7.44L375,544.87l2.86-13.15-12.58-5.15-5.72-7.44-5.15-6.29,1.72,19.45,4,15.44L358.4,558.6l-12-2.86-1.14,13.15-24,4.58-17.16-2.29-9.72-4.58-5.15-4,3.43-29.74-8-26.31L290.34,490l12.58-11.44,10.29-3.43-1.14-6.86,4-6.86-2.29-9.15,5.31-15,17.56-6.72,8.39-5.3-10.49,2.33-1.91-7.32L328,426.35l-11.89.13-6.29,4.58.57,10.29-4.58.57-2.86,1.72-2.29,7.44s1.72,5.72,1.14,7.44-9.15,14.3-9.15,14.3L289.2,474l-8,1.72-3.43,9.72-6.86,5.15-7.44.57L252,487.68l1.72-4-4.58-2.29L244.59,478l4-4-2.86-2.29-10.88-12,1.73-6.87v-3.43l-3.43-14.3-8.87,1.78-5.83-2.33-6.6,1.94-7.77-2.33-4.68-6.49-8,1.72L184,420.76l-2.86-8-2.86-10.29,1-10.29-2.74-15,10.91-19.94-1.14-5.15,3.43-5.15-4-1.14L176,352.7l-1.14,8.58-4.58,2.29-4-6.86,2.86-15.44-4-11.44h-3.43l-5.15-4-5.72,3.43,3.43,8-2.86,4-5.72-1.72,6.86,13.15,2.86,5.15L149.64,363l-2.29,5.15-8,7.44-5.15,4-6.29-1.14-1.14-4-6.86-.57,4,4-2.29,7.44L113,387.59h-8l-7.44-3.43-3.82-11.4-3.62-18.34,3.43-8.58-5.72,2.29v12l-1.72,8L85,375.58l3.43,10.87,2.86,9.15,2.29,20.59-1.72,6.29-4.58,4.58L85,432.77H75.29L73,435.06l-3.43,1.72,4,6.86,5.15,13.73-14.46,5.49-4.5-4.12-2.53-2.2c51.25,78.21,139.65,129.89,240.14,129.89a286.23,286.23,0,0,0,216.24-98.35Z" transform="translate(38.25 -11.97)"/><path class="logo-3" d="M64.26,462.86l14.46-5.49-5.15-13.73-4-6.86L73,435.06l2.29-2.29H85l2.29-5.72,4.58-4.58,1.72-6.29L91.31,395.6l-2.86-9.15L85,375.58l1.14-7.44,1.72-8v-12l5.72-2.29-3.43,8.58,3.62,18.34,3.82,11.4,7.44,3.43h8l8.58-2.29,2.29-7.44-4-4,6.86.57,1.14,4,6.29,1.14,5.15-4,8-7.44,2.29-5.15,5.72-5.15-2.86-5.15-6.86-13.15,5.72,1.72,2.86-4-3.43-8,5.72-3.43,5.15,4h3.43l4,11.44-2.86,15.44,4,6.86,4.58-2.29L176,352.7l9.72-6.86,4,1.14-3.43,5.15,1.14,5.15-10.91,19.94,2.74,15-1,10.29,2.86,10.29,2.86,8,7.44,8.58,8-1.72,4.68,6.49,7.77,2.33,6.6-1.94,5.83,2.33,8.87-1.78,3.43,14.3v3.43l-1.73,6.87,10.88,12,2.86,2.29-4,4,4.58,3.43,4.58,2.29-1.72,4,11.44,3.43,7.44-.57,6.86-5.15,3.43-9.72,8-1.72,3.43-1.14s8.58-12.58,9.15-14.3-1.14-7.44-1.14-7.44l2.29-7.44,2.86-1.72,4.58-.57-.57-10.29,6.29-4.58,11.89-.13,4.69-6.16,1.91,7.32,10.49-2.33-8.39,5.3L319.1,437.2l-5.31,15,2.29,9.15-4,6.86,1.14,6.86-10.29,3.43L290.34,490l-5.72,16.59,8,26.31L289.2,562.6l5.15,4,9.72,4.58,17.16,2.29,24-4.58,1.14-13.15,12,2.86,1.72-10.87-4-15.44-1.72-19.45,5.15,6.29,5.72,7.44,12.58,5.15L375,544.87l10.29,14.3,4.58,7.44,14.87-2.86,1.72-12,13.73.57,5.15-7.44,1.3-5.12,5.56-4,14.3,6.86,13.73-13.15,8.58-20,13.73.57,8.58-1.72,8.71-6,13-14.6.78.39a285.79,285.79,0,0,0,70.67-188.56c0-158.46-128.45-286.91-286.91-286.91S10.46,141.05,10.46,299.51a285.54,285.54,0,0,0,46.77,157l2.53,2.2Z" transform="translate(38.25 -11.97)"/><path class="logo-2" d="M499.8,502.27l-7.41-4.63-11.12-3.71L455.33,518l-6.48,11.12L440.51,531l-1.85,4.63-9.26-.93-5.56,4.63-.93,3.71L397,540.26l-13.9-12,20.38-14.82-8.34-11.12L372.88,506l-23.16,3.71-13-5.56,7.41,15.75,1.85,17.6V543l-8.34,3.71L334,556l-20.38-2.78-12-9.26-1.85-29.64,6.48-28.72,15.75-9.26,5.56-9.26-3.71-8.34-3.71-13.9,14.82-10.19,13.9,4.63,1.85-7.41-11.12-6.48,3.71-4.63,10.19.93,13.9,2.78h15.75l-5.56-1.85.93-6.48,4.63-3.71,2.78,5.56h16.68l38-1.85-55.58-10.19-23.16,8.34-11.12.93-1.85-5.56L345.09,405l-12,8.34,1.85,5.56L334,422.6l-3.71.93-3.71-3.71h-4.63L299.7,430.94l-25.94,31.5-38.91-2.78-4.63-24.09-25-9.26-18.53-7.41L182,404.08l-5.56-26.87,28.72-32.42-14.82-23.16,2.78-14.82-15.75,1.85-5.56,14.82-6.48-12-1.85-13.9L170,287.35l.93-5.56-10.19-5.56-41.69,3.71h27.79l14.82,3.71-12,9.26,5.56,23.16-9.26,14.82-9.26-4.63-6.48-4.63-11.12,4.63-10.19,6.48-2.78,5.56.93,4.63,4.63-5.56,4.63-3.71,12-4.63,9.26,11.12.93,22.23-13.9,6.48-11.12-2.78-3.71-.93-1.85,3.71,7.41,8.34-11.12,3.71L95,376.28l-4.63-17.6.93-9.26L95,343.86H83.85l2.37-1.78,1.33-1-3.71-16.68-4.63-9.26L74.58,304l-.93-21.31-1.85,8.34L70,299.39l7.41,23.16,3.71,10.19.93,4.63-1.44,1.93-4.11,5.48-1.85,31.5,3.71,29.64-5.56,22.23-4.63,4.63-5.56,7.41.93,11.12-3.71,7.41-.27.15a286.93,286.93,0,0,0,440.56,43.35Z" transform="translate(38.25 -11.97)"/><path class="logo-4" d="M63.47,451.32l-.93-11.12,5.56-7.41,4.63-4.63,5.56-22.23-3.71-29.64,1.85-31.5,4.11-5.48L82,337.38l-.93-4.63-3.71-10.19L70,299.39l1.85-8.34,1.85-8.34L74.58,304l4.63,11.12,4.63,9.26,3.71,16.68-1.33,1-2.37,1.78H95l-3.71,5.56-.93,9.26L95,376.28l9.26,4.63,11.12-3.71-7.41-8.34,1.85-3.71,3.71.93,11.12,2.78,13.9-6.48-.93-22.23L128.32,329l-12,4.63-4.63,3.71L107,342.93l-.93-4.63,2.78-5.56,10.19-6.48,11.12-4.63,6.48,4.63,9.26,4.63,9.26-14.82-5.56-23.16,12-9.26-14.82-3.71H119.05l41.69-3.71,10.19,5.56-.93,5.56-6.48,10.19,1.85,13.9,6.48,12,5.56-14.82,15.75-1.85-2.78,14.82,14.82,23.16-28.72,32.42L182,404.08l4.63,14.82,18.53,7.41,25,9.26,4.63,24.09,38.91,2.78,25.94-31.5,22.23-11.12h4.63l3.71,3.71,3.71-.93.93-3.71L333,413.34l12-8.34,3.71,4.63,1.85,5.56,11.12-.93,23.16-8.34,55.58,10.19-38,1.85H385.85l-2.78-5.56-4.63,3.71-.93,6.48,5.56,1.85H367.33l-13.9-2.78-10.19-.93-3.71,4.63,11.12,6.48-1.85,7.41-13.9-4.63-14.82,10.19,3.71,13.9,3.71,8.34-5.56,9.26-15.75,9.26-6.48,28.72L301.55,544l12,9.26L334,556l3.71-9.26L346,543v-5.56l-1.85-17.6-7.41-15.75,13,5.56L372.88,506l22.23-3.71,8.34,11.12-20.38,14.82,13.9,12L422.91,543l.93-3.71,5.56-4.63,9.26.93,1.85-4.63,8.34-1.85L455.33,518l25.94-24.09,11.12,3.71,7.41,4.63.26,0a286,286,0,0,0,84.53-203.36C584.58,140.42,456.13,12,297.67,12S10.76,140.42,10.76,298.88a285.57,285.57,0,0,0,48.73,160l.27-.15Z" transform="translate(38.25 -11.97)"/><polygon class="logo-3" points="186.5 393.97 191.65 405.98 184.22 426.57 177.35 438.01 157.91 436.29 157.34 418.56 169.35 397.4 180.79 384.82 186.5 393.97"/><polygon class="logo-3" points="136.18 454.02 139.03 460.88 149.33 464.89 162.48 462.6 159.62 451.16 149.33 446.01 145.33 440.87 140.75 440.3 140.18 444.87 140.04 444.88 133.31 445.44 136.18 454.02"/><polygon class="logo-3" points="213.96 411.7 208.24 413.99 212.24 425.43 216.82 427.14 220.25 421.42 217.96 415.13 213.96 411.7"/><polygon class="logo-3" points="325.49 519.79 315.76 524.94 303.18 525.51 292.89 528.95 293.46 538.67 303.18 543.82 316.34 542.67 324.34 536.95 327.77 528.37 325.49 519.79"/><polygon class="logo-3" points="415.85 548.39 410.13 549.54 412.99 555.26 416.43 557.54 419.29 555.26 419.86 551.25 415.85 548.39"/><polygon class="logo-3" points="275.73 474.04 267.72 494.63 291.17 507.78 302.04 507.21 303.18 499.2 292.31 490.05 280.88 474.04 275.73 474.04"/><polygon class="logo-3" points="263.72 439.15 260.29 446.01 268.29 453.45 270.01 446.01 263.72 439.15"/><polyline class="logo-3" points="260.29 458.03 256.28 460.88 260.29 471.18 264.86 467.18 265.43 459.74 260.29 455.74"/><polygon class="logo-3" points="138.86 223.93 136.3 227.77 142.71 230.34 144.63 225.85 138.86 223.93"/><polyline class="logo-3" points="108.11 225.85 106.83 231.62 106.83 241.87 110.03 249.56 110.67 255.32"/><path class="logo-3" d="M72.42,250" transform="translate(38.25 -11.97)"/><polygon class="logo-3" points="79.92 366.17 83.12 373.21 94.01 373.85 91.45 365.52 79.92 366.17"/><polyline class="logo-3" points="82.48 177.16 72.23 187.41 77.35 202.15 81.2 195.1 80.56 190.61 83.76 189.33 83.76 185.49 79.92 177.16"/><polyline class="logo-3" points="98.5 169.47 96.58 174.59 100.42 177.8 101.7 171.39 95.93 168.83"/><polygon class="logo-3" points="541.86 427.67 530.97 428.31 530.97 434.72 536.1 435.36 542.5 435.36 541.86 427.67"/><polygon class="logo-3" points="371.44 477.65 368.23 469.32 364.39 468.68 366.95 478.29 371.44 477.65"/><polygon class="logo-3" points="471.38 401.4 484.84 399.48 500.86 400.76 504.7 405.25 489.32 407.17 471.38 401.4"/><polygon class="logo-3" points="295.83 421.91 293.91 430.88 304.8 428.95 306.73 423.83 295.83 421.91"/><path class="logo-5" d="M67,463.7" transform="translate(38.25 -11.97)"/><path class="logo-4" d="M101.93,456.84" transform="translate(38.25 -11.97)"/><polygon class="logo-4" points="182.5 381.96 168.2 384.25 163.63 391.11 157.34 394.54 153.91 400.26 151.04 412.27 155.05 420.85 155.62 424.85 162.48 425.43 179.07 424.85 184.22 413.41 183.07 405.98 188.22 401.98 189.37 390.54 182.5 381.96"/><polygon class="logo-4" points="141.89 452.31 145.33 452.88 149.9 453.45 149.9 450.59 145.9 445.44 140.18 444.87 137.32 447.16 141.89 452.31"/><polygon class="logo-4" points="280.88 468.32 275.16 471.18 271.73 478.04 272.87 485.48 278.02 493.49 284.31 495.77 292.89 498.63 292.89 493.49 288.88 488.34 289.45 483.76 284.88 476.9 280.88 468.32"/><polygon class="logo-4" points="308.9 522.45 301.47 525.31 303.18 528.74 311.76 529.88 317.48 525.88 322.63 528.17 325.49 523.02 316.34 520.73 308.9 522.45"/><polygon class="logo-4" points="256.28 520.37 244.84 521.51 246.56 526.66 251.13 529.52 255.71 527.23 259.14 523.8 256.28 520.37"/><polygon class="logo-4" points="256.85 435.72 255.14 440.3 260.29 446.01 261.43 440.87 256.85 435.72"/><path class="logo-1" d="M302.11,414.46l-3.59-14.27h-20l-3.59,14.27H260.85l19.61-63.72H297l19.52,63.72Zm-21-24.31h14.83l-7.46-29.38Z" transform="translate(38.25 -11.97)"/><path class="logo-1" d="M360,350.74l-1.47,10.59H342.44v53.13H328.91V361.33H312V350.74Z" transform="translate(38.25 -11.97)"/><path class="logo-1" d="M380.47,350.74V403.6H405.7l-1.47,10.87H366.94V350.74Z" transform="translate(38.25 -11.97)"/><path class="logo-1" d="M447.51,414.46l-3.59-14.27h-20l-3.59,14.27H406.26l19.61-63.72h16.48l19.52,63.72Zm-21-24.31h14.83l-7.46-29.38Z" transform="translate(38.25 -11.97)"/><path class="logo-1" d="M499.21,351.25a29.21,29.21,0,0,1,9.44,6l-6.45,7.46a24.89,24.89,0,0,0-6.81-4.05,20.38,20.38,0,0,0-7.28-1.29,11.47,11.47,0,0,0-6.77,1.8,5.89,5.89,0,0,0-2.53,5.11,6.3,6.3,0,0,0,1.06,3.78,9.69,9.69,0,0,0,3.73,2.76,61.87,61.87,0,0,0,8,2.95q9.48,3,14.18,7.51t4.7,12.75a18.39,18.39,0,0,1-2.95,10.36,19.57,19.57,0,0,1-8.56,7,31.85,31.85,0,0,1-13.17,2.53,35.45,35.45,0,0,1-13.44-2.4A31,31,0,0,1,462.24,407l6.91-7.64a28.25,28.25,0,0,0,7.64,4.74,22.76,22.76,0,0,0,8.66,1.61,12.72,12.72,0,0,0,8-2.3,7.67,7.67,0,0,0,3-6.45,8,8,0,0,0-1.06-4.28,9.32,9.32,0,0,0-3.64-3.09,42.63,42.63,0,0,0-7.46-2.85q-10.4-3.22-14.87-7.74t-4.47-11.79a16.1,16.1,0,0,1,2.85-9.44,18.3,18.3,0,0,1,7.92-6.31,28.49,28.49,0,0,1,11.51-2.21A33.19,33.19,0,0,1,499.21,351.25Z" transform="translate(38.25 -11.97)"/><path class="logo-6" d="M174.31,170.63h-45L123.15,185H99L148.15,73h7.5l49,112H180.48Zm-22.5-55.49-14.5,37h29Z" transform="translate(38.25 -11.97)"/><path class="logo-6" d="M267,166.14V185a62.42,62.42,0,0,1-15.5,2c-20.33,0-33-9.83-33-31V121.48h-13v-19h13V81.65H241v20.83h23.33v19H241V154c0,9.5,5,12.83,15.33,12.83C259,166.8,262.63,166.47,267,166.14Z" transform="translate(38.25 -11.97)"/><path class="logo-6" d="M365.44,143.64c0,24.5-20,43.16-44.49,43.16s-44-18.66-44-43.16c0-24.33,19.5-43,44.16-43C345.45,100.65,365.44,119.31,365.44,143.64Zm-65.65.17c0,13,8.83,22.33,21.33,22.33,12.16,0,21.33-9.5,21.33-22.33,0-13-9.16-22.66-21.33-22.66C308.62,121.14,299.79,130.81,299.79,143.81Z" transform="translate(38.25 -11.97)"/><path class="logo-6" d="M510.08,133.81V185h-22.5V137c0-9.83-5.83-16-14.66-16-9,0-15.16,6.33-15.16,15.5V185h-22.5V137c0-9.83-5.83-16-14.66-16-9,0-15.17,6.17-15.17,16v48h-22.5V102.48H403.6v7.33c5.5-5.67,13.5-9.16,23.33-9.16,11.16,0,19.5,4.33,24.5,11.83,6.17-7.17,16-11.83,27.5-11.83C498.59,100.65,510.08,114,510.08,133.81Z" transform="translate(38.25 -11.97)"/><path class="logo-6" d="M324.87,281.19v51.16h-22.5v-48c0-9.83-5.83-16-14.66-16-9,0-15.16,6.33-15.16,15.5v48.49H250v-48c0-9.83-5.83-16-14.66-16-9,0-15.17,6.17-15.17,16v48h-22.5V249.87h20.66v7.33c5.5-5.67,13.5-9.16,23.33-9.16,11.17,0,19.5,4.33,24.5,11.83,6.17-7.17,16-11.83,27.5-11.83C313.37,248,324.87,261.36,324.87,281.19Z" transform="translate(38.25 -11.97)"/><path class="logo-6" d="M421.52,296c0,23.33-16.33,38.33-37.83,38.33-21.83,0-38.16-15-38.16-38.33V249.87H368v48c0,9.66,6.83,15.83,15.66,15.83,8.5,0,15.33-6.17,15.33-15.83v-48h22.5Zm-44.33-76.15c0,6.83-6.16,12.83-13.5,12.83-6.83,0-13.5-6-13.5-12.83,0-7.5,6.66-13.16,13.5-13.16A13.26,13.26,0,0,1,377.19,219.87Zm39.66,0c0,6.83-6.17,12.83-13.5,12.83-6.83,0-13.5-6-13.5-12.83,0-7.5,6.67-13.16,13.5-13.16A13.27,13.27,0,0,1,416.85,219.87Z" transform="translate(38.25 -11.97)"/><path class="logo-6" d="M465.51,332.35H443v-125h22.5Z" transform="translate(38.25 -11.97)"/><path class="logo-6" d="M510.33,332.35h-22.5v-125h22.5Z" transform="translate(38.25 -11.97)"/><text class="logo-7" transform="matrix(-0.42, -0.91, 0.91, -0.42, 108.6, 401.97)">w</text><text class="logo-7" transform="matrix(-0.36, -0.93, 0.93, -0.36, 101.11, 385.99)">w</text><text class="logo-7" transform="translate(94.74 369.55) rotate(-107.22)">w</text><text class="logo-7" transform="translate(90.01 353.98) rotate(-104.95)">.</text><text class="logo-7" transform="translate(88.53 348.63) rotate(-103.1)">a</text><text class="logo-7" transform="translate(86.07 337.95) rotate(-101)">t</text><text class="logo-7" transform="translate(84.56 330.43) rotate(-98.74)">o</text><text class="logo-7" transform="translate(82.55 317.99) rotate(-95.29)">m</text><text class="logo-7" transform="translate(80.87 299.93) rotate(-91.2)">m</text><text class="logo-7" transform="matrix(0.04, -1, 1, 0.04, 80.58, 281.77)">u</text><text class="logo-7" transform="translate(81.01 270.18) rotate(-85.2)">e</text><text class="logo-7" transform="matrix(0.12, -0.99, 0.99, 0.12, 82.06, 258.35)">l</text><text class="logo-7" transform="translate(82.66 253.29) rotate(-82.13)">l</text><text class="logo-7" transform="translate(83.34 248.26) rotate(-80.74)">-</text><text class="logo-7" transform="matrix(0.2, -0.98, 0.98, 0.2, 84.46, 241.19)">a</text><text class="logo-7" transform="matrix(0.23, -0.97, 0.97, 0.23, 86.63, 230.44)">t</text><text class="logo-7" transform="matrix(0.26, -0.97, 0.97, 0.26, 88.49, 222.76)">l</text><text class="logo-7" transform="translate(89.74 217.86) rotate(-73.3)">a</text><text class="logo-7" transform="matrix(0.33, -0.95, 0.95, 0.33, 92.9, 207.37)">s</text><text class="logo-7" transform="translate(96 198.45) rotate(-69.34)">.</text><text class="logo-7" transform="translate(97.82 193.42) rotate(-67.31)">d</text><text class="logo-7" transform="translate(102.88 181.34) rotate(-64.57)">e</text></svg>