<svg version="1.1" xmlns="http://www.w3.org/2000/svg" xmlns:xlink="http://www.w3.org/1999/xlink"
	 viewBox="0 0 512 512" xml:space="preserve">
	<g transform="translate(1 1)">
		<path d="M254.996,383.004c-11.776,0-21.333,9.557-21.333,21.333s9.557,21.333,21.333,21.333c11.776,0,21.333-9.557,21.333-21.333
			S266.772,383.004,254.996,383.004z"/>
		<path d="M436.016,73.984c-99.979-99.979-262.075-99.979-362.033,0.002c-99.978,99.978-99.978,262.073,0.004,362.031
			c99.954,99.978,262.05,99.978,362.029-0.002C535.995,336.059,535.995,173.964,436.016,73.984z M405.848,405.844
			c-83.318,83.318-218.396,83.318-301.691,0.004c-83.318-83.299-83.318-218.377-0.002-301.693
			c83.297-83.317,218.375-83.317,301.691,0S489.162,322.549,405.848,405.844z"/>
		<path d="M270.295,85.684c-53.025-9.308-100.632,31.063-100.632,83.987c0,11.782,9.551,21.333,21.333,21.333
			c11.782,0,21.333-9.551,21.333-21.333c0-26.507,23.776-46.67,50.584-41.964c16.882,2.968,31.079,17.165,34.048,34.052
			c3.299,18.783-5.487,36.533-21.417,45.315c-26.377,14.544-41.882,43.645-41.882,74.746v37.184
			c0,11.782,9.551,21.333,21.333,21.333c11.782,0,21.333-9.551,21.333-21.333V281.82c0-16.217,7.725-30.716,19.816-37.382
			c31.705-17.479,49.333-53.091,42.839-90.063C332.906,119.803,304.864,91.761,270.295,85.684z"/>
	</g>
</svg>
